<svg xmlns="http://www.w3.org/2000/svg" width="27" height="27" viewBox="0 0 27 27"><defs><style>.a{fill:#2d3748;}.b{fill:rgba(45,55,72,0.11);stroke:#2d3748;stroke-width:0.1px;}</style></defs><path class="a" d="M23.318,0H3.682A3.686,3.686,0,0,0,0,3.682V23.318A3.687,3.687,0,0,0,3.682,27H23.318A3.687,3.687,0,0,0,27,23.318V3.682A3.687,3.687,0,0,0,23.318,0Zm2.455,23.318a2.463,2.463,0,0,1-2.455,2.455H3.682a2.463,2.463,0,0,1-2.455-2.455V3.682A2.462,2.462,0,0,1,3.682,1.227H23.318a2.462,2.462,0,0,1,2.455,2.455Z"/><circle class="a" cx="1.042" cy="1.042" r="1.042" transform="translate(6.527 2.864)"/><circle class="a" cx="1.042" cy="1.042" r="1.042" transform="translate(12.458 2.864)"/><circle class="a" cx="1.042" cy="1.042" r="1.042" transform="translate(18.39 2.864)"/><rect class="a" width="3.76" height="3.345" transform="translate(9.11 10.556)"/><rect class="b" width="3.76" height="3.345" transform="translate(4.11 10.556)"/><rect class="a" width="3.76" height="3.345" transform="translate(14.131 10.556)"/><rect class="a" width="3.76" height="3.345" transform="translate(19.149 10.556)"/><rect class="a" width="3.76" height="3.343" transform="translate(4.091 15.021)"/><rect class="a" width="3.76" height="3.343" transform="translate(9.11 15.021)"/><rect class="a" width="3.76" height="3.343" transform="translate(14.131 15.021)"/><rect class="a" width="3.76" height="3.343" transform="translate(19.149 15.021)"/><rect class="a" width="3.76" height="3.343" transform="translate(4.091 19.486)"/><rect class="a" width="3.76" height="3.343" transform="translate(9.11 19.486)"/><rect class="a" width="3.76" height="3.343" transform="translate(14.131 19.486)"/><rect class="a" width="3.76" height="3.343" transform="translate(19.149 19.486)"/></svg>