<svg xmlns="http://www.w3.org/2000/svg" width="23.172" height="24" viewBox="0 0 23.172 24"><defs><style>.a{fill:#2d3748;}</style></defs><g transform="translate(-32 -24)"><path class="a" d="M69.517,107.448a.414.414,0,0,1-.414.414H48v.828H70.345V88h-.828Z" transform="translate(-15.172 -60.69)"/><path class="a" d="M53.517,168H32v14.9H53.517Zm-11.172,9.517a2.483,2.483,0,0,1-4.965,0,.414.414,0,1,1,.828,0,1.655,1.655,0,1,0,1.655-1.655.414.414,0,1,1,0-.828,1.655,1.655,0,1,0-1.655-1.655.414.414,0,0,1-.828,0,2.483,2.483,0,1,1,3.854,2.069A2.482,2.482,0,0,1,42.345,177.517Zm5.793,0a2.483,2.483,0,1,1-4.965,0v-4.138a2.483,2.483,0,1,1,4.965,0Z" transform="translate(0 -136.552)"/><path class="a" d="M265.655,240A1.657,1.657,0,0,0,264,241.655v4.138a1.655,1.655,0,0,0,3.31,0v-4.138A1.657,1.657,0,0,0,265.655,240Z" transform="translate(-220 -204.828)"/><path class="a" d="M49.379,26.483V25.241a.414.414,0,1,1,.828,0v.414h.828v-.414a1.241,1.241,0,1,0-2.483,0v1.241H46.069V25.241a.414.414,0,1,1,.828,0v.414h.828v-.414a1.241,1.241,0,1,0-2.483,0v1.241H38.621V25.241a.414.414,0,1,1,.828,0v.414h.828v-.414a1.241,1.241,0,1,0-2.483,0v1.241H35.31V25.241a.414.414,0,1,1,.828,0v.414h.828v-.414a1.241,1.241,0,1,0-2.483,0v1.241H32v4.138H53.517V26.483Z"/></g></svg>