<svg xmlns="http://www.w3.org/2000/svg" width="41.439" height="35.008" viewBox="0 0 41.439 35.008"><defs><style>.a{fill:#00a4cf;}</style></defs><g transform="translate(4.22 -8.819)"><g transform="translate(-8.759 -33.778)"><path class="a" d="M829.439,955.957v11.365a4.312,4.312,0,0,1-4.312,4.312h-1.893l2.649,3.206a.709.709,0,0,1-.927,1.05l-6.688-4.256H807.34a4.312,4.312,0,0,1-4.134-3.092l.345-.219h14.572a6.763,6.763,0,0,0,6.763-6.763v-9.914h.241A4.313,4.313,0,0,1,829.439,955.957Zm-11.52,11H802.507l-9.273,5.9a.81.81,0,0,1-1.06-1.2l3.884-4.7H793.6a5.6,5.6,0,0,1-5.6-5.6V946.6a5.6,5.6,0,0,1,5.6-5.6h24.32a5.6,5.6,0,0,1,5.6,5.6v14.757A5.6,5.6,0,0,1,817.919,966.956ZM800.3,953.978a1.822,1.822,0,1,0-1.821,1.822A1.822,1.822,0,0,0,800.3,953.978Zm7.286,0a1.821,1.821,0,1,0-1.821,1.822A1.822,1.822,0,0,0,807.581,953.978Zm7.286,0a1.821,1.821,0,1,0-1.821,1.822A1.822,1.822,0,0,0,814.867,953.978Z" transform="translate(-783.461 -898.402)"/></g></g></svg>