<svg xmlns="http://www.w3.org/2000/svg" width="73" height="73" viewBox="0 0 73 73"><defs><style>.a{fill:#2d3748;}</style></defs><g transform="translate(6.416 40.92)"><path class="a" d="M51.416,287a6.416,6.416,0,1,0,6.416,6.416A6.423,6.423,0,0,0,51.416,287Z" transform="translate(-45 -287)"/></g><g transform="translate(0 53.752)"><path class="a" d="M17.109,377H8.555A8.563,8.563,0,0,0,0,385.555v8.555a2.137,2.137,0,0,0,2.139,2.139H23.525a2.137,2.137,0,0,0,2.139-2.139v-8.555A8.563,8.563,0,0,0,17.109,377Z" transform="translate(0 -377)"/></g><g transform="translate(53.752 40.92)"><path class="a" d="M383.416,287a6.416,6.416,0,1,0,6.416,6.416A6.423,6.423,0,0,0,383.416,287Z" transform="translate(-377 -287)"/></g><g transform="translate(47.336 53.752)"><path class="a" d="M349.109,377h-8.555A8.563,8.563,0,0,0,332,385.555v8.555a2.137,2.137,0,0,0,2.139,2.139h21.387a2.137,2.137,0,0,0,2.139-2.139v-8.555A8.563,8.563,0,0,0,349.109,377Z" transform="translate(-332 -377)"/></g><g transform="translate(8.697)"><path class="a" d="M88.8,0H71.693A10.693,10.693,0,0,0,61,10.693V23.525A10.712,10.712,0,0,0,69.555,34v6.631a2.139,2.139,0,0,0,3.651,1.512l7.928-7.928H88.8A10.693,10.693,0,0,0,99.5,23.525V10.693A10.693,10.693,0,0,0,88.8,0Zm-.627,12.205L79.621,20.76a2.139,2.139,0,0,1-3.024,0L72.32,16.483a2.138,2.138,0,1,1,3.024-3.024l2.765,2.765,7.043-7.043a2.138,2.138,0,1,1,3.024,3.024Z" transform="translate(-61)"/></g><g transform="translate(45.424 4.277)"><path class="a" d="M326.775,30h-3.64a14.8,14.8,0,0,1,1.5,6.416V49.248A14.912,14.912,0,0,1,318.589,61.2l6.673,6.673a2.139,2.139,0,0,0,3.651-1.512V59.726a10.712,10.712,0,0,0,8.555-10.478V40.693A10.693,10.693,0,0,0,326.775,30Z" transform="translate(-318.589 -30)"/></g></svg>