<svg xmlns="http://www.w3.org/2000/svg" width="94.538" height="52.796" viewBox="0 0 94.538 52.796"><defs><style>.a{fill:#2d3748;}</style></defs><path class="a" d="M91.766,19.687H85.61c-1.974,0-4.493.711-4.493,2.685V36.687c0,2.961-1.494,6.264-4.455,6.264H19.7c-2.961,0-6.283-3.3-6.283-6.264V22.372c0-1.974-.692-2.685-2.666-2.685H4.493C2.519,19.687,0,20.4,0,22.372v17a7.417,7.417,0,0,0,7.159,7.159v4.4c0,.494,1.315,1.864,1.808,1.864h4.474c.494,0-.019-1.37-.019-1.864v-3.5h65.01v3.505c0,.494,1.315,1.864,1.808,1.864h7.05c.494,0,.089-1.37.089-1.864v-4.4a7.417,7.417,0,0,0,7.159-7.159v-17C94.54,20.4,93.739,19.687,91.766,19.687Z"/><path class="a" d="M77.538,36.689v-.9H17v.9a3.727,3.727,0,0,0,2.7,2.685h56.96C77.649,39.373,77.538,37.676,77.538,36.689Z"/><path class="a" d="M78.452,0H17.916C12.489,0,7.159,3.521,7.159,8.948v7.159h3.6c3.947,0,6.245,2.317,6.245,6.264v9.843H77.54V22.371c0-3.947,4.125-6.264,8.072-6.264h1.771V8.948C87.382,3.521,83.879,0,78.452,0Z"/></svg>