<svg xmlns="http://www.w3.org/2000/svg" width="61.619" height="61.604" viewBox="0 0 61.619 61.604"><defs><style>.a{fill:#2d3748;}</style></defs><path class="a" d="M105.854,7.075a7.015,7.015,0,1,0-7.017,7.014h0a7.022,7.022,0,0,0,7.012-7.014Z" transform="translate(-80.773 -0.061)"/><path class="a" d="M78.859,125.156a8.543,8.543,0,0,0-8.533-8.533h-.955v11.225H65.76V116.623h-.955a8.543,8.543,0,0,0-8.533,8.533v8.792H78.859Z" transform="translate(-49.499 -102.594)"/><path class="a" d="M.023,378.789H61.634V360.576H.018Z" transform="translate(-0.016 -317.185)"/><path class="a" d="M0,290.571v4.815H61.619v-4.815Z" transform="translate(0 -255.605)"/><path class="a" d="M310.824,180.487h20v9.639h-20Z" transform="translate(-273.414 -158.771)"/><path class="a" d="M61.617,18.214H0L0,0H1.751V12.2a4,4,0,0,0,4,4H61.617v2.011Z" transform="translate(0.002 43.389)"/><path class="a" d="M0,290.571v1.468H61.619v-1.468Z" transform="translate(0 -253.932)"/><path class="a" d="M310.824,180.487h15.528v9.639H310.824Z" transform="translate(-271.179 -158.771)"/></svg>