<svg xmlns="http://www.w3.org/2000/svg" width="60" height="60" viewBox="0 0 60 60"><defs><style>.a{fill:#2d3748;}</style></defs><g transform="translate(-32 -32)"><path class="a" d="M416,312h2.148v2.148H416Z" transform="translate(-332.592 -242.503)"/><path class="a" d="M416,392h2.148v2.148H416Z" transform="translate(-332.592 -311.814)"/><path class="a" d="M259.727,235.44l-.658,4.034,3.375-1.866a1.074,1.074,0,0,1,1.039,0l3.375,1.866-.658-4.034a1.074,1.074,0,0,1,.291-.923l2.835-2.907-3.871-.591a1.074,1.074,0,0,1-.81-.605l-1.683-3.586-1.683,3.585a1.074,1.074,0,0,1-.81.605l-3.871.591,2.836,2.908a1.074,1.074,0,0,1,.292.923Z" transform="translate(-194.538 -168.752)"/><path class="a" d="M336,392h2.148v2.148H336Z" transform="translate(-263.289 -311.814)"/><path class="a" d="M176,392h2.148v2.148H176Z" transform="translate(-124.716 -311.814)"/><path class="a" d="M176,232h2.148v2.148H176Z" transform="translate(-124.716 -173.217)"/><path class="a" d="M176,312h2.148v2.148H176Z" transform="translate(-124.716 -242.503)"/><path class="a" d="M378.148,39.518V33.074a1.074,1.074,0,1,0-2.148,0v6.444a1.074,1.074,0,1,0,2.148,0Z" transform="translate(-297.933)"/><path class="a" d="M256,392h2.148v2.148H256Z" transform="translate(-194.003 -311.814)"/><path class="a" d="M122.148,39.518V33.074a1.074,1.074,0,0,0-2.148,0v6.444a1.074,1.074,0,0,0,2.148,0Z" transform="translate(-76.215)"/><path class="a" d="M250.148,39.518V33.074a1.074,1.074,0,1,0-2.148,0v6.444a1.074,1.074,0,1,0,2.148,0Z" transform="translate(-187.074)"/><path class="a" d="M416,232h2.148v2.148H416Z" transform="translate(-332.592 -173.217)"/><path class="a" d="M96,312h2.148v2.148H96Z" transform="translate(-55.408 -242.503)"/><path class="a" d="M32,199.6a3.216,3.216,0,0,0,3.214,3.211H88.786A3.217,3.217,0,0,0,92,199.6V160H32Zm34.286-5.352a1.071,1.071,0,0,1-1.071,1.07H60.929a1.071,1.071,0,0,1-1.071-1.07v-4.282a1.071,1.071,0,0,1,1.071-1.07h4.286a1.071,1.071,0,0,1,1.071,1.07Zm10.714,0a1.071,1.071,0,0,1-1.071,1.07H71.643a1.071,1.071,0,0,1-1.071-1.07v-4.282a1.071,1.071,0,0,1,1.071-1.07h4.286A1.071,1.071,0,0,1,77,189.971Zm4.286-25.69a1.071,1.071,0,0,1,1.071-1.07h4.286a1.071,1.071,0,0,1,1.071,1.07v4.282a1.071,1.071,0,0,1-1.071,1.07H82.357a1.071,1.071,0,0,1-1.071-1.07Zm0,10.7a1.071,1.071,0,0,1,1.071-1.07h4.286a1.071,1.071,0,0,1,1.071,1.07v4.282a1.071,1.071,0,0,1-1.071,1.07H82.357a1.071,1.071,0,0,1-1.071-1.07Zm0,10.7a1.071,1.071,0,0,1,1.071-1.07h4.286a1.071,1.071,0,0,1,1.071,1.07v4.282a1.071,1.071,0,0,1-1.071,1.07H82.357a1.071,1.071,0,0,1-1.071-1.07ZM58.841,172.624a1.071,1.071,0,0,1,.854-.718l5.357-.818,2.406-5.12a1.072,1.072,0,0,1,1.94,0l2.406,5.12,5.357.818a1.07,1.07,0,0,1,.605,1.806l-3.908,4,.924,5.663a1.071,1.071,0,0,1-1.574,1.108l-4.779-2.639-4.779,2.639a1.071,1.071,0,0,1-1.576-1.109L63,177.713l-3.908-4a1.07,1.07,0,0,1-.248-1.087Zm-9.7-4.061a1.071,1.071,0,0,1,1.071-1.07H54.5a1.071,1.071,0,0,1,1.071,1.07v4.282a1.071,1.071,0,0,1-1.071,1.07H50.214a1.071,1.071,0,0,1-1.071-1.07Zm0,10.7a1.071,1.071,0,0,1,1.071-1.07H54.5a1.071,1.071,0,0,1,1.071,1.07v4.282a1.071,1.071,0,0,1-1.071,1.07H50.214a1.071,1.071,0,0,1-1.071-1.07Zm0,10.7a1.071,1.071,0,0,1,1.071-1.07H54.5a1.071,1.071,0,0,1,1.071,1.07v4.282a1.071,1.071,0,0,1-1.071,1.07H50.214a1.071,1.071,0,0,1-1.071-1.07Zm-10.714-10.7A1.071,1.071,0,0,1,39.5,178.2h4.286a1.071,1.071,0,0,1,1.071,1.07v4.282a1.071,1.071,0,0,1-1.071,1.07H39.5a1.071,1.071,0,0,1-1.071-1.07Zm0,10.7A1.071,1.071,0,0,1,39.5,188.9h4.286a1.071,1.071,0,0,1,1.071,1.07v4.282a1.071,1.071,0,0,1-1.071,1.07H39.5a1.071,1.071,0,0,1-1.071-1.07Z" transform="translate(0 -110.816)"/><path class="a" d="M96,392h2.148v2.148H96Z" transform="translate(-55.408 -311.814)"/><path class="a" d="M88.786,64H82.357v3.222a3.214,3.214,0,1,1-6.429,0V64H65.214v3.222a3.214,3.214,0,1,1-6.429,0V64H48.071v3.222a3.214,3.214,0,1,1-6.429,0V64H35.214A3.222,3.222,0,0,0,32,67.222V74.74H92V67.222A3.222,3.222,0,0,0,88.786,64Z" transform="translate(0 -27.704)"/></g></svg>