<svg xmlns="http://www.w3.org/2000/svg" width="24" height="24" viewBox="0 0 24 24"><defs><style>.a{fill:#fff;}</style></defs><path class="a" d="M12,24A12,12,0,0,1,3.515,3.515a12,12,0,1,1,16.97,16.97A11.924,11.924,0,0,1,12,24ZM12,4.941c-1.257,0-2.373.019-2.912.051A4.167,4.167,0,0,0,6.132,6.128a4.163,4.163,0,0,0-1.14,2.957c-.066,1.171-.066,4.653,0,5.824a4.147,4.147,0,0,0,1.14,2.957,4.186,4.186,0,0,0,2.957,1.14c.537.03,1.652.049,2.911.049s2.375-.019,2.912-.049a4.147,4.147,0,0,0,2.957-1.14,4.176,4.176,0,0,0,1.14-2.957c.066-1.17.066-4.651,0-5.821a4.148,4.148,0,0,0-1.14-2.958,4.176,4.176,0,0,0-2.957-1.14C14.374,4.96,13.258,4.941,12,4.941Zm1.252,12.852c-.232,0-.46,0-.661,0h-.086l-.5,0-.494,0c-.229,0-.476,0-.729,0a10.135,10.135,0,0,1-2.937-.29A2.386,2.386,0,0,1,6.5,16.16,12.73,12.73,0,0,1,6.213,12.5v-.03c0-.172,0-.335,0-.474s0-.291,0-.458V11.5A12.883,12.883,0,0,1,6.5,7.838,2.386,2.386,0,0,1,7.842,6.5,9.987,9.987,0,0,1,10.754,6.2c.232,0,.483,0,.745,0h.16l.343,0c.13,0,.292,0,.494,0,.229,0,.476,0,.73,0a10.143,10.143,0,0,1,2.938.29A2.388,2.388,0,0,1,17.5,7.838a12.69,12.69,0,0,1,.287,3.658v.03c0,.171,0,.334,0,.472s0,.3,0,.474v.03A12.676,12.676,0,0,1,17.5,16.16,2.386,2.386,0,0,1,16.163,17.5,9.968,9.968,0,0,1,13.253,17.793ZM12,8.379A3.62,3.62,0,1,0,15.62,12,3.623,3.623,0,0,0,12,8.379Zm3.768-.991a.844.844,0,1,0,.843.843A.845.845,0,0,0,15.77,7.388ZM12,14.351A2.353,2.353,0,1,1,14.355,12,2.355,2.355,0,0,1,12,14.351Z"/></svg>