<svg xmlns="http://www.w3.org/2000/svg" width="24" height="24" viewBox="0 0 24 24"><defs><style>.a{fill:#fff;}</style></defs><path class="a" d="M12,24A12,12,0,0,1,3.515,3.515a12,12,0,1,1,16.97,16.97A11.924,11.924,0,0,1,12,24Zm2.614-12.026c1.522,0,1.522,1.442,1.522,2.495v4.589h2.92l0-5.177c0-2.329-.425-4.484-3.506-4.484a3.089,3.089,0,0,0-2.77,1.521h-.042V9.632H9.935v9.426h2.923V14.39C12.859,13.2,13.067,11.974,14.614,11.974ZM5.175,9.632v9.426H8.1V9.632ZM6.636,4.94a1.7,1.7,0,1,0,1.7,1.7A1.7,1.7,0,0,0,6.636,4.94Z"/></svg>