<svg xmlns="http://www.w3.org/2000/svg" width="24" height="24" viewBox="0 0 24 24"><defs><style>.a{fill:#fff;}</style></defs><path class="a" d="M12,24A12,12,0,0,1,3.515,3.515a12,12,0,1,1,16.97,16.97A11.924,11.924,0,0,1,12,24ZM11.753,6.7c-1.7,0-3.226.032-4.677.1A2.151,2.151,0,0,0,5.038,9.048c-.067.955-.1,1.947-.1,2.946s.028,1.978.093,2.948A2.152,2.152,0,0,0,7.072,17.19c1.513.07,3.107.1,4.738.1h.576c1.561,0,3.087-.036,4.538-.105a2.154,2.154,0,0,0,2.041-2.247c.065-.97.1-1.964.093-2.951.006-.971-.024-1.964-.09-2.948A2.15,2.15,0,0,0,16.926,6.8c-1.449-.067-2.978-.1-4.675-.1h-.5Zm-1.1,8h0V9.281l4,2.707-4,2.711Z"/></svg>