<svg xmlns="http://www.w3.org/2000/svg" width="62.237" height="62.237" viewBox="0 0 62.237 62.237"><defs><style>.a{fill:#2d3748;}</style></defs><g transform="translate(-12.454 -12.454)"><path class="a" d="M26.9,53.8A26.907,26.907,0,0,1,16.431,2.116,26.914,26.914,0,0,1,51.689,37.373,26.883,26.883,0,0,1,26.9,53.8ZM13.916,4.641V15.018a17.566,17.566,0,0,0,3.065,26.43l-.094,3.05a3.617,3.617,0,1,0,7.23,0l-.007-.2a17.2,17.2,0,0,0,8.622-.776l-.063.854a3.615,3.615,0,1,0,7.221.248V38.789a17.651,17.651,0,0,0,0-23.771V8.655A4.012,4.012,0,0,0,36.31,4.662a4.235,4.235,0,0,0-.439-.024,4.042,4.042,0,0,0-3.919,3.147c-.14.627-.26,1.289-.357,1.82l-.007.044-.048.263a17.094,17.094,0,0,0-4.558-.617H26.9V4.641H25.047v11.13a4.707,4.707,0,0,1-.928,2.783,4.562,4.562,0,0,1-.953.944,4.5,4.5,0,0,0-1.753,3.8l.849,21.268a1.746,1.746,0,0,1-.495,1.284,1.81,1.81,0,0,1-2.534,0,1.772,1.772,0,0,1-.495-1.288L19.4,23.288a4.485,4.485,0,0,0-1.756-3.79,4.768,4.768,0,0,1-.95-.944,4.7,4.7,0,0,1-.929-2.783V4.641ZM7.208,12.989A24.1,24.1,0,0,0,2.858,24.974l1.85.146A22.22,22.22,0,0,1,8.723,14.063L7.208,12.989ZM21.336,4.638v10.2h1.855V4.638Zm-3.711,0v10.2h1.857V4.638Zm-7.445,4.9c-.582.564-1.123,1.138-1.608,1.705l1.411,1.208c.457-.535.957-1.065,1.486-1.577ZM36.274,46.384a1.758,1.758,0,0,1-1.755-1.876L35.6,29.753a.922.922,0,0,0-.923-.994H32.468V19.991a54.5,54.5,0,0,1,1.3-11.8,2.169,2.169,0,0,1,2.107-1.7,1.9,1.9,0,0,1,.234.012,2.158,2.158,0,0,1,1.93,2.148V44.623A1.769,1.769,0,0,1,36.274,46.384Zm-9.287-3.712a15.157,15.157,0,0,1-2.954-.291l-.765-19.155a2.635,2.635,0,0,1,1-2.234A6.382,6.382,0,0,0,25.6,19.668a6.488,6.488,0,0,0,1.3-3.9V11.149h.075a15.253,15.253,0,0,1,4.261.605,56.756,56.756,0,0,0-.626,8.236v9.694a.929.929,0,0,0,.928.928h2.137l-.8,10.86A14.994,14.994,0,0,1,26.987,42.672ZM17.053,39.2h0a15.712,15.712,0,0,1-2.858-21.6,6.393,6.393,0,0,0,2.356,3.4,2.627,2.627,0,0,1,1,2.235l-.5,15.971v0Zm22.836-3.38V17.986a15.679,15.679,0,0,1,0,17.832Z" transform="translate(16.671 16.671)"/><path class="a" d="M47.119,16A31.119,31.119,0,1,0,78.237,47.119,31.154,31.154,0,0,0,47.119,16Zm0,60.163A29.044,29.044,0,1,1,76.163,47.119,29.077,29.077,0,0,1,47.119,76.163Z" transform="translate(-3.546 -3.546)"/></g></svg>