<svg xmlns="http://www.w3.org/2000/svg" width="52.907" height="62.418" viewBox="0 0 52.907 62.418"><defs><style>.a{fill:#00a4cf;}</style></defs><g transform="translate(26.864 6.858)"><path class="a" d="M642.157,641.659a9.457,9.457,0,1,1-9.457-9.422A9.308,9.308,0,0,1,642.157,641.659Zm-14.567,0A5.138,5.138,0,1,0,632.7,636.2,5.135,5.135,0,0,0,627.59,641.659Z" transform="translate(-623.244 -632.237)"/></g><g transform="translate(7.13 37.124)"><path class="a" d="M472.155,876.789a9.744,9.744,0,0,0-8.335,4.855l3.873,1.792a5.067,5.067,0,0,1,4.461-2.684,5.431,5.431,0,0,1,0,10.848,5.087,5.087,0,0,1-4.5-2.729l-3.871,1.848a9.7,9.7,0,0,0,8.367,4.844,9.387,9.387,0,1,0,0-18.774Z" transform="translate(-463.788 -876.789)"/></g><g transform="translate(7.13 6.858)"><path class="a" d="M473.245,651.012a9.745,9.745,0,0,0,8.335-4.855l-3.874-1.793a5.066,5.066,0,0,1-4.461,2.684,5.431,5.431,0,0,1,0-10.847,5.087,5.087,0,0,1,4.5,2.729l3.871-1.848a9.7,9.7,0,0,0-8.366-4.844,9.388,9.388,0,1,0,0,18.775Z" transform="translate(-463.788 -632.237)"/></g><g transform="translate(7.468 29.384)"><path class="a" d="M471.013,820.3h0l.286-2.151h10.859l.472-3.894H467.72l-1.118,8.276-.081.692a12.031,12.031,0,0,1,4.452-2.628Z" transform="translate(-466.521 -814.25)"/></g><g transform="translate(27.882 37.124)"><path class="a" d="M639.829,876.789a9.745,9.745,0,0,0-8.335,4.855l3.874,1.792a5.066,5.066,0,0,1,4.461-2.684,5.431,5.431,0,0,1,0,10.848,5.087,5.087,0,0,1-4.5-2.729l-3.871,1.848a9.7,9.7,0,0,0,8.366,4.844,9.387,9.387,0,1,0,0-18.774Z" transform="translate(-631.463 -876.789)"/></g><g transform="translate(28.22 29.384)"><path class="a" d="M638.688,820.3h0l.286-2.151h10.859l.472-3.894H635.395l-1.118,8.276-.081.692a12.03,12.03,0,0,1,4.452-2.628Z" transform="translate(-634.196 -814.25)"/></g><path class="a" d="M455.594,871.36H409.672V845.713H406.18v29.14h52.907v-29.14h-3.493Z" transform="translate(-406.18 -812.435)"/><path class="a" d="M409.672,580.316h45.922v25.892h3.493V576.823H406.18v29.385h3.493Z" transform="translate(-406.18 -576.823)"/></svg>