<svg xmlns="http://www.w3.org/2000/svg" xmlns:xlink="http://www.w3.org/1999/xlink" width="1920" height="828" viewBox="0 0 1920 828"><defs><style>.a,.c{fill:#fff;}.b{opacity:0.02;clip-path:url(#a);}.c{opacity:0;}.d{fill:#2d3748;}.e{fill:url(#b);}</style><clipPath id="a"><rect class="a" width="1920" height="828"/></clipPath><linearGradient id="b" x1="0.5" y1="1" x2="0.5" gradientUnits="objectBoundingBox"><stop offset="0" stop-color="#f7f8fb" stop-opacity="0"/><stop offset="1" stop-color="#fcfdff"/></linearGradient></defs><g transform="translate(0 -2695)"><g class="b" transform="translate(0 2695)"><rect class="c" width="1920" height="1080" transform="translate(0 -252)"/><path class="d" d="M-2712.292,3313.067c-23.628,0-54.035-17.884-54.035-53.851,0-36.164,30.407-53.452,54.035-53.452,23.677,0,54.06,17.288,54.06,53.452C-2658.232,3295.183-2688.614,3313.067-2712.292,3313.067Zm0-84.651c-13.907,0-29.211,10.533-29.211,30.8,0,20.666,15.3,31.2,29.211,31.2,14.107,0,29.41-10.531,29.41-31.2C-2682.881,3238.949-2698.185,3228.416-2712.292,3228.416Zm159.039-76.5c0,35.968-30.407,53.851-54.06,53.851-23.628,0-54.035-17.884-54.035-53.851,0-36.164,30.407-53.451,54.035-53.451C-2583.66,3098.462-2553.253,3115.75-2553.253,3151.913Zm-54.06-30.8c-13.882,0-29.186,10.533-29.186,30.8,0,20.667,15.3,31.2,29.186,31.2,14.107,0,29.41-10.531,29.41-31.2C-2577.9,3131.646-2593.206,3121.113-2607.313,3121.113Zm-26.27,138.5c0-20.666,15.3-31.2,29.41-31.2a28.908,28.908,0,0,1,25.472,15.341l22.157-10.246c-10.194-18.523-30.656-27.749-47.629-27.749-23.653,0-54.06,17.883-54.06,53.851,0,36.164,30.407,53.452,54.06,53.452,17.073,0,37.685-9.033,47.8-27.687l-22.132-10.564a29.043,29.043,0,0,1-25.671,15.6C-2618.279,3290.415-2633.582,3279.882-2633.582,3259.615Zm-108.119-107.3c0-20.666,15.3-31.2,29.41-31.2a28.983,28.983,0,0,1,25.522,15.341l22.132-10.245c-10.194-18.524-30.681-27.75-47.654-27.75-23.628,0-54.035,17.884-54.035,53.85,0,36.164,30.407,53.452,54.035,53.452,17.1,0,37.71-9.034,47.829-27.688l-22.107-10.564a29.116,29.116,0,0,1-25.721,15.6C-2726.4,3183.113-2741.7,3172.58-2741.7,3152.312Zm27.865,161.373c23.653,0,54.06,17.288,54.06,53.452,0,35.968-30.407,53.851-54.06,53.851-23.628,0-54.06-17.884-54.06-53.851C-2767.9,3330.973-2737.464,3313.685-2713.837,3313.685Zm0,84.65c14.107,0,29.41-10.532,29.41-31.2,0-20.267-15.3-30.8-29.41-30.8-13.907,0-29.211,10.533-29.211,30.8C-2743.047,3387.8-2727.744,3398.335-2713.837,3398.335Zm-159.038-30.8c0,36.164,30.407,53.452,54.06,53.452,17.073,0,37.709-9.033,47.8-27.688l-22.107-10.563a29.08,29.08,0,0,1-25.7,15.6c-14.107,0-29.41-10.533-29.41-30.8,0-20.666,15.3-31.2,29.41-31.2a28.974,28.974,0,0,1,25.5,15.341l22.157-10.245c-10.194-18.524-30.681-27.75-47.654-27.75C-2842.468,3313.685-2872.875,3331.569-2872.875,3367.536Zm106.549-108.32c0-36.164-30.407-53.452-54.035-53.452-17.1,0-37.709,9.033-47.854,27.688l22.132,10.564a29.116,29.116,0,0,1,25.721-15.6c14.107,0,29.41,10.533,29.41,30.8,0,20.666-15.3,31.2-29.41,31.2a28.983,28.983,0,0,1-25.522-15.341l-22.132,10.245c10.194,18.524,30.656,27.75,47.654,27.75C-2796.733,3313.067-2766.326,3295.183-2766.326,3259.216Zm-54.035-53.452c23.628,0,54.035-17.884,54.035-53.851,0-36.164-30.407-53.451-54.035-53.451-17.1,0-37.709,9.033-47.854,27.687l22.132,10.564a29.117,29.117,0,0,1,25.721-15.6c14.107,0,29.41,10.533,29.41,30.8,0,20.667-15.3,31.2-29.41,31.2a28.983,28.983,0,0,1-25.522-15.341l-22.132,10.245C-2857.821,3196.539-2837.359,3205.765-2820.361,3205.765Zm267.108,161.372c0-36.164-30.407-53.452-54.06-53.452-17.073,0-37.66,9.033-47.8,27.688l22.132,10.564a29.043,29.043,0,0,1,25.671-15.6c14.107,0,29.41,10.533,29.41,30.8,0,20.667-15.3,31.2-29.41,31.2a28.909,28.909,0,0,1-25.472-15.342l-22.132,10.245c10.194,18.523,30.631,27.75,47.6,27.75C-2583.66,3420.988-2553.253,3403.1-2553.253,3367.136Zm161.356-54.07c-23.653,0-54.035-17.884-54.035-53.851,0-36.164,30.382-53.452,54.035-53.452s54.035,17.288,54.035,53.452C-2337.862,3295.183-2368.244,3313.067-2391.9,3313.067Zm0-84.651c-13.907,0-29.211,10.533-29.211,30.8,0,20.666,15.3,31.2,29.211,31.2,14.107,0,29.385-10.531,29.385-31.2C-2362.512,3238.949-2377.79,3228.416-2391.9,3228.416Zm104.979-22.652c-23.653,0-54.035-17.884-54.035-53.851,0-36.164,30.382-53.451,54.035-53.451s54.035,17.288,54.035,53.451C-2232.883,3187.881-2263.265,3205.765-2286.918,3205.765Zm0-84.651c-13.907,0-29.211,10.533-29.211,30.8,0,20.667,15.3,31.2,29.211,31.2,14.132,0,29.41-10.531,29.41-31.2C-2257.508,3131.646-2272.786,3121.113-2286.918,3121.113Zm-50.944,138.5c0,36.164,30.407,53.452,54.06,53.452,17.073,0,37.709-9.033,47.8-27.687l-22.107-10.564a29.08,29.08,0,0,1-25.7,15.6c-14.107,0-29.41-10.533-29.41-30.8,0-20.666,15.3-31.2,29.41-31.2a28.973,28.973,0,0,1,25.5,15.341l22.157-10.246c-10.194-18.523-30.681-27.749-47.654-27.749C-2307.455,3205.765-2337.862,3223.648-2337.862,3259.615Zm-83.445-107.3c0-20.666,15.278-31.2,29.41-31.2a28.945,28.945,0,0,1,25.5,15.341l22.132-10.245c-10.194-18.524-30.631-27.75-47.629-27.75-23.653,0-54.035,17.884-54.035,53.85,0,36.164,30.382,53.452,54.035,53.452,17.1,0,37.685-9.034,47.829-27.688l-22.132-10.564a29.079,29.079,0,0,1-25.7,15.6C-2406.029,3183.113-2421.307,3172.58-2421.307,3152.312Zm27.84,161.373c23.653,0,54.06,17.288,54.06,53.452,0,35.968-30.407,53.851-54.06,53.851-23.628,0-54.035-17.884-54.035-53.851C-2447.5,3330.973-2417.095,3313.685-2393.467,3313.685Zm0,84.65c14.107,0,29.41-10.532,29.41-31.2,0-20.267-15.3-30.8-29.41-30.8-13.907,0-29.21,10.533-29.21,30.8C-2422.677,3387.8-2407.375,3398.335-2393.467,3398.335Zm-159.013-30.8c0,36.164,30.407,53.452,54.035,53.452,17.1,0,37.71-9.033,47.829-27.688l-22.132-10.563a29.08,29.08,0,0,1-25.7,15.6c-14.107,0-29.41-10.533-29.41-30.8,0-20.666,15.3-31.2,29.41-31.2a29.011,29.011,0,0,1,25.522,15.341l22.132-10.245c-10.194-18.524-30.681-27.75-47.654-27.75C-2522.073,3313.685-2552.48,3331.569-2552.48,3367.536Zm106.549-108.32c0-36.164-30.432-53.452-54.06-53.452-17.1,0-37.685,9.033-47.8,27.688l22.107,10.564a29.079,29.079,0,0,1,25.7-15.6c14.107,0,29.41,10.533,29.41,30.8,0,20.666-15.3,31.2-29.41,31.2a29.011,29.011,0,0,1-25.522-15.341l-22.107,10.245c10.169,18.524,30.656,27.75,47.629,27.75C-2476.363,3313.067-2445.931,3295.183-2445.931,3259.216Zm-54.06-53.452c23.628,0,54.06-17.884,54.06-53.851,0-36.164-30.432-53.451-54.06-53.451-17.1,0-37.685,9.033-47.8,27.687l22.107,10.564a29.08,29.08,0,0,1,25.7-15.6c14.107,0,29.41,10.533,29.41,30.8,0,20.667-15.3,31.2-29.41,31.2a29.011,29.011,0,0,1-25.522-15.341l-22.107,10.245C-2537.451,3196.539-2516.964,3205.765-2499.991,3205.765Zm242.483,161.372c0,20.667-15.278,31.2-29.41,31.2a28.946,28.946,0,0,1-25.5-15.342l-22.132,10.245c10.194,18.523,30.631,27.75,47.629,27.75,23.653,0,54.035-17.884,54.035-53.851,0-36.164-30.382-53.452-54.035-53.452-17.1,0-37.685,9.033-47.829,27.688l22.132,10.564a29.079,29.079,0,0,1,25.7-15.6C-2272.786,3336.336-2257.508,3346.87-2257.508,3367.136Zm-454.783-376.6c-23.628,0-54.035-17.884-54.035-53.85,0-36.164,30.407-53.452,54.035-53.452,23.677,0,54.06,17.289,54.06,53.452C-2658.232,2972.657-2688.614,2990.541-2712.292,2990.541Zm0-84.651c-13.907,0-29.211,10.533-29.211,30.8,0,20.666,15.3,31.2,29.211,31.2,14.107,0,29.41-10.532,29.41-31.2C-2682.881,2916.423-2698.185,2905.89-2712.292,2905.89Zm159.039-76.5c0,35.967-30.407,53.85-54.06,53.85-23.628,0-54.035-17.883-54.035-53.85,0-36.164,30.407-53.452,54.035-53.452C-2583.66,2775.936-2553.253,2793.224-2553.253,2829.388Zm-54.06-30.8c-13.882,0-29.186,10.532-29.186,30.8,0,20.666,15.3,31.2,29.186,31.2,14.107,0,29.41-10.531,29.41-31.2C-2577.9,2809.12-2593.206,2798.587-2607.313,2798.587Zm-26.27,138.5c0-20.667,15.3-31.2,29.41-31.2a28.908,28.908,0,0,1,25.472,15.341l22.157-10.245c-10.194-18.523-30.656-27.75-47.629-27.75-23.653,0-54.06,17.884-54.06,53.851,0,36.164,30.407,53.451,54.06,53.451,17.073,0,37.685-9.033,47.8-27.687l-22.132-10.564a29.043,29.043,0,0,1-25.671,15.6C-2618.279,2967.889-2633.582,2957.356-2633.582,2937.089Zm-108.119-107.3c0-20.667,15.3-31.2,29.41-31.2a28.983,28.983,0,0,1,25.522,15.341l22.132-10.245c-10.194-18.523-30.681-27.749-47.654-27.749-23.628,0-54.035,17.884-54.035,53.851,0,36.164,30.407,53.452,54.035,53.452,17.1,0,37.71-9.033,47.829-27.687l-22.107-10.565a29.116,29.116,0,0,1-25.721,15.6C-2726.4,2860.586-2741.7,2850.054-2741.7,2829.786Zm27.865,268.676c-23.628,0-54.06-17.884-54.06-53.851,0-36.164,30.432-53.452,54.06-53.452,23.653,0,54.06,17.288,54.06,53.452C-2659.777,3080.578-2690.184,3098.462-2713.837,3098.462Zm0-84.652c-13.907,0-29.211,10.533-29.211,30.8,0,20.666,15.3,31.2,29.211,31.2,14.107,0,29.41-10.532,29.41-31.2C-2684.427,3024.344-2699.73,3013.81-2713.837,3013.81Zm-159.038,31.2c0,36.164,30.407,53.452,54.06,53.452,17.073,0,37.709-9.034,47.8-27.688l-22.107-10.564a29.079,29.079,0,0,1-25.7,15.6c-14.107,0-29.41-10.533-29.41-30.8,0-20.667,15.3-31.2,29.41-31.2a28.973,28.973,0,0,1,25.5,15.341l22.157-10.245c-10.194-18.524-30.681-27.75-47.654-27.75C-2842.468,2991.159-2872.875,3009.042-2872.875,3045.01Zm106.549-108.32c0-36.164-30.407-53.452-54.035-53.452-17.1,0-37.709,9.034-47.854,27.688l22.132,10.564a29.117,29.117,0,0,1,25.721-15.6c14.107,0,29.41,10.533,29.41,30.8,0,20.666-15.3,31.2-29.41,31.2a28.983,28.983,0,0,1-25.522-15.341l-22.132,10.245c10.194,18.523,30.656,27.749,47.654,27.749C-2796.733,2990.541-2766.326,2972.657-2766.326,2936.69Zm-54.035-53.452c23.628,0,54.035-17.883,54.035-53.85,0-36.164-30.407-53.452-54.035-53.452-17.1,0-37.709,9.033-47.854,27.688l22.132,10.564a29.116,29.116,0,0,1,25.721-15.6c14.107,0,29.41,10.532,29.41,30.8,0,20.666-15.3,31.2-29.41,31.2a28.983,28.983,0,0,1-25.522-15.341l-22.132,10.246C-2857.821,2874.012-2837.359,2883.238-2820.361,2883.238Zm213.048,215.224c23.653,0,54.06-17.884,54.06-53.851,0-36.164-30.407-53.452-54.06-53.452-17.073,0-37.66,9.033-47.8,27.687l22.132,10.564a29.043,29.043,0,0,1,25.671-15.6c14.107,0,29.41,10.533,29.41,30.8,0,20.666-15.3,31.2-29.41,31.2a28.909,28.909,0,0,1-25.472-15.342l-22.132,10.245C-2644.723,3089.236-2624.286,3098.462-2607.313,3098.462Zm215.416-215.224c23.653,0,54.035,17.289,54.035,53.452,0,35.967-30.382,53.85-54.035,53.85s-54.035-17.884-54.035-53.85C-2445.931,2900.527-2415.549,2883.238-2391.9,2883.238Zm0,84.65c14.107,0,29.385-10.532,29.385-31.2,0-20.268-15.278-30.8-29.385-30.8-13.907,0-29.211,10.533-29.211,30.8C-2421.107,2957.356-2405.8,2967.888-2391.9,2967.888Zm159.013-138.5c0,35.967-30.382,53.85-54.035,53.85s-54.035-17.883-54.035-53.85c0-36.164,30.382-53.452,54.035-53.452S-2232.883,2793.224-2232.883,2829.388Zm-54.035-30.8c-13.907,0-29.211,10.532-29.211,30.8,0,20.666,15.3,31.2,29.211,31.2,14.132,0,29.41-10.531,29.41-31.2C-2257.508,2809.12-2272.786,2798.587-2286.918,2798.587Zm-26.295,138.5c0-20.667,15.3-31.2,29.41-31.2a28.973,28.973,0,0,1,25.5,15.341l22.157-10.245c-10.194-18.523-30.681-27.75-47.654-27.75-23.653,0-54.06,17.884-54.06,53.851,0,36.164,30.407,53.451,54.06,53.451,17.073,0,37.709-9.033,47.8-27.687l-22.107-10.564a29.08,29.08,0,0,1-25.7,15.6C-2297.909,2967.889-2313.213,2957.356-2313.213,2937.089Zm-108.094-107.3c0-20.667,15.278-31.2,29.41-31.2a28.945,28.945,0,0,1,25.5,15.341l22.132-10.245c-10.194-18.523-30.631-27.749-47.629-27.749-23.653,0-54.035,17.884-54.035,53.851,0,36.164,30.382,53.452,54.035,53.452,17.1,0,37.685-9.033,47.829-27.687l-22.132-10.565a29.078,29.078,0,0,1-25.7,15.6C-2406.029,2860.586-2421.307,2850.054-2421.307,2829.786Zm27.84,161.373c23.653,0,54.06,17.288,54.06,53.452,0,35.968-30.407,53.851-54.06,53.851-23.628,0-54.035-17.884-54.035-53.851C-2447.5,3008.447-2417.095,2991.159-2393.467,2991.159Zm0,84.65c14.107,0,29.41-10.532,29.41-31.2,0-20.267-15.3-30.8-29.41-30.8-13.907,0-29.21,10.533-29.21,30.8C-2422.677,3065.277-2407.375,3075.809-2393.467,3075.809Zm-159.013-30.8c0,36.164,30.407,53.452,54.035,53.452,17.1,0,37.71-9.034,47.829-27.688l-22.132-10.564a29.079,29.079,0,0,1-25.7,15.6c-14.107,0-29.41-10.533-29.41-30.8,0-20.667,15.3-31.2,29.41-31.2a29.011,29.011,0,0,1,25.522,15.341l22.132-10.245c-10.194-18.524-30.681-27.75-47.654-27.75C-2522.073,2991.159-2552.48,3009.042-2552.48,3045.01Zm52.49-161.772c-17.1,0-37.685,9.034-47.8,27.688l22.107,10.564a29.08,29.08,0,0,1,25.7-15.6c14.107,0,29.41,10.533,29.41,30.8,0,20.666-15.3,31.2-29.41,31.2a29.011,29.011,0,0,1-25.522-15.341l-22.107,10.245c10.169,18.523,30.656,27.749,47.629,27.749,23.628,0,54.06-17.884,54.06-53.85C-2445.931,2900.527-2476.363,2883.238-2499.991,2883.238Zm29.41-53.85c0,20.666-15.3,31.2-29.41,31.2a29.011,29.011,0,0,1-25.522-15.341l-22.107,10.246c10.169,18.523,30.656,27.749,47.629,27.749,23.628,0,54.06-17.883,54.06-53.85,0-36.164-30.432-53.452-54.06-53.452-17.1,0-37.685,9.033-47.8,27.688l22.107,10.564a29.079,29.079,0,0,1,25.7-15.6C-2485.884,2798.587-2470.581,2809.12-2470.581,2829.388Zm183.663,269.074c23.653,0,54.035-17.884,54.035-53.851,0-36.164-30.382-53.452-54.035-53.452-17.1,0-37.685,9.033-47.829,27.687l22.132,10.564a29.08,29.08,0,0,1,25.7-15.6c14.132,0,29.41,10.533,29.41,30.8,0,20.666-15.278,31.2-29.41,31.2a28.947,28.947,0,0,1-25.5-15.342l-22.132,10.245C-2324.354,3089.236-2303.916,3098.462-2286.918,3098.462Zm-425.374-430.447c-23.628,0-54.035-17.884-54.035-53.851,0-36.163,30.407-53.452,54.035-53.452,23.677,0,54.06,17.289,54.06,53.452C-2658.232,2650.131-2688.614,2668.015-2712.292,2668.015Zm0-84.65c-13.907,0-29.211,10.532-29.211,30.8,0,20.667,15.3,31.2,29.211,31.2,14.107,0,29.41-10.531,29.41-31.2C-2682.881,2593.9-2698.185,2583.365-2712.292,2583.365Zm159.039-76.5c0,35.968-30.407,53.85-54.06,53.85-23.628,0-54.035-17.883-54.035-53.85,0-36.164,30.407-53.451,54.035-53.451C-2583.66,2453.41-2553.253,2470.7-2553.253,2506.862Zm-54.06-30.8c-13.882,0-29.186,10.532-29.186,30.8,0,20.667,15.3,31.2,29.186,31.2,14.107,0,29.41-10.531,29.41-31.2C-2577.9,2486.594-2593.206,2476.062-2607.313,2476.062Zm-26.27,138.5c0-20.666,15.3-31.2,29.41-31.2a28.908,28.908,0,0,1,25.472,15.341l22.157-10.246c-10.194-18.523-30.656-27.75-47.629-27.75-23.653,0-54.06,17.884-54.06,53.851,0,36.164,30.407,53.452,54.06,53.452,17.073,0,37.685-9.033,47.8-27.687l-22.132-10.564a29.043,29.043,0,0,1-25.671,15.6C-2618.279,2645.363-2633.582,2634.831-2633.582,2614.563Zm-108.119-107.3c0-20.666,15.3-31.2,29.41-31.2a28.983,28.983,0,0,1,25.522,15.341l22.132-10.246c-10.194-18.523-30.681-27.748-47.654-27.748-23.628,0-54.035,17.883-54.035,53.85,0,36.164,30.407,53.452,54.035,53.452,17.1,0,37.71-9.033,47.829-27.687l-22.107-10.564a29.117,29.117,0,0,1-25.721,15.6C-2726.4,2538.061-2741.7,2527.528-2741.7,2507.26Zm27.865,268.676c-23.628,0-54.06-17.884-54.06-53.851,0-36.164,30.432-53.452,54.06-53.452,23.653,0,54.06,17.288,54.06,53.452C-2659.777,2758.052-2690.184,2775.936-2713.837,2775.936Zm0-84.651c-13.907,0-29.211,10.533-29.211,30.8,0,20.667,15.3,31.2,29.211,31.2,14.107,0,29.41-10.531,29.41-31.2C-2684.427,2701.818-2699.73,2691.285-2713.837,2691.285Zm-159.038,31.2c0,36.163,30.407,53.452,54.06,53.452,17.073,0,37.709-9.034,47.8-27.688l-22.107-10.564a29.079,29.079,0,0,1-25.7,15.6c-14.107,0-29.41-10.532-29.41-30.8,0-20.666,15.3-31.2,29.41-31.2a28.973,28.973,0,0,1,25.5,15.341l22.157-10.245c-10.194-18.524-30.681-27.749-47.654-27.749C-2842.468,2668.633-2872.875,2686.517-2872.875,2722.484Zm106.549-108.32c0-36.163-30.407-53.452-54.035-53.452-17.1,0-37.709,9.034-47.854,27.688l22.132,10.563a29.116,29.116,0,0,1,25.721-15.6c14.107,0,29.41,10.532,29.41,30.8,0,20.667-15.3,31.2-29.41,31.2a28.983,28.983,0,0,1-25.522-15.341l-22.132,10.245c10.194,18.524,30.656,27.75,47.654,27.75C-2796.733,2668.015-2766.326,2650.131-2766.326,2614.164Zm-54.035-53.452c23.628,0,54.035-17.883,54.035-53.85,0-36.164-30.407-53.451-54.035-53.451-17.1,0-37.709,9.033-47.854,27.687l22.132,10.565a29.115,29.115,0,0,1,25.721-15.6c14.107,0,29.41,10.532,29.41,30.8,0,20.667-15.3,31.2-29.41,31.2a28.983,28.983,0,0,1-25.522-15.341l-22.132,10.245C-2857.821,2551.487-2837.359,2560.712-2820.361,2560.712Zm213.048,215.224c23.653,0,54.06-17.884,54.06-53.851,0-36.164-30.407-53.452-54.06-53.452-17.073,0-37.66,9.033-47.8,27.687l22.132,10.564a29.043,29.043,0,0,1,25.671-15.6c14.107,0,29.41,10.533,29.41,30.8,0,20.667-15.3,31.2-29.41,31.2a28.909,28.909,0,0,1-25.472-15.342l-22.132,10.246C-2644.723,2766.71-2624.286,2775.936-2607.313,2775.936Zm215.416-107.921c-23.653,0-54.035-17.884-54.035-53.851,0-36.163,30.382-53.452,54.035-53.452s54.035,17.289,54.035,53.452C-2337.862,2650.131-2368.244,2668.015-2391.9,2668.015Zm0-84.65c-13.907,0-29.211,10.532-29.211,30.8,0,20.667,15.3,31.2,29.211,31.2,14.107,0,29.385-10.531,29.385-31.2C-2362.512,2593.9-2377.79,2583.365-2391.9,2583.365Zm159.013-76.5c0,35.968-30.382,53.85-54.035,53.85s-54.035-17.883-54.035-53.85c0-36.164,30.382-53.451,54.035-53.451S-2232.883,2470.7-2232.883,2506.862Zm-54.035-30.8c-13.907,0-29.211,10.532-29.211,30.8,0,20.667,15.3,31.2,29.211,31.2,14.132,0,29.41-10.531,29.41-31.2C-2257.508,2486.594-2272.786,2476.062-2286.918,2476.062Zm-26.295,138.5c0-20.666,15.3-31.2,29.41-31.2a28.973,28.973,0,0,1,25.5,15.341l22.157-10.246c-10.194-18.523-30.681-27.75-47.654-27.75-23.653,0-54.06,17.884-54.06,53.851,0,36.164,30.407,53.452,54.06,53.452,17.073,0,37.709-9.033,47.8-27.687l-22.107-10.564a29.08,29.08,0,0,1-25.7,15.6C-2297.909,2645.363-2313.213,2634.831-2313.213,2614.563Zm-108.094-107.3c0-20.666,15.278-31.2,29.41-31.2a28.945,28.945,0,0,1,25.5,15.341l22.132-10.246c-10.194-18.523-30.631-27.748-47.629-27.748-23.653,0-54.035,17.883-54.035,53.85,0,36.164,30.382,53.452,54.035,53.452,17.1,0,37.685-9.033,47.829-27.687l-22.132-10.564a29.079,29.079,0,0,1-25.7,15.6C-2406.029,2538.061-2421.307,2527.528-2421.307,2507.26Zm27.84,161.373c23.653,0,54.06,17.288,54.06,53.452,0,35.968-30.407,53.851-54.06,53.851-23.628,0-54.035-17.884-54.035-53.851C-2447.5,2685.921-2417.095,2668.633-2393.467,2668.633Zm0,84.65c14.107,0,29.41-10.531,29.41-31.2,0-20.267-15.3-30.8-29.41-30.8-13.907,0-29.21,10.533-29.21,30.8C-2422.677,2742.751-2407.375,2753.283-2393.467,2753.283Zm-159.013-30.8c0,36.163,30.407,53.452,54.035,53.452,17.1,0,37.71-9.034,47.829-27.688l-22.132-10.564a29.079,29.079,0,0,1-25.7,15.6c-14.107,0-29.41-10.532-29.41-30.8,0-20.666,15.3-31.2,29.41-31.2a29.011,29.011,0,0,1,25.522,15.341l22.132-10.245c-10.194-18.524-30.681-27.749-47.654-27.749C-2522.073,2668.633-2552.48,2686.517-2552.48,2722.484Zm106.549-108.32c0-36.163-30.432-53.452-54.06-53.452-17.1,0-37.685,9.034-47.8,27.688l22.107,10.563a29.079,29.079,0,0,1,25.7-15.6c14.107,0,29.41,10.532,29.41,30.8,0,20.667-15.3,31.2-29.41,31.2a29.011,29.011,0,0,1-25.522-15.341l-22.107,10.245c10.169,18.524,30.656,27.75,47.629,27.75C-2476.363,2668.015-2445.931,2650.131-2445.931,2614.164Zm-54.06-53.452c23.628,0,54.06-17.883,54.06-53.85,0-36.164-30.432-53.451-54.06-53.451-17.1,0-37.685,9.033-47.8,27.687l22.107,10.565a29.078,29.078,0,0,1,25.7-15.6c14.107,0,29.41,10.532,29.41,30.8,0,20.667-15.3,31.2-29.41,31.2a29.011,29.011,0,0,1-25.522-15.341l-22.107,10.245C-2537.451,2551.487-2516.964,2560.712-2499.991,2560.712Zm213.073,215.224c23.653,0,54.035-17.884,54.035-53.851,0-36.164-30.382-53.452-54.035-53.452-17.1,0-37.685,9.033-47.829,27.687l22.132,10.564a29.079,29.079,0,0,1,25.7-15.6c14.132,0,29.41,10.533,29.41,30.8,0,20.667-15.278,31.2-29.41,31.2a28.946,28.946,0,0,1-25.5-15.342l-22.132,10.246C-2324.354,2766.71-2303.916,2775.936-2286.918,2775.936Zm-425.374-537.749c23.677,0,54.06,17.289,54.06,53.451,0,35.968-30.382,53.851-54.06,53.851-23.628,0-54.035-17.884-54.035-53.851C-2766.326,2255.475-2735.919,2238.187-2712.292,2238.187Zm0,84.65c14.107,0,29.41-10.532,29.41-31.2,0-20.267-15.3-30.8-29.41-30.8-13.907,0-29.211,10.533-29.211,30.8C-2741.5,2312.3-2726.2,2322.836-2712.292,2322.836Zm104.979-84.65c-23.628,0-54.035-17.883-54.035-53.851,0-36.164,30.407-53.452,54.035-53.452,23.653,0,54.06,17.288,54.06,53.452C-2553.253,2220.3-2583.66,2238.187-2607.313,2238.187Zm0-84.651c-13.882,0-29.186,10.533-29.186,30.8,0,20.666,15.3,31.2,29.186,31.2,14.107,0,29.41-10.531,29.41-31.2C-2577.9,2164.068-2593.206,2153.536-2607.313,2153.536Zm-26.27,138.5c0-20.666,15.3-31.2,29.41-31.2a28.908,28.908,0,0,1,25.472,15.341l22.157-10.245c-10.194-18.523-30.656-27.75-47.629-27.75-23.653,0-54.06,17.884-54.06,53.851,0,36.164,30.407,53.452,54.06,53.452,17.073,0,37.685-9.033,47.8-27.687l-22.132-10.564a29.043,29.043,0,0,1-25.671,15.6C-2618.279,2322.838-2633.582,2312.3-2633.582,2292.038Zm-108.119-107.3c0-20.667,15.3-31.2,29.41-31.2a28.983,28.983,0,0,1,25.522,15.341l22.132-10.245c-10.194-18.523-30.681-27.749-47.654-27.749-23.628,0-54.035,17.883-54.035,53.851,0,36.164,30.407,53.452,54.035,53.452,17.1,0,37.71-9.033,47.829-27.687l-22.107-10.564a29.116,29.116,0,0,1-25.721,15.6C-2726.4,2215.535-2741.7,2205-2741.7,2184.735Zm27.865,268.676c-23.628,0-54.06-17.884-54.06-53.851,0-36.164,30.432-53.452,54.06-53.452,23.653,0,54.06,17.288,54.06,53.452C-2659.777,2435.527-2690.184,2453.41-2713.837,2453.41Zm0-84.652c-13.907,0-29.211,10.533-29.211,30.8,0,20.666,15.3,31.2,29.211,31.2,14.107,0,29.41-10.531,29.41-31.2C-2684.427,2379.292-2699.73,2368.759-2713.837,2368.759Zm-159.038,31.2c0,36.163,30.407,53.452,54.06,53.452,17.073,0,37.709-9.034,47.8-27.688l-22.107-10.564a29.079,29.079,0,0,1-25.7,15.6c-14.107,0-29.41-10.533-29.41-30.8,0-20.667,15.3-31.2,29.41-31.2a28.974,28.974,0,0,1,25.5,15.341l22.157-10.245c-10.194-18.524-30.681-27.75-47.654-27.75C-2842.468,2346.107-2872.875,2363.991-2872.875,2399.959Zm52.514-161.772c-17.1,0-37.709,9.034-47.854,27.688l22.132,10.564a29.117,29.117,0,0,1,25.721-15.6c14.107,0,29.41,10.533,29.41,30.8,0,20.667-15.3,31.2-29.41,31.2a28.983,28.983,0,0,1-25.522-15.341l-22.132,10.245c10.194,18.524,30.656,27.75,47.654,27.75,23.628,0,54.035-17.884,54.035-53.851C-2766.326,2255.475-2796.733,2238.187-2820.361,2238.187Zm54.035-53.851c0-36.164-30.407-53.452-54.035-53.452-17.1,0-37.709,9.033-47.854,27.688l22.132,10.564a29.116,29.116,0,0,1,25.721-15.6c14.107,0,29.41,10.533,29.41,30.8,0,20.666-15.3,31.2-29.41,31.2a28.983,28.983,0,0,1-25.522-15.341l-22.132,10.246c10.194,18.523,30.656,27.749,47.654,27.749C-2796.733,2238.187-2766.326,2220.3-2766.326,2184.336Zm159.013,269.074c23.653,0,54.06-17.884,54.06-53.851,0-36.164-30.407-53.452-54.06-53.452-17.073,0-37.66,9.033-47.8,27.687l22.132,10.564a29.043,29.043,0,0,1,25.671-15.6c14.107,0,29.41,10.533,29.41,30.8,0,20.666-15.3,31.2-29.41,31.2a28.908,28.908,0,0,1-25.472-15.341l-22.132,10.245C-2644.723,2444.184-2624.286,2453.41-2607.313,2453.41Zm215.416-215.224c23.653,0,54.035,17.289,54.035,53.451,0,35.968-30.382,53.851-54.035,53.851s-54.035-17.884-54.035-53.851C-2445.931,2255.475-2415.549,2238.187-2391.9,2238.187Zm0,84.65c14.107,0,29.385-10.532,29.385-31.2,0-20.267-15.278-30.8-29.385-30.8-13.907,0-29.211,10.533-29.211,30.8C-2421.107,2312.3-2405.8,2322.836-2391.9,2322.836Zm104.979-84.65c-23.653,0-54.035-17.883-54.035-53.851,0-36.164,30.382-53.452,54.035-53.452s54.035,17.288,54.035,53.452C-2232.883,2220.3-2263.265,2238.187-2286.918,2238.187Zm0-84.651c-13.907,0-29.211,10.533-29.211,30.8,0,20.666,15.3,31.2,29.211,31.2,14.132,0,29.41-10.531,29.41-31.2C-2257.508,2164.068-2272.786,2153.536-2286.918,2153.536Zm-26.295,138.5c0-20.666,15.3-31.2,29.41-31.2a28.973,28.973,0,0,1,25.5,15.341l22.157-10.245c-10.194-18.523-30.681-27.75-47.654-27.75-23.653,0-54.06,17.884-54.06,53.851,0,36.164,30.407,53.452,54.06,53.452,17.073,0,37.709-9.033,47.8-27.687l-22.107-10.564a29.08,29.08,0,0,1-25.7,15.6C-2297.909,2322.838-2313.213,2312.3-2313.213,2292.038Zm-108.094-107.3c0-20.667,15.278-31.2,29.41-31.2a28.945,28.945,0,0,1,25.5,15.341l22.132-10.245c-10.194-18.523-30.631-27.749-47.629-27.749-23.653,0-54.035,17.883-54.035,53.851,0,36.164,30.382,53.452,54.035,53.452,17.1,0,37.685-9.033,47.829-27.687l-22.132-10.564a29.078,29.078,0,0,1-25.7,15.6C-2406.029,2215.535-2421.307,2205-2421.307,2184.735Zm27.84,268.676c-23.628,0-54.035-17.884-54.035-53.851,0-36.164,30.407-53.452,54.035-53.452,23.653,0,54.06,17.288,54.06,53.452C-2339.407,2435.527-2369.814,2453.41-2393.467,2453.41Zm0-84.652c-13.907,0-29.21,10.533-29.21,30.8,0,20.666,15.3,31.2,29.21,31.2,14.107,0,29.41-10.531,29.41-31.2C-2364.057,2379.292-2379.36,2368.759-2393.467,2368.759Zm-159.013,31.2c0,36.163,30.407,53.452,54.035,53.452,17.1,0,37.71-9.034,47.829-27.688l-22.132-10.564a29.079,29.079,0,0,1-25.7,15.6c-14.107,0-29.41-10.533-29.41-30.8,0-20.667,15.3-31.2,29.41-31.2a29.011,29.011,0,0,1,25.522,15.341l22.132-10.245c-10.194-18.524-30.681-27.75-47.654-27.75C-2522.073,2346.107-2552.48,2363.991-2552.48,2399.959Zm52.49-161.772c-17.1,0-37.685,9.034-47.8,27.688l22.107,10.564a29.08,29.08,0,0,1,25.7-15.6c14.107,0,29.41,10.533,29.41,30.8,0,20.667-15.3,31.2-29.41,31.2a29.011,29.011,0,0,1-25.522-15.341l-22.107,10.245c10.169,18.524,30.656,27.75,47.629,27.75,23.628,0,54.06-17.884,54.06-53.851C-2445.931,2255.475-2476.363,2238.187-2499.991,2238.187Zm54.06-53.851c0-36.164-30.432-53.452-54.06-53.452-17.1,0-37.685,9.033-47.8,27.688l22.107,10.564a29.079,29.079,0,0,1,25.7-15.6c14.107,0,29.41,10.533,29.41,30.8,0,20.666-15.3,31.2-29.41,31.2a29.011,29.011,0,0,1-25.522-15.341l-22.107,10.246c10.169,18.523,30.656,27.749,47.629,27.749C-2476.363,2238.187-2445.931,2220.3-2445.931,2184.336Zm213.048,215.223c0-36.164-30.382-53.452-54.035-53.452-17.1,0-37.685,9.033-47.829,27.687l22.132,10.564a29.08,29.08,0,0,1,25.7-15.6c14.132,0,29.41,10.533,29.41,30.8,0,20.666-15.278,31.2-29.41,31.2a28.946,28.946,0,0,1-25.5-15.341l-22.132,10.245c10.194,18.523,30.631,27.75,47.629,27.75C-2263.265,2453.41-2232.883,2435.527-2232.883,2399.559Zm160.608,913.508c-23.653,0-54.06-17.884-54.06-53.851,0-36.164,30.407-53.452,54.06-53.452,23.628,0,54.035,17.288,54.035,53.452C-2018.24,3295.183-2048.647,3313.067-2072.275,3313.067Zm0-84.651c-13.907,0-29.21,10.533-29.21,30.8,0,20.666,15.3,31.2,29.21,31.2,14.082,0,29.41-10.531,29.41-31.2C-2042.865,3238.949-2058.193,3228.416-2072.275,3228.416Zm159.039-76.5c0,35.968-30.432,53.851-54.06,53.851-23.653,0-54.06-17.884-54.06-53.851,0-36.164,30.407-53.451,54.06-53.451C-1943.668,3098.462-1913.236,3115.75-1913.236,3151.913Zm-54.06-30.8c-13.907,0-29.211,10.533-29.211,30.8,0,20.667,15.3,31.2,29.211,31.2,14.107,0,29.41-10.531,29.41-31.2C-1937.886,3131.646-1953.189,3121.113-1967.3,3121.113Zm-26.295,138.5c0-20.666,15.278-31.2,29.41-31.2a28.973,28.973,0,0,1,25.5,15.341l22.132-10.246c-10.194-18.523-30.656-27.749-47.629-27.749-23.653,0-54.06,17.883-54.06,53.851,0,36.164,30.407,53.452,54.06,53.452,17.1,0,37.685-9.033,47.8-27.687l-22.132-10.564a29.043,29.043,0,0,1-25.671,15.6C-1978.312,3290.415-1993.591,3279.882-1993.591,3259.615Zm-108.119-107.3c0-20.666,15.328-31.2,29.41-31.2a28.983,28.983,0,0,1,25.522,15.341l22.132-10.245c-10.194-18.524-30.656-27.75-47.654-27.75-23.628,0-54.035,17.884-54.035,53.85,0,36.164,30.407,53.452,54.035,53.452,17.1,0,37.71-9.034,47.829-27.688l-22.107-10.564a29.116,29.116,0,0,1-25.721,15.6C-2086.382,3183.113-2101.71,3172.58-2101.71,3152.312Zm27.865,161.373c23.653,0,54.06,17.288,54.06,53.452,0,35.968-30.407,53.851-54.06,53.851-23.628,0-54.035-17.884-54.035-53.851C-2127.88,3330.973-2097.473,3313.685-2073.845,3313.685Zm0,84.65c14.107,0,29.41-10.532,29.41-31.2,0-20.267-15.3-30.8-29.41-30.8-13.907,0-29.211,10.533-29.211,30.8C-2103.056,3387.8-2087.752,3398.335-2073.845,3398.335Zm-159.038-30.8c0,36.164,30.432,53.452,54.06,53.452,17.1,0,37.685-9.033,47.8-27.688l-22.107-10.563a29.051,29.051,0,0,1-25.7,15.6c-14.107,0-29.41-10.533-29.41-30.8,0-20.666,15.3-31.2,29.41-31.2a28.946,28.946,0,0,1,25.5,15.341l22.132-10.245c-10.169-18.524-30.656-27.75-47.629-27.75C-2202.451,3313.685-2232.883,3331.569-2232.883,3367.536Zm106.549-108.32c0-36.164-30.407-53.452-54.035-53.452-17.1,0-37.709,9.033-47.829,27.688l22.132,10.564a29.079,29.079,0,0,1,25.7-15.6c14.107,0,29.385,10.533,29.385,30.8,0,20.666-15.278,31.2-29.385,31.2a29.01,29.01,0,0,1-25.522-15.341l-22.132,10.245c10.194,18.524,30.681,27.75,47.654,27.75C-2156.741,3313.067-2126.334,3295.183-2126.334,3259.216Zm-54.035-53.452c23.628,0,54.035-17.884,54.035-53.851,0-36.164-30.407-53.451-54.035-53.451-17.1,0-37.709,9.033-47.829,27.687l22.132,10.564a29.08,29.08,0,0,1,25.7-15.6c14.107,0,29.385,10.533,29.385,30.8,0,20.667-15.278,31.2-29.385,31.2a29.011,29.011,0,0,1-25.522-15.341l-22.132,10.245C-2217.829,3196.539-2197.342,3205.765-2180.369,3205.765Zm267.133,161.372c0-36.164-30.432-53.452-54.06-53.452-17.1,0-37.71,9.033-47.8,27.688l22.107,10.564a29.052,29.052,0,0,1,25.7-15.6c14.107,0,29.41,10.533,29.41,30.8,0,20.667-15.3,31.2-29.41,31.2a28.983,28.983,0,0,1-25.522-15.342l-22.107,10.245c10.169,18.523,30.631,27.75,47.629,27.75C-1943.668,3420.988-1913.236,3403.1-1913.236,3367.136Zm161.331-54.07c-23.653,0-54.035-17.884-54.035-53.851,0-36.164,30.382-53.452,54.035-53.452s54.06,17.288,54.06,53.452C-1697.845,3295.183-1728.252,3313.067-1751.905,3313.067Zm0-84.651c-13.907,0-29.211,10.533-29.211,30.8,0,20.666,15.3,31.2,29.211,31.2,14.132,0,29.41-10.531,29.41-31.2C-1722.5,3238.949-1737.773,3228.416-1751.905,3228.416Zm104.979-22.652c-23.628,0-54.06-17.884-54.06-53.851,0-36.164,30.432-53.451,54.06-53.451,23.653,0,54.06,17.288,54.06,53.451C-1592.867,3187.881-1623.274,3205.765-1646.926,3205.765Zm0-84.651c-13.907,0-29.211,10.533-29.211,30.8,0,20.667,15.3,31.2,29.211,31.2,14.107,0,29.41-10.531,29.41-31.2C-1617.516,3131.646-1632.82,3121.113-1646.926,3121.113Zm-50.919,138.5c0,36.164,30.407,53.452,54.035,53.452,17.1,0,37.685-9.033,47.8-27.687l-22.107-10.564a29.052,29.052,0,0,1-25.7,15.6c-14.107,0-29.41-10.533-29.41-30.8,0-20.666,15.3-31.2,29.41-31.2a28.917,28.917,0,0,1,25.5,15.341l22.132-10.246c-10.169-18.523-30.631-27.749-47.629-27.749C-1667.438,3205.765-1697.845,3223.648-1697.845,3259.615Zm-83.47-107.3c0-20.666,15.3-31.2,29.41-31.2a28.973,28.973,0,0,1,25.5,15.341l22.157-10.245c-10.194-18.524-30.681-27.75-47.654-27.75-23.653,0-54.035,17.884-54.035,53.85,0,36.164,30.382,53.452,54.035,53.452,17.073,0,37.709-9.034,47.829-27.688l-22.132-10.564a29.079,29.079,0,0,1-25.7,15.6C-1766.012,3183.113-1781.315,3172.58-1781.315,3152.312Zm27.865,161.373c23.628,0,54.035,17.288,54.035,53.452,0,35.968-30.407,53.851-54.035,53.851-23.653,0-54.06-17.884-54.06-53.851C-1807.51,3330.973-1777.1,3313.685-1753.45,3313.685Zm0,84.65c14.107,0,29.41-10.532,29.41-31.2,0-20.267-15.3-30.8-29.41-30.8-13.907,0-29.21,10.533-29.21,30.8C-1782.661,3387.8-1767.358,3398.335-1753.45,3398.335Zm-159.038-30.8c0,36.164,30.407,53.452,54.035,53.452,17.1,0,37.71-9.033,47.854-27.688l-22.132-10.563a29.117,29.117,0,0,1-25.721,15.6c-14.107,0-29.41-10.533-29.41-30.8,0-20.666,15.3-31.2,29.41-31.2a28.983,28.983,0,0,1,25.522,15.341l22.132-10.245c-10.194-18.524-30.656-27.75-47.654-27.75C-1882.082,3313.685-1912.489,3331.569-1912.489,3367.536Zm106.549-108.32c0-36.164-30.407-53.452-54.06-53.452-17.073,0-37.71,9.033-47.8,27.688l22.107,10.564a29.079,29.079,0,0,1,25.7-15.6c14.107,0,29.41,10.533,29.41,30.8,0,20.666-15.3,31.2-29.41,31.2a28.973,28.973,0,0,1-25.5-15.341l-22.157,10.245c10.194,18.524,30.681,27.75,47.654,27.75C-1836.347,3313.067-1805.94,3295.183-1805.94,3259.216Zm-54.06-53.452c23.653,0,54.06-17.884,54.06-53.851,0-36.164-30.407-53.451-54.06-53.451-17.073,0-37.71,9.033-47.8,27.687l22.107,10.564a29.08,29.08,0,0,1,25.7-15.6c14.107,0,29.41,10.533,29.41,30.8,0,20.667-15.3,31.2-29.41,31.2a28.974,28.974,0,0,1-25.5-15.341l-22.157,10.245C-1897.46,3196.539-1876.972,3205.765-1860,3205.765Zm242.483,161.372c0,20.667-15.3,31.2-29.41,31.2a28.974,28.974,0,0,1-25.5-15.342l-22.132,10.245c10.194,18.523,30.656,27.75,47.629,27.75,23.653,0,54.06-17.884,54.06-53.851,0-36.164-30.407-53.452-54.06-53.452-17.1,0-37.685,9.033-47.8,27.688l22.132,10.564a29.042,29.042,0,0,1,25.671-15.6C-1632.82,3336.336-1617.516,3346.87-1617.516,3367.136Zm-454.759-376.6c-23.653,0-54.06-17.884-54.06-53.85,0-36.164,30.407-53.452,54.06-53.452,23.628,0,54.035,17.289,54.035,53.452C-2018.24,2972.657-2048.647,2990.541-2072.275,2990.541Zm0-84.651c-13.907,0-29.21,10.533-29.21,30.8,0,20.666,15.3,31.2,29.21,31.2,14.082,0,29.41-10.532,29.41-31.2C-2042.865,2916.423-2058.193,2905.89-2072.275,2905.89Zm159.039-76.5c0,35.967-30.432,53.85-54.06,53.85-23.653,0-54.06-17.883-54.06-53.85,0-36.164,30.407-53.452,54.06-53.452C-1943.668,2775.936-1913.236,2793.224-1913.236,2829.388Zm-54.06-30.8c-13.907,0-29.211,10.532-29.211,30.8,0,20.666,15.3,31.2,29.211,31.2,14.107,0,29.41-10.531,29.41-31.2C-1937.886,2809.12-1953.189,2798.587-1967.3,2798.587Zm-26.295,138.5c0-20.667,15.278-31.2,29.41-31.2a28.973,28.973,0,0,1,25.5,15.341l22.132-10.245c-10.194-18.523-30.656-27.75-47.629-27.75-23.653,0-54.06,17.884-54.06,53.851,0,36.164,30.407,53.451,54.06,53.451,17.1,0,37.685-9.033,47.8-27.687l-22.132-10.564a29.043,29.043,0,0,1-25.671,15.6C-1978.312,2967.889-1993.591,2957.356-1993.591,2937.089Zm-108.119-107.3c0-20.667,15.328-31.2,29.41-31.2a28.982,28.982,0,0,1,25.522,15.341l22.132-10.245c-10.194-18.523-30.656-27.749-47.654-27.749-23.628,0-54.035,17.884-54.035,53.851,0,36.164,30.407,53.452,54.035,53.452,17.1,0,37.71-9.033,47.829-27.687l-22.107-10.565a29.116,29.116,0,0,1-25.721,15.6C-2086.382,2860.586-2101.71,2850.054-2101.71,2829.786Zm27.865,268.676c-23.628,0-54.035-17.884-54.035-53.851,0-36.164,30.407-53.452,54.035-53.452,23.653,0,54.06,17.288,54.06,53.452C-2019.785,3080.578-2050.192,3098.462-2073.845,3098.462Zm0-84.652c-13.907,0-29.211,10.533-29.211,30.8,0,20.666,15.3,31.2,29.211,31.2,14.107,0,29.41-10.532,29.41-31.2C-2044.435,3024.344-2059.738,3013.81-2073.845,3013.81Zm-134.389,31.2c0-20.667,15.3-31.2,29.41-31.2a28.946,28.946,0,0,1,25.5,15.341l22.132-10.245c-10.169-18.524-30.656-27.75-47.629-27.75-23.628,0-54.06,17.884-54.06,53.851,0,36.164,30.432,53.452,54.06,53.452,17.1,0,37.685-9.034,47.8-27.688l-22.107-10.564a29.051,29.051,0,0,1-25.7,15.6C-2192.931,3075.81-2208.234,3065.277-2208.234,3045.01Zm81.9-108.32c0-36.164-30.407-53.452-54.035-53.452-17.1,0-37.709,9.034-47.829,27.688l22.132,10.564a29.08,29.08,0,0,1,25.7-15.6c14.107,0,29.385,10.533,29.385,30.8,0,20.666-15.278,31.2-29.385,31.2a29.011,29.011,0,0,1-25.522-15.341l-22.132,10.245c10.194,18.523,30.681,27.749,47.654,27.749C-2156.741,2990.541-2126.334,2972.657-2126.334,2936.69Zm-54.035-53.452c23.628,0,54.035-17.883,54.035-53.85,0-36.164-30.407-53.452-54.035-53.452-17.1,0-37.709,9.033-47.829,27.688l22.132,10.564a29.079,29.079,0,0,1,25.7-15.6c14.107,0,29.385,10.532,29.385,30.8,0,20.666-15.278,31.2-29.385,31.2a29.011,29.011,0,0,1-25.522-15.341l-22.132,10.246C-2217.829,2874.012-2197.342,2883.238-2180.369,2883.238Zm213.073,215.224c23.628,0,54.06-17.884,54.06-53.851,0-36.164-30.432-53.452-54.06-53.452-17.1,0-37.71,9.033-47.8,27.687l22.107,10.564a29.053,29.053,0,0,1,25.7-15.6c14.107,0,29.41,10.533,29.41,30.8,0,20.666-15.3,31.2-29.41,31.2a28.984,28.984,0,0,1-25.522-15.342l-22.107,10.245C-2004.756,3089.236-1984.294,3098.462-1967.3,3098.462Zm215.391-215.224c23.653,0,54.06,17.289,54.06,53.452,0,35.967-30.407,53.85-54.06,53.85s-54.035-17.884-54.035-53.85C-1805.94,2900.527-1775.558,2883.238-1751.905,2883.238Zm0,84.65c14.132,0,29.41-10.532,29.41-31.2,0-20.268-15.278-30.8-29.41-30.8-13.907,0-29.211,10.533-29.211,30.8C-1781.116,2957.356-1765.812,2967.888-1751.905,2967.888Zm159.038-138.5c0,35.967-30.407,53.85-54.06,53.85-23.628,0-54.06-17.883-54.06-53.85,0-36.164,30.432-53.452,54.06-53.452C-1623.274,2775.936-1592.867,2793.224-1592.867,2829.388Zm-54.06-30.8c-13.907,0-29.211,10.532-29.211,30.8,0,20.666,15.3,31.2,29.211,31.2,14.107,0,29.41-10.531,29.41-31.2C-1617.516,2809.12-1632.82,2798.587-1646.926,2798.587Zm-26.295,138.5c0-20.667,15.3-31.2,29.41-31.2a28.917,28.917,0,0,1,25.5,15.341l22.132-10.245c-10.169-18.523-30.631-27.75-47.629-27.75-23.628,0-54.035,17.884-54.035,53.851,0,36.164,30.407,53.451,54.035,53.451,17.1,0,37.685-9.033,47.8-27.687l-22.107-10.564a29.052,29.052,0,0,1-25.7,15.6C-1657.918,2967.889-1673.221,2957.356-1673.221,2937.089Zm-108.094-107.3c0-20.667,15.3-31.2,29.41-31.2a28.973,28.973,0,0,1,25.5,15.341l22.157-10.245c-10.194-18.523-30.681-27.749-47.654-27.749-23.653,0-54.035,17.884-54.035,53.851,0,36.164,30.382,53.452,54.035,53.452,17.073,0,37.709-9.033,47.829-27.687l-22.132-10.565a29.078,29.078,0,0,1-25.7,15.6C-1766.012,2860.586-1781.315,2850.054-1781.315,2829.786Zm27.865,161.373c23.628,0,54.035,17.288,54.035,53.452,0,35.968-30.407,53.851-54.035,53.851-23.653,0-54.06-17.884-54.06-53.851C-1807.51,3008.447-1777.1,2991.159-1753.45,2991.159Zm0,84.65c14.107,0,29.41-10.532,29.41-31.2,0-20.267-15.3-30.8-29.41-30.8-13.907,0-29.21,10.533-29.21,30.8C-1782.661,3065.277-1767.358,3075.809-1753.45,3075.809Zm-159.038-30.8c0,36.164,30.407,53.452,54.035,53.452,17.1,0,37.71-9.034,47.854-27.688l-22.132-10.564a29.116,29.116,0,0,1-25.721,15.6c-14.107,0-29.41-10.533-29.41-30.8,0-20.667,15.3-31.2,29.41-31.2a28.983,28.983,0,0,1,25.522,15.341l22.132-10.245c-10.194-18.524-30.656-27.75-47.654-27.75C-1882.082,2991.159-1912.489,3009.042-1912.489,3045.01Zm52.49-161.772c-17.073,0-37.71,9.034-47.8,27.688l22.107,10.564a29.08,29.08,0,0,1,25.7-15.6c14.107,0,29.41,10.533,29.41,30.8,0,20.666-15.3,31.2-29.41,31.2a28.974,28.974,0,0,1-25.5-15.341l-22.157,10.245c10.194,18.523,30.681,27.749,47.654,27.749,23.653,0,54.06-17.884,54.06-53.85C-1805.94,2900.527-1836.347,2883.238-1860,2883.238Zm29.41-53.85c0,20.666-15.3,31.2-29.41,31.2a28.973,28.973,0,0,1-25.5-15.341l-22.157,10.246c10.194,18.523,30.681,27.749,47.654,27.749,23.653,0,54.06-17.883,54.06-53.85,0-36.164-30.407-53.452-54.06-53.452-17.073,0-37.71,9.033-47.8,27.688l22.107,10.564a29.079,29.079,0,0,1,25.7-15.6C-1845.893,2798.587-1830.589,2809.12-1830.589,2829.388Zm183.663,269.074c23.653,0,54.06-17.884,54.06-53.851,0-36.164-30.407-53.452-54.06-53.452-17.1,0-37.685,9.033-47.8,27.687l22.132,10.564a29.043,29.043,0,0,1,25.671-15.6c14.107,0,29.41,10.533,29.41,30.8,0,20.666-15.3,31.2-29.41,31.2a28.975,28.975,0,0,1-25.5-15.342l-22.132,10.245C-1684.362,3089.236-1663.9,3098.462-1646.926,3098.462Zm-425.349-430.447c-23.653,0-54.06-17.884-54.06-53.851,0-36.163,30.407-53.452,54.06-53.452,23.628,0,54.035,17.289,54.035,53.452C-2018.24,2650.131-2048.647,2668.015-2072.275,2668.015Zm0-84.65c-13.907,0-29.21,10.532-29.21,30.8,0,20.667,15.3,31.2,29.21,31.2,14.082,0,29.41-10.531,29.41-31.2C-2042.865,2593.9-2058.193,2583.365-2072.275,2583.365Zm159.039-76.5c0,35.968-30.432,53.85-54.06,53.85-23.653,0-54.06-17.883-54.06-53.85,0-36.164,30.407-53.451,54.06-53.451C-1943.668,2453.41-1913.236,2470.7-1913.236,2506.862Zm-54.06-30.8c-13.907,0-29.211,10.532-29.211,30.8,0,20.667,15.3,31.2,29.211,31.2,14.107,0,29.41-10.531,29.41-31.2C-1937.886,2486.594-1953.189,2476.062-1967.3,2476.062Zm-26.295,138.5c0-20.666,15.278-31.2,29.41-31.2a28.973,28.973,0,0,1,25.5,15.341l22.132-10.246c-10.194-18.523-30.656-27.75-47.629-27.75-23.653,0-54.06,17.884-54.06,53.851,0,36.164,30.407,53.452,54.06,53.452,17.1,0,37.685-9.033,47.8-27.687l-22.132-10.564a29.043,29.043,0,0,1-25.671,15.6C-1978.312,2645.363-1993.591,2634.831-1993.591,2614.563Zm-108.119-107.3c0-20.666,15.328-31.2,29.41-31.2a28.983,28.983,0,0,1,25.522,15.341l22.132-10.246c-10.194-18.523-30.656-27.748-47.654-27.748-23.628,0-54.035,17.883-54.035,53.85,0,36.164,30.407,53.452,54.035,53.452,17.1,0,37.71-9.033,47.829-27.687l-22.107-10.564a29.117,29.117,0,0,1-25.721,15.6C-2086.382,2538.061-2101.71,2527.528-2101.71,2507.26Zm27.865,268.676c-23.628,0-54.035-17.884-54.035-53.851,0-36.164,30.407-53.452,54.035-53.452,23.653,0,54.06,17.288,54.06,53.452C-2019.785,2758.052-2050.192,2775.936-2073.845,2775.936Zm0-84.651c-13.907,0-29.211,10.533-29.211,30.8,0,20.667,15.3,31.2,29.211,31.2,14.107,0,29.41-10.531,29.41-31.2C-2044.435,2701.818-2059.738,2691.285-2073.845,2691.285Zm-159.038,31.2c0,36.163,30.432,53.452,54.06,53.452,17.1,0,37.685-9.034,47.8-27.688l-22.107-10.564a29.05,29.05,0,0,1-25.7,15.6c-14.107,0-29.41-10.532-29.41-30.8,0-20.666,15.3-31.2,29.41-31.2a28.946,28.946,0,0,1,25.5,15.341l22.132-10.245c-10.169-18.524-30.656-27.749-47.629-27.749C-2202.451,2668.633-2232.883,2686.517-2232.883,2722.484Zm106.549-108.32c0-36.163-30.407-53.452-54.035-53.452-17.1,0-37.709,9.034-47.829,27.688l22.132,10.563a29.079,29.079,0,0,1,25.7-15.6c14.107,0,29.385,10.532,29.385,30.8,0,20.667-15.278,31.2-29.385,31.2a29.011,29.011,0,0,1-25.522-15.341l-22.132,10.245c10.194,18.524,30.681,27.75,47.654,27.75C-2156.741,2668.015-2126.334,2650.131-2126.334,2614.164Zm-54.035-53.452c23.628,0,54.035-17.883,54.035-53.85,0-36.164-30.407-53.451-54.035-53.451-17.1,0-37.709,9.033-47.829,27.687l22.132,10.565a29.078,29.078,0,0,1,25.7-15.6c14.107,0,29.385,10.532,29.385,30.8,0,20.667-15.278,31.2-29.385,31.2a29.01,29.01,0,0,1-25.522-15.341l-22.132,10.245C-2217.829,2551.487-2197.342,2560.712-2180.369,2560.712Zm213.073,215.224c23.628,0,54.06-17.884,54.06-53.851,0-36.164-30.432-53.452-54.06-53.452-17.1,0-37.71,9.033-47.8,27.687l22.107,10.564a29.052,29.052,0,0,1,25.7-15.6c14.107,0,29.41,10.533,29.41,30.8,0,20.667-15.3,31.2-29.41,31.2a28.983,28.983,0,0,1-25.522-15.342l-22.107,10.246C-2004.756,2766.71-1984.294,2775.936-1967.3,2775.936Zm215.391-107.921c-23.653,0-54.035-17.884-54.035-53.851,0-36.163,30.382-53.452,54.035-53.452s54.06,17.289,54.06,53.452C-1697.845,2650.131-1728.252,2668.015-1751.905,2668.015Zm0-84.65c-13.907,0-29.211,10.532-29.211,30.8,0,20.667,15.3,31.2,29.211,31.2,14.132,0,29.41-10.531,29.41-31.2C-1722.5,2593.9-1737.773,2583.365-1751.905,2583.365Zm159.038-76.5c0,35.968-30.407,53.85-54.06,53.85-23.628,0-54.06-17.883-54.06-53.85,0-36.164,30.432-53.451,54.06-53.451C-1623.274,2453.41-1592.867,2470.7-1592.867,2506.862Zm-54.06-30.8c-13.907,0-29.211,10.532-29.211,30.8,0,20.667,15.3,31.2,29.211,31.2,14.107,0,29.41-10.531,29.41-31.2C-1617.516,2486.594-1632.82,2476.062-1646.926,2476.062Zm-26.295,138.5c0-20.666,15.3-31.2,29.41-31.2a28.917,28.917,0,0,1,25.5,15.341l22.132-10.246c-10.169-18.523-30.631-27.75-47.629-27.75-23.628,0-54.035,17.884-54.035,53.851,0,36.164,30.407,53.452,54.035,53.452,17.1,0,37.685-9.033,47.8-27.687l-22.107-10.564a29.051,29.051,0,0,1-25.7,15.6C-1657.918,2645.363-1673.221,2634.831-1673.221,2614.563Zm-108.094-107.3c0-20.666,15.3-31.2,29.41-31.2a28.973,28.973,0,0,1,25.5,15.341l22.157-10.246c-10.194-18.523-30.681-27.748-47.654-27.748-23.653,0-54.035,17.883-54.035,53.85,0,36.164,30.382,53.452,54.035,53.452,17.073,0,37.709-9.033,47.829-27.687l-22.132-10.564a29.079,29.079,0,0,1-25.7,15.6C-1766.012,2538.061-1781.315,2527.528-1781.315,2507.26Zm27.865,161.373c23.628,0,54.035,17.288,54.035,53.452,0,35.968-30.407,53.851-54.035,53.851-23.653,0-54.06-17.884-54.06-53.851C-1807.51,2685.921-1777.1,2668.633-1753.45,2668.633Zm0,84.65c14.107,0,29.41-10.531,29.41-31.2,0-20.267-15.3-30.8-29.41-30.8-13.907,0-29.21,10.533-29.21,30.8C-1782.661,2742.751-1767.358,2753.283-1753.45,2753.283Zm-159.038-30.8c0,36.163,30.407,53.452,54.035,53.452,17.1,0,37.71-9.034,47.854-27.688l-22.132-10.564a29.116,29.116,0,0,1-25.721,15.6c-14.107,0-29.41-10.532-29.41-30.8,0-20.666,15.3-31.2,29.41-31.2a28.983,28.983,0,0,1,25.522,15.341l22.132-10.245c-10.194-18.524-30.656-27.749-47.654-27.749C-1882.082,2668.633-1912.489,2686.517-1912.489,2722.484Zm106.549-108.32c0-36.163-30.407-53.452-54.06-53.452-17.073,0-37.71,9.034-47.8,27.688l22.107,10.563a29.079,29.079,0,0,1,25.7-15.6c14.107,0,29.41,10.532,29.41,30.8,0,20.667-15.3,31.2-29.41,31.2a28.974,28.974,0,0,1-25.5-15.341l-22.157,10.245c10.194,18.524,30.681,27.75,47.654,27.75C-1836.347,2668.015-1805.94,2650.131-1805.94,2614.164Zm-54.06-53.452c23.653,0,54.06-17.883,54.06-53.85,0-36.164-30.407-53.451-54.06-53.451-17.073,0-37.71,9.033-47.8,27.687l22.107,10.565a29.078,29.078,0,0,1,25.7-15.6c14.107,0,29.41,10.532,29.41,30.8,0,20.667-15.3,31.2-29.41,31.2a28.973,28.973,0,0,1-25.5-15.341l-22.157,10.245C-1897.46,2551.487-1876.972,2560.712-1860,2560.712Zm213.073,215.224c23.653,0,54.06-17.884,54.06-53.851,0-36.164-30.407-53.452-54.06-53.452-17.1,0-37.685,9.033-47.8,27.687l22.132,10.564a29.042,29.042,0,0,1,25.671-15.6c14.107,0,29.41,10.533,29.41,30.8,0,20.667-15.3,31.2-29.41,31.2a28.974,28.974,0,0,1-25.5-15.342l-22.132,10.246C-1684.362,2766.71-1663.9,2775.936-1646.926,2775.936Zm-425.349-537.749c23.628,0,54.035,17.289,54.035,53.451,0,35.968-30.407,53.851-54.035,53.851-23.653,0-54.06-17.884-54.06-53.851C-2126.334,2255.475-2095.927,2238.187-2072.275,2238.187Zm0,84.65c14.082,0,29.41-10.532,29.41-31.2,0-20.267-15.328-30.8-29.41-30.8-13.907,0-29.21,10.533-29.21,30.8C-2101.485,2312.3-2086.182,2322.836-2072.275,2322.836Zm104.979-84.65c-23.653,0-54.06-17.883-54.06-53.851,0-36.164,30.407-53.452,54.06-53.452,23.628,0,54.06,17.288,54.06,53.452C-1913.236,2220.3-1943.668,2238.187-1967.3,2238.187Zm0-84.651c-13.907,0-29.211,10.533-29.211,30.8,0,20.666,15.3,31.2,29.211,31.2,14.107,0,29.41-10.531,29.41-31.2C-1937.886,2164.068-1953.189,2153.536-1967.3,2153.536Zm-26.295,138.5c0-20.666,15.278-31.2,29.41-31.2a28.974,28.974,0,0,1,25.5,15.341l22.132-10.245c-10.194-18.523-30.656-27.75-47.629-27.75-23.653,0-54.06,17.884-54.06,53.851,0,36.164,30.407,53.452,54.06,53.452,17.1,0,37.685-9.033,47.8-27.687l-22.132-10.564a29.043,29.043,0,0,1-25.671,15.6C-1978.312,2322.838-1993.591,2312.3-1993.591,2292.038Zm-108.119-107.3c0-20.667,15.328-31.2,29.41-31.2a28.982,28.982,0,0,1,25.522,15.341l22.132-10.245c-10.194-18.523-30.656-27.749-47.654-27.749-23.628,0-54.035,17.883-54.035,53.851,0,36.164,30.407,53.452,54.035,53.452,17.1,0,37.71-9.033,47.829-27.687l-22.107-10.564a29.116,29.116,0,0,1-25.721,15.6C-2086.382,2215.535-2101.71,2205-2101.71,2184.735Zm27.865,268.676c-23.628,0-54.035-17.884-54.035-53.851,0-36.164,30.407-53.452,54.035-53.452,23.653,0,54.06,17.288,54.06,53.452C-2019.785,2435.527-2050.192,2453.41-2073.845,2453.41Zm0-84.652c-13.907,0-29.211,10.533-29.211,30.8,0,20.666,15.3,31.2,29.211,31.2,14.107,0,29.41-10.531,29.41-31.2C-2044.435,2379.292-2059.738,2368.759-2073.845,2368.759Zm-159.038,31.2c0,36.163,30.432,53.452,54.06,53.452,17.1,0,37.685-9.034,47.8-27.688l-22.107-10.564a29.051,29.051,0,0,1-25.7,15.6c-14.107,0-29.41-10.533-29.41-30.8,0-20.667,15.3-31.2,29.41-31.2a28.946,28.946,0,0,1,25.5,15.341l22.132-10.245c-10.169-18.524-30.656-27.75-47.629-27.75C-2202.451,2346.107-2232.883,2363.991-2232.883,2399.959Zm52.514-161.772c-17.1,0-37.709,9.034-47.829,27.688l22.132,10.564a29.08,29.08,0,0,1,25.7-15.6c14.107,0,29.385,10.533,29.385,30.8,0,20.667-15.278,31.2-29.385,31.2a29.011,29.011,0,0,1-25.522-15.341l-22.132,10.245c10.194,18.524,30.681,27.75,47.654,27.75,23.628,0,54.035-17.884,54.035-53.851C-2126.334,2255.475-2156.741,2238.187-2180.369,2238.187Zm54.035-53.851c0-36.164-30.407-53.452-54.035-53.452-17.1,0-37.709,9.033-47.829,27.688l22.132,10.564a29.079,29.079,0,0,1,25.7-15.6c14.107,0,29.385,10.533,29.385,30.8,0,20.666-15.278,31.2-29.385,31.2a29.011,29.011,0,0,1-25.522-15.341l-22.132,10.246c10.194,18.523,30.681,27.749,47.654,27.749C-2156.741,2238.187-2126.334,2220.3-2126.334,2184.336ZM-1967.3,2453.41c23.628,0,54.06-17.884,54.06-53.851,0-36.164-30.432-53.452-54.06-53.452-17.1,0-37.71,9.033-47.8,27.687l22.107,10.564a29.053,29.053,0,0,1,25.7-15.6c14.107,0,29.41,10.533,29.41,30.8,0,20.666-15.3,31.2-29.41,31.2a28.983,28.983,0,0,1-25.522-15.341l-22.107,10.245C-2004.756,2444.184-1984.294,2453.41-1967.3,2453.41Zm215.391-215.224c23.653,0,54.06,17.289,54.06,53.451,0,35.968-30.407,53.851-54.06,53.851s-54.035-17.884-54.035-53.851C-1805.94,2255.475-1775.558,2238.187-1751.905,2238.187Zm0,84.65c14.132,0,29.41-10.532,29.41-31.2,0-20.267-15.278-30.8-29.41-30.8-13.907,0-29.211,10.533-29.211,30.8C-1781.116,2312.3-1765.812,2322.836-1751.905,2322.836Zm104.979-84.65c-23.628,0-54.06-17.883-54.06-53.851,0-36.164,30.432-53.452,54.06-53.452,23.653,0,54.06,17.288,54.06,53.452C-1592.867,2220.3-1623.274,2238.187-1646.926,2238.187Zm0-84.651c-13.907,0-29.211,10.533-29.211,30.8,0,20.666,15.3,31.2,29.211,31.2,14.107,0,29.41-10.531,29.41-31.2C-1617.516,2164.068-1632.82,2153.536-1646.926,2153.536Zm-26.295,138.5c0-20.666,15.3-31.2,29.41-31.2a28.917,28.917,0,0,1,25.5,15.341l22.132-10.245c-10.169-18.523-30.631-27.75-47.629-27.75-23.628,0-54.035,17.884-54.035,53.851,0,36.164,30.407,53.452,54.035,53.452,17.1,0,37.685-9.033,47.8-27.687l-22.107-10.564a29.052,29.052,0,0,1-25.7,15.6C-1657.918,2322.838-1673.221,2312.3-1673.221,2292.038Zm-108.094-107.3c0-20.667,15.3-31.2,29.41-31.2a28.973,28.973,0,0,1,25.5,15.341l22.157-10.245c-10.194-18.523-30.681-27.749-47.654-27.749-23.653,0-54.035,17.883-54.035,53.851,0,36.164,30.382,53.452,54.035,53.452,17.073,0,37.709-9.033,47.829-27.687l-22.132-10.564a29.078,29.078,0,0,1-25.7,15.6C-1766.012,2215.535-1781.315,2205-1781.315,2184.735Zm27.865,268.676c-23.653,0-54.06-17.884-54.06-53.851,0-36.164,30.407-53.452,54.06-53.452,23.628,0,54.035,17.288,54.035,53.452C-1699.416,2435.527-1729.823,2453.41-1753.45,2453.41Zm0-84.652c-13.907,0-29.21,10.533-29.21,30.8,0,20.666,15.3,31.2,29.21,31.2,14.107,0,29.41-10.531,29.41-31.2C-1724.04,2379.292-1739.344,2368.759-1753.45,2368.759Zm-159.038,31.2c0,36.163,30.407,53.452,54.035,53.452,17.1,0,37.71-9.034,47.854-27.688l-22.132-10.564a29.116,29.116,0,0,1-25.721,15.6c-14.107,0-29.41-10.533-29.41-30.8,0-20.667,15.3-31.2,29.41-31.2a28.983,28.983,0,0,1,25.522,15.341l22.132-10.245c-10.194-18.524-30.656-27.75-47.654-27.75C-1882.082,2346.107-1912.489,2363.991-1912.489,2399.959Zm52.49-161.772c-17.073,0-37.71,9.034-47.8,27.688l22.107,10.564a29.08,29.08,0,0,1,25.7-15.6c14.107,0,29.41,10.533,29.41,30.8,0,20.667-15.3,31.2-29.41,31.2a28.974,28.974,0,0,1-25.5-15.341l-22.157,10.245c10.194,18.524,30.681,27.75,47.654,27.75,23.653,0,54.06-17.884,54.06-53.851C-1805.94,2255.475-1836.347,2238.187-1860,2238.187Zm54.06-53.851c0-36.164-30.407-53.452-54.06-53.452-17.073,0-37.71,9.033-47.8,27.688l22.107,10.564a29.079,29.079,0,0,1,25.7-15.6c14.107,0,29.41,10.533,29.41,30.8,0,20.666-15.3,31.2-29.41,31.2a28.974,28.974,0,0,1-25.5-15.341l-22.157,10.246c10.194,18.523,30.681,27.749,47.654,27.749C-1836.347,2238.187-1805.94,2220.3-1805.94,2184.336Zm213.073,215.223c0-36.164-30.407-53.452-54.06-53.452-17.1,0-37.685,9.033-47.8,27.687l22.132,10.564a29.043,29.043,0,0,1,25.671-15.6c14.107,0,29.41,10.533,29.41,30.8,0,20.666-15.3,31.2-29.41,31.2a28.974,28.974,0,0,1-25.5-15.341l-22.132,10.245c10.194,18.523,30.656,27.75,47.629,27.75C-1623.274,2453.41-1592.867,2435.527-1592.867,2399.559Zm160.584,913.508c-23.628,0-54.06-17.884-54.06-53.851,0-36.164,30.432-53.452,54.06-53.452s54.06,17.288,54.06,53.452C-1378.224,3295.183-1408.655,3313.067-1432.283,3313.067Zm0-84.651c-13.907,0-29.211,10.533-29.211,30.8,0,20.666,15.3,31.2,29.211,31.2,14.107,0,29.41-10.531,29.41-31.2C-1402.873,3238.949-1418.176,3228.416-1432.283,3228.416Zm159.038-76.5c0,35.968-30.407,53.851-54.06,53.851-23.628,0-54.06-17.884-54.06-53.851,0-36.164,30.432-53.451,54.06-53.451C-1303.652,3098.462-1273.245,3115.75-1273.245,3151.913Zm-54.06-30.8c-13.907,0-29.211,10.533-29.211,30.8,0,20.667,15.3,31.2,29.211,31.2,14.107,0,29.41-10.531,29.41-31.2C-1297.894,3131.646-1313.2,3121.113-1327.3,3121.113Zm-26.295,138.5c0-20.666,15.278-31.2,29.41-31.2a28.945,28.945,0,0,1,25.5,15.341l22.132-10.246c-10.194-18.523-30.631-27.749-47.629-27.749-23.653,0-54.035,17.883-54.035,53.851,0,36.164,30.382,53.452,54.035,53.452,17.1,0,37.685-9.033,47.829-27.687l-22.132-10.564a29.108,29.108,0,0,1-25.7,15.6C-1338.321,3290.415-1353.6,3279.882-1353.6,3259.615Zm-108.094-107.3c0-20.666,15.3-31.2,29.41-31.2a28.973,28.973,0,0,1,25.5,15.341l22.132-10.245c-10.169-18.524-30.656-27.75-47.629-27.75-23.653,0-54.06,17.884-54.06,53.85,0,36.164,30.407,53.452,54.06,53.452,17.073,0,37.685-9.034,47.8-27.688l-22.132-10.564a29.014,29.014,0,0,1-25.672,15.6C-1446.39,3183.113-1461.693,3172.58-1461.693,3152.312Zm27.865,161.373c23.628,0,54.01,17.288,54.01,53.452,0,35.968-30.382,53.851-54.01,53.851-23.677,0-54.06-17.884-54.06-53.851C-1487.888,3330.973-1457.506,3313.685-1433.828,3313.685Zm0,84.65c14.107,0,29.41-10.532,29.41-31.2,0-20.267-15.3-30.8-29.41-30.8-13.932,0-29.211,10.533-29.211,30.8C-1463.039,3387.8-1447.761,3398.335-1433.828,3398.335Zm-159.038-30.8c0,36.164,30.407,53.452,54.035,53.452,17.1,0,37.685-9.033,47.829-27.688l-22.132-10.563a29.079,29.079,0,0,1-25.7,15.6c-14.082,0-29.41-10.533-29.41-30.8,0-20.666,15.328-31.2,29.41-31.2a28.917,28.917,0,0,1,25.5,15.341l22.132-10.245c-10.194-18.524-30.631-27.75-47.629-27.75C-1562.46,3313.685-1592.867,3331.569-1592.867,3367.536Zm106.524-108.32c0-36.164-30.382-53.452-54.06-53.452-17.073,0-37.685,9.033-47.8,27.688l22.132,10.564a29.042,29.042,0,0,1,25.671-15.6c14.132,0,29.41,10.533,29.41,30.8,0,20.666-15.278,31.2-29.41,31.2a28.936,28.936,0,0,1-25.472-15.341l-22.132,10.245c10.169,18.524,30.631,27.75,47.6,27.75C-1516.725,3313.067-1486.343,3295.183-1486.343,3259.216Zm-54.06-53.452c23.678,0,54.06-17.884,54.06-53.851,0-36.164-30.382-53.451-54.06-53.451-17.073,0-37.685,9.033-47.8,27.687l22.132,10.564a29.043,29.043,0,0,1,25.671-15.6c14.132,0,29.41,10.533,29.41,30.8,0,20.667-15.278,31.2-29.41,31.2a28.936,28.936,0,0,1-25.472-15.341l-22.132,10.245C-1577.838,3196.539-1557.375,3205.765-1540.4,3205.765Zm267.158,161.372c0-36.164-30.407-53.452-54.06-53.452-17.073,0-37.71,9.033-47.829,27.688l22.132,10.564a29.08,29.08,0,0,1,25.7-15.6c14.107,0,29.41,10.533,29.41,30.8,0,20.667-15.3,31.2-29.41,31.2a28.974,28.974,0,0,1-25.5-15.342l-22.157,10.245c10.194,18.523,30.681,27.75,47.654,27.75C-1303.652,3420.988-1273.245,3403.1-1273.245,3367.136Zm161.331-54.07c-23.628,0-54.06-17.884-54.06-53.851,0-36.164,30.432-53.452,54.06-53.452,23.677,0,54.06,17.288,54.06,53.452C-1057.854,3295.183-1088.236,3313.067-1111.913,3313.067Zm0-84.651c-13.907,0-29.211,10.533-29.211,30.8,0,20.666,15.3,31.2,29.211,31.2,14.107,0,29.41-10.531,29.41-31.2C-1082.5,3238.949-1097.807,3228.416-1111.913,3228.416Zm159.038-76.5c0,35.968-30.407,53.851-54.06,53.851-23.628,0-54.035-17.884-54.035-53.851,0-36.164,30.407-53.451,54.035-53.451C-983.282,3098.462-952.875,3115.75-952.875,3151.913Zm-54.06-30.8c-13.883,0-29.211,10.533-29.211,30.8,0,20.667,15.328,31.2,29.211,31.2,14.107,0,29.41-10.531,29.41-31.2C-977.525,3131.646-992.828,3121.113-1006.935,3121.113Zm-50.919,138.5c0,36.164,30.407,53.452,54.06,53.452,17.073,0,37.685-9.033,47.8-27.687l-22.132-10.564a29.043,29.043,0,0,1-25.671,15.6c-14.107,0-29.41-10.533-29.41-30.8,0-20.666,15.3-31.2,29.41-31.2a28.908,28.908,0,0,1,25.472,15.341l22.132-10.246c-10.194-18.523-30.631-27.749-47.6-27.749C-1027.447,3205.765-1057.854,3223.648-1057.854,3259.615Zm-83.47-107.3c0-20.666,15.3-31.2,29.41-31.2a29.011,29.011,0,0,1,25.522,15.341l22.132-10.245c-10.194-18.524-30.681-27.75-47.654-27.75-23.628,0-54.06,17.884-54.06,53.85,0,36.164,30.432,53.452,54.06,53.452,17.1,0,37.71-9.034,47.829-27.688l-22.107-10.564a29.144,29.144,0,0,1-25.721,15.6C-1126.02,3183.113-1141.323,3172.58-1141.323,3152.312Zm27.865,161.373c23.628,0,54.06,17.288,54.06,53.452,0,35.968-30.432,53.851-54.06,53.851s-54.06-17.884-54.06-53.851C-1167.518,3330.973-1137.086,3313.685-1113.459,3313.685Zm0,84.65c14.107,0,29.41-10.532,29.41-31.2,0-20.267-15.3-30.8-29.41-30.8-13.907,0-29.21,10.533-29.21,30.8C-1142.669,3387.8-1127.366,3398.335-1113.459,3398.335Zm-159.038-30.8c0,36.164,30.407,53.452,54.06,53.452,17.073,0,37.71-9.033,47.8-27.688l-22.107-10.563a29.08,29.08,0,0,1-25.7,15.6c-14.107,0-29.41-10.533-29.41-30.8,0-20.666,15.3-31.2,29.41-31.2a28.974,28.974,0,0,1,25.5,15.341l22.132-10.245c-10.169-18.524-30.656-27.75-47.629-27.75C-1242.09,3313.685-1272.5,3331.569-1272.5,3367.536Zm106.524-108.32c0-36.164-30.382-53.452-54.01-53.452-17.1,0-37.71,9.033-47.854,27.688l22.132,10.564a29.116,29.116,0,0,1,25.721-15.6c14.082,0,29.41,10.533,29.41,30.8,0,20.666-15.328,31.2-29.41,31.2a28.983,28.983,0,0,1-25.522-15.341l-22.132,10.245c10.194,18.524,30.656,27.75,47.654,27.75C-1196.355,3313.067-1165.973,3295.183-1165.973,3259.216Zm-54.01-53.452c23.628,0,54.01-17.884,54.01-53.851,0-36.164-30.382-53.451-54.01-53.451-17.1,0-37.71,9.033-47.854,27.687l22.132,10.564a29.117,29.117,0,0,1,25.721-15.6c14.082,0,29.41,10.533,29.41,30.8,0,20.667-15.328,31.2-29.41,31.2a28.983,28.983,0,0,1-25.522-15.341l-22.132,10.245C-1257.443,3196.539-1236.981,3205.765-1219.983,3205.765Zm242.458,161.372c0,20.667-15.3,31.2-29.41,31.2a28.909,28.909,0,0,1-25.472-15.342l-22.157,10.245c10.194,18.523,30.656,27.75,47.629,27.75,23.653,0,54.06-17.884,54.06-53.851,0-36.164-30.407-53.452-54.06-53.452-17.073,0-37.685,9.033-47.8,27.688l22.132,10.564a29.015,29.015,0,0,1,25.672-15.6C-992.828,3336.336-977.525,3346.87-977.525,3367.136Zm-454.758-376.6c-23.628,0-54.06-17.884-54.06-53.85,0-36.164,30.432-53.452,54.06-53.452s54.06,17.289,54.06,53.452C-1378.224,2972.657-1408.655,2990.541-1432.283,2990.541Zm0-84.651c-13.907,0-29.211,10.533-29.211,30.8,0,20.666,15.3,31.2,29.211,31.2,14.107,0,29.41-10.532,29.41-31.2C-1402.873,2916.423-1418.176,2905.89-1432.283,2905.89Zm159.038-76.5c0,35.967-30.407,53.85-54.06,53.85-23.628,0-54.06-17.883-54.06-53.85,0-36.164,30.432-53.452,54.06-53.452C-1303.652,2775.936-1273.245,2793.224-1273.245,2829.388Zm-54.06-30.8c-13.907,0-29.211,10.532-29.211,30.8,0,20.666,15.3,31.2,29.211,31.2,14.107,0,29.41-10.531,29.41-31.2C-1297.894,2809.12-1313.2,2798.587-1327.3,2798.587Zm-26.295,138.5c0-20.667,15.278-31.2,29.41-31.2a28.945,28.945,0,0,1,25.5,15.341l22.132-10.245c-10.194-18.523-30.631-27.75-47.629-27.75-23.653,0-54.035,17.884-54.035,53.851,0,36.164,30.382,53.451,54.035,53.451,17.1,0,37.685-9.033,47.829-27.687l-22.132-10.564a29.108,29.108,0,0,1-25.7,15.6C-1338.321,2967.889-1353.6,2957.356-1353.6,2937.089Zm-108.094-107.3c0-20.667,15.3-31.2,29.41-31.2a28.973,28.973,0,0,1,25.5,15.341l22.132-10.245c-10.169-18.523-30.656-27.749-47.629-27.749-23.653,0-54.06,17.884-54.06,53.851,0,36.164,30.407,53.452,54.06,53.452,17.073,0,37.685-9.033,47.8-27.687l-22.132-10.565a29.014,29.014,0,0,1-25.672,15.6C-1446.39,2860.586-1461.693,2850.054-1461.693,2829.786Zm27.865,268.676c-23.677,0-54.06-17.884-54.06-53.851,0-36.164,30.382-53.452,54.06-53.452,23.628,0,54.01,17.288,54.01,53.452C-1379.819,3080.578-1410.2,3098.462-1433.828,3098.462Zm0-84.652c-13.932,0-29.211,10.533-29.211,30.8,0,20.666,15.278,31.2,29.211,31.2,14.107,0,29.41-10.532,29.41-31.2C-1404.418,3024.344-1419.721,3013.81-1433.828,3013.81Zm-134.414,31.2c0-20.667,15.328-31.2,29.41-31.2a28.917,28.917,0,0,1,25.5,15.341l22.132-10.245c-10.194-18.524-30.631-27.75-47.629-27.75-23.628,0-54.035,17.884-54.035,53.851,0,36.164,30.407,53.452,54.035,53.452,17.1,0,37.685-9.034,47.829-27.688l-22.132-10.564a29.079,29.079,0,0,1-25.7,15.6C-1552.914,3075.81-1568.242,3065.277-1568.242,3045.01Zm81.9-108.32c0-36.164-30.382-53.452-54.06-53.452-17.073,0-37.685,9.034-47.8,27.688l22.132,10.564a29.043,29.043,0,0,1,25.671-15.6c14.132,0,29.41,10.533,29.41,30.8,0,20.666-15.278,31.2-29.41,31.2a28.936,28.936,0,0,1-25.472-15.341l-22.132,10.245c10.169,18.523,30.631,27.749,47.6,27.749C-1516.725,2990.541-1486.343,2972.657-1486.343,2936.69Zm-54.06-53.452c23.678,0,54.06-17.883,54.06-53.85,0-36.164-30.382-53.452-54.06-53.452-17.073,0-37.685,9.033-47.8,27.688l22.132,10.564a29.042,29.042,0,0,1,25.671-15.6c14.132,0,29.41,10.532,29.41,30.8,0,20.666-15.278,31.2-29.41,31.2a28.936,28.936,0,0,1-25.472-15.341l-22.132,10.246C-1577.838,2874.012-1557.375,2883.238-1540.4,2883.238Zm213.1,215.224c23.653,0,54.06-17.884,54.06-53.851,0-36.164-30.407-53.452-54.06-53.452-17.073,0-37.71,9.033-47.829,27.687l22.132,10.564a29.08,29.08,0,0,1,25.7-15.6c14.107,0,29.41,10.533,29.41,30.8,0,20.666-15.3,31.2-29.41,31.2a28.975,28.975,0,0,1-25.5-15.342l-22.157,10.245C-1364.765,3089.236-1344.277,3098.462-1327.3,3098.462Zm215.391-107.921c-23.628,0-54.06-17.884-54.06-53.85,0-36.164,30.432-53.452,54.06-53.452,23.677,0,54.06,17.289,54.06,53.452C-1057.854,2972.657-1088.236,2990.541-1111.913,2990.541Zm0-84.651c-13.907,0-29.211,10.533-29.211,30.8,0,20.666,15.3,31.2,29.211,31.2,14.107,0,29.41-10.532,29.41-31.2C-1082.5,2916.423-1097.807,2905.89-1111.913,2905.89Zm159.038-76.5c0,35.967-30.407,53.85-54.06,53.85-23.628,0-54.035-17.883-54.035-53.85,0-36.164,30.407-53.452,54.035-53.452C-983.282,2775.936-952.875,2793.224-952.875,2829.388Zm-54.06-30.8c-13.883,0-29.211,10.532-29.211,30.8,0,20.666,15.328,31.2,29.211,31.2,14.107,0,29.41-10.531,29.41-31.2C-977.525,2809.12-992.828,2798.587-1006.935,2798.587Zm-26.27,138.5c0-20.667,15.3-31.2,29.41-31.2a28.908,28.908,0,0,1,25.472,15.341l22.132-10.245c-10.194-18.523-30.631-27.75-47.6-27.75-23.653,0-54.06,17.884-54.06,53.851,0,36.164,30.407,53.451,54.06,53.451,17.073,0,37.685-9.033,47.8-27.687l-22.132-10.564a29.043,29.043,0,0,1-25.671,15.6C-1017.9,2967.889-1033.2,2957.356-1033.2,2937.089Zm-108.119-107.3c0-20.667,15.3-31.2,29.41-31.2a29.011,29.011,0,0,1,25.522,15.341l22.132-10.245c-10.194-18.523-30.681-27.749-47.654-27.749-23.628,0-54.06,17.884-54.06,53.851,0,36.164,30.432,53.452,54.06,53.452,17.1,0,37.71-9.033,47.829-27.687l-22.107-10.565a29.143,29.143,0,0,1-25.721,15.6C-1126.02,2860.586-1141.323,2850.054-1141.323,2829.786Zm27.865,268.676c-23.628,0-54.06-17.884-54.06-53.851,0-36.164,30.432-53.452,54.06-53.452s54.06,17.288,54.06,53.452C-1059.4,3080.578-1089.831,3098.462-1113.459,3098.462Zm0-84.652c-13.907,0-29.21,10.533-29.21,30.8,0,20.666,15.3,31.2,29.21,31.2,14.107,0,29.41-10.532,29.41-31.2C-1084.049,3024.344-1099.352,3013.81-1113.459,3013.81Zm-159.038,31.2c0,36.164,30.407,53.452,54.06,53.452,17.073,0,37.71-9.034,47.8-27.688l-22.107-10.564a29.079,29.079,0,0,1-25.7,15.6c-14.107,0-29.41-10.533-29.41-30.8,0-20.667,15.3-31.2,29.41-31.2a28.974,28.974,0,0,1,25.5,15.341l22.132-10.245c-10.169-18.524-30.656-27.75-47.629-27.75C-1242.09,2991.159-1272.5,3009.042-1272.5,3045.01Zm106.524-108.32c0-36.164-30.382-53.452-54.01-53.452-17.1,0-37.71,9.034-47.854,27.688l22.132,10.564a29.116,29.116,0,0,1,25.721-15.6c14.082,0,29.41,10.533,29.41,30.8,0,20.666-15.328,31.2-29.41,31.2a28.983,28.983,0,0,1-25.522-15.341l-22.132,10.245c10.194,18.523,30.656,27.749,47.654,27.749C-1196.355,2990.541-1165.973,2972.657-1165.973,2936.69Zm-54.01-53.452c23.628,0,54.01-17.883,54.01-53.85,0-36.164-30.382-53.452-54.01-53.452-17.1,0-37.71,9.033-47.854,27.688l22.132,10.564a29.116,29.116,0,0,1,25.721-15.6c14.082,0,29.41,10.532,29.41,30.8,0,20.666-15.328,31.2-29.41,31.2a28.983,28.983,0,0,1-25.522-15.341l-22.132,10.246C-1257.443,2874.012-1236.981,2883.238-1219.983,2883.238Zm213.048,215.224c23.653,0,54.06-17.884,54.06-53.851,0-36.164-30.407-53.452-54.06-53.452-17.073,0-37.685,9.033-47.8,27.687l22.132,10.564a29.015,29.015,0,0,1,25.672-15.6c14.107,0,29.41,10.533,29.41,30.8,0,20.666-15.3,31.2-29.41,31.2a28.909,28.909,0,0,1-25.472-15.342l-22.157,10.245C-1044.37,3089.236-1023.908,3098.462-1006.935,3098.462Zm-425.349-430.447c-23.628,0-54.06-17.884-54.06-53.851,0-36.163,30.432-53.452,54.06-53.452s54.06,17.289,54.06,53.452C-1378.224,2650.131-1408.655,2668.015-1432.283,2668.015Zm0-84.65c-13.907,0-29.211,10.532-29.211,30.8,0,20.667,15.3,31.2,29.211,31.2,14.107,0,29.41-10.531,29.41-31.2C-1402.873,2593.9-1418.176,2583.365-1432.283,2583.365Zm159.038-76.5c0,35.968-30.407,53.85-54.06,53.85-23.628,0-54.06-17.883-54.06-53.85,0-36.164,30.432-53.451,54.06-53.451C-1303.652,2453.41-1273.245,2470.7-1273.245,2506.862Zm-54.06-30.8c-13.907,0-29.211,10.532-29.211,30.8,0,20.667,15.3,31.2,29.211,31.2,14.107,0,29.41-10.531,29.41-31.2C-1297.894,2486.594-1313.2,2476.062-1327.3,2476.062Zm-26.295,138.5c0-20.666,15.278-31.2,29.41-31.2a28.945,28.945,0,0,1,25.5,15.341l22.132-10.246c-10.194-18.523-30.631-27.75-47.629-27.75-23.653,0-54.035,17.884-54.035,53.851,0,36.164,30.382,53.452,54.035,53.452,17.1,0,37.685-9.033,47.829-27.687l-22.132-10.564a29.108,29.108,0,0,1-25.7,15.6C-1338.321,2645.363-1353.6,2634.831-1353.6,2614.563Zm-108.094-107.3c0-20.666,15.3-31.2,29.41-31.2a28.973,28.973,0,0,1,25.5,15.341l22.132-10.246c-10.169-18.523-30.656-27.748-47.629-27.748-23.653,0-54.06,17.883-54.06,53.85,0,36.164,30.407,53.452,54.06,53.452,17.073,0,37.685-9.033,47.8-27.687l-22.132-10.564a29.014,29.014,0,0,1-25.672,15.6C-1446.39,2538.061-1461.693,2527.528-1461.693,2507.26Zm27.865,268.676c-23.677,0-54.06-17.884-54.06-53.851,0-36.164,30.382-53.452,54.06-53.452,23.628,0,54.01,17.288,54.01,53.452C-1379.819,2758.052-1410.2,2775.936-1433.828,2775.936Zm0-84.651c-13.932,0-29.211,10.533-29.211,30.8,0,20.667,15.278,31.2,29.211,31.2,14.107,0,29.41-10.531,29.41-31.2C-1404.418,2701.818-1419.721,2691.285-1433.828,2691.285Zm-159.038,31.2c0,36.163,30.407,53.452,54.035,53.452,17.1,0,37.685-9.034,47.829-27.688l-22.132-10.564a29.079,29.079,0,0,1-25.7,15.6c-14.082,0-29.41-10.532-29.41-30.8,0-20.666,15.328-31.2,29.41-31.2a28.917,28.917,0,0,1,25.5,15.341l22.132-10.245c-10.194-18.524-30.631-27.749-47.629-27.749C-1562.46,2668.633-1592.867,2686.517-1592.867,2722.484Zm106.524-108.32c0-36.163-30.382-53.452-54.06-53.452-17.073,0-37.685,9.034-47.8,27.688l22.132,10.563a29.042,29.042,0,0,1,25.671-15.6c14.132,0,29.41,10.532,29.41,30.8,0,20.667-15.278,31.2-29.41,31.2a28.936,28.936,0,0,1-25.472-15.341l-22.132,10.245c10.169,18.524,30.631,27.75,47.6,27.75C-1516.725,2668.015-1486.343,2650.131-1486.343,2614.164Zm-54.06-53.452c23.678,0,54.06-17.883,54.06-53.85,0-36.164-30.382-53.451-54.06-53.451-17.073,0-37.685,9.033-47.8,27.687l22.132,10.565a29.041,29.041,0,0,1,25.671-15.6c14.132,0,29.41,10.532,29.41,30.8,0,20.667-15.278,31.2-29.41,31.2a28.936,28.936,0,0,1-25.472-15.341l-22.132,10.245C-1577.838,2551.487-1557.375,2560.712-1540.4,2560.712Zm213.1,215.224c23.653,0,54.06-17.884,54.06-53.851,0-36.164-30.407-53.452-54.06-53.452-17.073,0-37.71,9.033-47.829,27.687l22.132,10.564a29.08,29.08,0,0,1,25.7-15.6c14.107,0,29.41,10.533,29.41,30.8,0,20.667-15.3,31.2-29.41,31.2a28.974,28.974,0,0,1-25.5-15.342l-22.157,10.246C-1364.765,2766.71-1344.277,2775.936-1327.3,2775.936Zm215.391-107.921c-23.628,0-54.06-17.884-54.06-53.851,0-36.163,30.432-53.452,54.06-53.452,23.677,0,54.06,17.289,54.06,53.452C-1057.854,2650.131-1088.236,2668.015-1111.913,2668.015Zm0-84.65c-13.907,0-29.211,10.532-29.211,30.8,0,20.667,15.3,31.2,29.211,31.2,14.107,0,29.41-10.531,29.41-31.2C-1082.5,2593.9-1097.807,2583.365-1111.913,2583.365Zm159.038-76.5c0,35.968-30.407,53.85-54.06,53.85-23.628,0-54.035-17.883-54.035-53.85,0-36.164,30.407-53.451,54.035-53.451C-983.282,2453.41-952.875,2470.7-952.875,2506.862Zm-54.06-30.8c-13.883,0-29.211,10.532-29.211,30.8,0,20.667,15.328,31.2,29.211,31.2,14.107,0,29.41-10.531,29.41-31.2C-977.525,2486.594-992.828,2476.062-1006.935,2476.062Zm-26.27,138.5c0-20.666,15.3-31.2,29.41-31.2a28.908,28.908,0,0,1,25.472,15.341l22.132-10.246c-10.194-18.523-30.631-27.75-47.6-27.75-23.653,0-54.06,17.884-54.06,53.851,0,36.164,30.407,53.452,54.06,53.452,17.073,0,37.685-9.033,47.8-27.687l-22.132-10.564a29.042,29.042,0,0,1-25.671,15.6C-1017.9,2645.363-1033.2,2634.831-1033.2,2614.563Zm-108.119-107.3c0-20.666,15.3-31.2,29.41-31.2a29.011,29.011,0,0,1,25.522,15.341l22.132-10.246c-10.194-18.523-30.681-27.748-47.654-27.748-23.628,0-54.06,17.883-54.06,53.85,0,36.164,30.432,53.452,54.06,53.452,17.1,0,37.71-9.033,47.829-27.687l-22.107-10.564a29.144,29.144,0,0,1-25.721,15.6C-1126.02,2538.061-1141.323,2527.528-1141.323,2507.26Zm27.865,268.676c-23.628,0-54.06-17.884-54.06-53.851,0-36.164,30.432-53.452,54.06-53.452s54.06,17.288,54.06,53.452C-1059.4,2758.052-1089.831,2775.936-1113.459,2775.936Zm0-84.651c-13.907,0-29.21,10.533-29.21,30.8,0,20.667,15.3,31.2,29.21,31.2,14.107,0,29.41-10.531,29.41-31.2C-1084.049,2701.818-1099.352,2691.285-1113.459,2691.285Zm-159.038,31.2c0,36.163,30.407,53.452,54.06,53.452,17.073,0,37.71-9.034,47.8-27.688l-22.107-10.564a29.079,29.079,0,0,1-25.7,15.6c-14.107,0-29.41-10.532-29.41-30.8,0-20.666,15.3-31.2,29.41-31.2a28.974,28.974,0,0,1,25.5,15.341l22.132-10.245c-10.169-18.524-30.656-27.749-47.629-27.749C-1242.09,2668.633-1272.5,2686.517-1272.5,2722.484Zm106.524-108.32c0-36.163-30.382-53.452-54.01-53.452-17.1,0-37.71,9.034-47.854,27.688l22.132,10.563a29.116,29.116,0,0,1,25.721-15.6c14.082,0,29.41,10.532,29.41,30.8,0,20.667-15.328,31.2-29.41,31.2a28.983,28.983,0,0,1-25.522-15.341l-22.132,10.245c10.194,18.524,30.656,27.75,47.654,27.75C-1196.355,2668.015-1165.973,2650.131-1165.973,2614.164Zm-54.01-53.452c23.628,0,54.01-17.883,54.01-53.85,0-36.164-30.382-53.451-54.01-53.451-17.1,0-37.71,9.033-47.854,27.687l22.132,10.565a29.115,29.115,0,0,1,25.721-15.6c14.082,0,29.41,10.532,29.41,30.8,0,20.667-15.328,31.2-29.41,31.2a28.983,28.983,0,0,1-25.522-15.341l-22.132,10.245C-1257.443,2551.487-1236.981,2560.712-1219.983,2560.712Zm213.048,215.224c23.653,0,54.06-17.884,54.06-53.851,0-36.164-30.407-53.452-54.06-53.452-17.073,0-37.685,9.033-47.8,27.687l22.132,10.564a29.015,29.015,0,0,1,25.672-15.6c14.107,0,29.41,10.533,29.41,30.8,0,20.667-15.3,31.2-29.41,31.2a28.909,28.909,0,0,1-25.472-15.342l-22.157,10.246C-1044.37,2766.71-1023.908,2775.936-1006.935,2775.936Zm-425.349-537.749c23.628,0,54.06,17.289,54.06,53.451,0,35.968-30.432,53.851-54.06,53.851s-54.06-17.884-54.06-53.851C-1486.343,2255.475-1455.911,2238.187-1432.283,2238.187Zm0,84.65c14.107,0,29.41-10.532,29.41-31.2,0-20.267-15.3-30.8-29.41-30.8-13.907,0-29.211,10.533-29.211,30.8C-1461.494,2312.3-1446.191,2322.836-1432.283,2322.836Zm104.979-84.65c-23.628,0-54.06-17.883-54.06-53.851,0-36.164,30.432-53.452,54.06-53.452,23.653,0,54.06,17.288,54.06,53.452C-1273.245,2220.3-1303.652,2238.187-1327.3,2238.187Zm0-84.651c-13.907,0-29.211,10.533-29.211,30.8,0,20.666,15.3,31.2,29.211,31.2,14.107,0,29.41-10.531,29.41-31.2C-1297.894,2164.068-1313.2,2153.536-1327.3,2153.536Zm-26.295,138.5c0-20.666,15.278-31.2,29.41-31.2a28.945,28.945,0,0,1,25.5,15.341l22.132-10.245c-10.194-18.523-30.631-27.75-47.629-27.75-23.653,0-54.035,17.884-54.035,53.851,0,36.164,30.382,53.452,54.035,53.452,17.1,0,37.685-9.033,47.829-27.687l-22.132-10.564a29.108,29.108,0,0,1-25.7,15.6C-1338.321,2322.838-1353.6,2312.3-1353.6,2292.038Zm-108.094-107.3c0-20.667,15.3-31.2,29.41-31.2a28.973,28.973,0,0,1,25.5,15.341l22.132-10.245c-10.169-18.523-30.656-27.749-47.629-27.749-23.653,0-54.06,17.883-54.06,53.851,0,36.164,30.407,53.452,54.06,53.452,17.073,0,37.685-9.033,47.8-27.687l-22.132-10.564a29.014,29.014,0,0,1-25.672,15.6C-1446.39,2215.535-1461.693,2205-1461.693,2184.735Zm27.865,268.676c-23.677,0-54.06-17.884-54.06-53.851,0-36.164,30.382-53.452,54.06-53.452,23.628,0,54.01,17.288,54.01,53.452C-1379.819,2435.527-1410.2,2453.41-1433.828,2453.41Zm0-84.652c-13.932,0-29.211,10.533-29.211,30.8,0,20.666,15.278,31.2,29.211,31.2,14.107,0,29.41-10.531,29.41-31.2C-1404.418,2379.292-1419.721,2368.759-1433.828,2368.759Zm-159.038,31.2c0,36.163,30.407,53.452,54.035,53.452,17.1,0,37.685-9.034,47.829-27.688l-22.132-10.564a29.079,29.079,0,0,1-25.7,15.6c-14.082,0-29.41-10.533-29.41-30.8,0-20.667,15.328-31.2,29.41-31.2a28.917,28.917,0,0,1,25.5,15.341l22.132-10.245c-10.194-18.524-30.631-27.75-47.629-27.75C-1562.46,2346.107-1592.867,2363.991-1592.867,2399.959Zm52.464-161.772c-17.073,0-37.685,9.034-47.8,27.688l22.132,10.564a29.043,29.043,0,0,1,25.671-15.6c14.132,0,29.41,10.533,29.41,30.8,0,20.667-15.278,31.2-29.41,31.2a28.936,28.936,0,0,1-25.472-15.341l-22.132,10.245c10.169,18.524,30.631,27.75,47.6,27.75,23.678,0,54.06-17.884,54.06-53.851C-1486.343,2255.475-1516.725,2238.187-1540.4,2238.187Zm54.06-53.851c0-36.164-30.382-53.452-54.06-53.452-17.073,0-37.685,9.033-47.8,27.688l22.132,10.564a29.042,29.042,0,0,1,25.671-15.6c14.132,0,29.41,10.533,29.41,30.8,0,20.666-15.278,31.2-29.41,31.2a28.936,28.936,0,0,1-25.472-15.341l-22.132,10.246c10.169,18.523,30.631,27.749,47.6,27.749C-1516.725,2238.187-1486.343,2220.3-1486.343,2184.336ZM-1327.3,2453.41c23.653,0,54.06-17.884,54.06-53.851,0-36.164-30.407-53.452-54.06-53.452-17.073,0-37.71,9.033-47.829,27.687l22.132,10.564a29.08,29.08,0,0,1,25.7-15.6c14.107,0,29.41,10.533,29.41,30.8,0,20.666-15.3,31.2-29.41,31.2a28.974,28.974,0,0,1-25.5-15.341l-22.157,10.245C-1364.765,2444.184-1344.277,2453.41-1327.3,2453.41Zm215.391-215.224c23.677,0,54.06,17.289,54.06,53.451,0,35.968-30.382,53.851-54.06,53.851-23.628,0-54.06-17.884-54.06-53.851C-1165.973,2255.475-1135.541,2238.187-1111.913,2238.187Zm0,84.65c14.107,0,29.41-10.532,29.41-31.2,0-20.267-15.3-30.8-29.41-30.8-13.907,0-29.211,10.533-29.211,30.8C-1141.124,2312.3-1125.821,2322.836-1111.913,2322.836Zm104.979-84.65c-23.628,0-54.035-17.883-54.035-53.851,0-36.164,30.407-53.452,54.035-53.452,23.653,0,54.06,17.288,54.06,53.452C-952.875,2220.3-983.282,2238.187-1006.935,2238.187Zm0-84.651c-13.883,0-29.211,10.533-29.211,30.8,0,20.666,15.328,31.2,29.211,31.2,14.107,0,29.41-10.531,29.41-31.2C-977.525,2164.068-992.828,2153.536-1006.935,2153.536Zm-26.27,138.5c0-20.666,15.3-31.2,29.41-31.2a28.908,28.908,0,0,1,25.472,15.341l22.132-10.245c-10.194-18.523-30.631-27.75-47.6-27.75-23.653,0-54.06,17.884-54.06,53.851,0,36.164,30.407,53.452,54.06,53.452,17.073,0,37.685-9.033,47.8-27.687l-22.132-10.564a29.043,29.043,0,0,1-25.671,15.6C-1017.9,2322.838-1033.2,2312.3-1033.2,2292.038Zm-108.119-107.3c0-20.667,15.3-31.2,29.41-31.2a29.011,29.011,0,0,1,25.522,15.341l22.132-10.245c-10.194-18.523-30.681-27.749-47.654-27.749-23.628,0-54.06,17.883-54.06,53.851,0,36.164,30.432,53.452,54.06,53.452,17.1,0,37.71-9.033,47.829-27.687l-22.107-10.564a29.143,29.143,0,0,1-25.721,15.6C-1126.02,2215.535-1141.323,2205-1141.323,2184.735Zm27.865,268.676c-23.628,0-54.06-17.884-54.06-53.851,0-36.164,30.432-53.452,54.06-53.452s54.06,17.288,54.06,53.452C-1059.4,2435.527-1089.831,2453.41-1113.459,2453.41Zm0-84.652c-13.907,0-29.21,10.533-29.21,30.8,0,20.666,15.3,31.2,29.21,31.2,14.107,0,29.41-10.531,29.41-31.2C-1084.049,2379.292-1099.352,2368.759-1113.459,2368.759Zm-159.038,31.2c0,36.163,30.407,53.452,54.06,53.452,17.073,0,37.71-9.034,47.8-27.688l-22.107-10.564a29.079,29.079,0,0,1-25.7,15.6c-14.107,0-29.41-10.533-29.41-30.8,0-20.667,15.3-31.2,29.41-31.2a28.974,28.974,0,0,1,25.5,15.341l22.132-10.245c-10.169-18.524-30.656-27.75-47.629-27.75C-1242.09,2346.107-1272.5,2363.991-1272.5,2399.959Zm52.514-161.772c-17.1,0-37.71,9.034-47.854,27.688l22.132,10.564a29.116,29.116,0,0,1,25.721-15.6c14.082,0,29.41,10.533,29.41,30.8,0,20.667-15.328,31.2-29.41,31.2A28.983,28.983,0,0,1-1245.5,2307.5l-22.132,10.245c10.194,18.524,30.656,27.75,47.654,27.75,23.628,0,54.01-17.884,54.01-53.851C-1165.973,2255.475-1196.355,2238.187-1219.983,2238.187Zm54.01-53.851c0-36.164-30.382-53.452-54.01-53.452-17.1,0-37.71,9.033-47.854,27.688l22.132,10.564a29.116,29.116,0,0,1,25.721-15.6c14.082,0,29.41,10.533,29.41,30.8,0,20.666-15.328,31.2-29.41,31.2a28.983,28.983,0,0,1-25.522-15.341l-22.132,10.246c10.194,18.523,30.656,27.749,47.654,27.749C-1196.355,2238.187-1165.973,2220.3-1165.973,2184.336Zm159.038,269.074c23.653,0,54.06-17.884,54.06-53.851,0-36.164-30.407-53.452-54.06-53.452-17.073,0-37.685,9.033-47.8,27.687l22.132,10.564a29.015,29.015,0,0,1,25.672-15.6c14.107,0,29.41,10.533,29.41,30.8,0,20.666-15.3,31.2-29.41,31.2a28.908,28.908,0,0,1-25.472-15.341l-22.157,10.245C-1044.37,2444.184-1023.908,2453.41-1006.935,2453.41Z" transform="translate(2872.875 -2592.988)"/></g><rect class="e" width="1920" height="828" transform="translate(0 2695)"/></g></svg>