<svg xmlns="http://www.w3.org/2000/svg" width="402" height="66.999" viewBox="0 0 402 66.999"><defs><style>.a{fill:#0b0e14;}.b,.c{fill:#00a4cf;}.b{font-size:47px;font-family:Helvetica-Bold, Helvetica;font-weight:700;}</style></defs><g transform="translate(-356.999 -1177)"><path class="a" d="M-2001-6154v-10h102v4h263v2h-263v4Z" transform="translate(2358.999 7398)"/><text class="b" transform="translate(356.999 1213)"><tspan x="0" y="0" xml:space="preserve">CO-    </tspan><tspan class="a" y="0" xml:space="preserve">  SERVICES</tspan></text><g transform="translate(419.117 1150.616)"><g transform="translate(28.13 39.37)"><path class="c" d="M474.582,876.789a12.571,12.571,0,0,0-10.753,6.264l5,2.313a6.537,6.537,0,0,1,5.756-3.463,7.007,7.007,0,0,1,0,13.995,6.563,6.563,0,0,1-5.8-3.521l-4.994,2.385a12.512,12.512,0,0,0,10.794,6.25c5.337,0,12.2-3.9,12.2-12.065C486.782,880.826,479.919,876.789,474.582,876.789Z" transform="translate(-463.788 -876.789)"/></g><g transform="translate(28.566 29.384)"><path class="c" d="M472.316,822.049h0l.369-2.775H486.7l.609-5.023H468.068l-1.442,10.678-.1.893a15.522,15.522,0,0,1,5.744-3.391Z" transform="translate(-466.521 -814.25)"/></g><g transform="translate(54.902 39.37)"><path class="c" d="M642.257,876.789a12.572,12.572,0,0,0-10.753,6.264l5,2.313a6.536,6.536,0,0,1,5.756-3.463,7.007,7.007,0,0,1,0,13.995,6.563,6.563,0,0,1-5.8-3.521l-4.994,2.385a12.511,12.511,0,0,0,10.794,6.25c5.338,0,12.2-3.9,12.2-12.065C654.457,880.826,647.595,876.789,642.257,876.789Z" transform="translate(-631.463 -876.789)"/></g><g transform="translate(55.338 29.384)"><path class="c" d="M639.991,822.049h0l.369-2.775h14.009l.609-5.023H635.743L634.3,824.928l-.1.893a15.519,15.519,0,0,1,5.744-3.391Z" transform="translate(-634.196 -814.25)"/></g></g></g></svg>