<svg xmlns="http://www.w3.org/2000/svg" xmlns:xlink="http://www.w3.org/1999/xlink" width="1920" height="865" viewBox="0 0 1920 865"><defs><style>.a,.c{fill:#fff;}.b{opacity:0.02;clip-path:url(#a);}.c{opacity:0;}.d{fill:#2d3748;}.e{fill:url(#b);}.f{fill:#f7f8fb;mix-blend-mode:multiply;isolation:isolate;}</style><clipPath id="a"><rect class="a" width="1920" height="865"/></clipPath><linearGradient id="b" x1="0.5" x2="0.5" y2="1" gradientUnits="objectBoundingBox"><stop offset="0" stop-color="#f7f8fb" stop-opacity="0"/><stop offset="1" stop-color="#fcfdff"/></linearGradient></defs><g transform="translate(0 -2695)"><g class="b" transform="translate(0 2695)"><rect class="c" width="1920" height="1172.246"/><path class="d" d="M-2712.292,2238.8c-23.628,0-54.035,17.884-54.035,53.851,0,36.164,30.407,53.452,54.035,53.452,23.677,0,54.06-17.288,54.06-53.452C-2658.232,2256.689-2688.614,2238.8-2712.292,2238.8Zm0,84.651c-13.907,0-29.211-10.533-29.211-30.8,0-20.666,15.3-31.2,29.211-31.2,14.107,0,29.41,10.531,29.41,31.2C-2682.881,2312.923-2698.185,2323.456-2712.292,2323.456Zm159.039,76.5c0-35.968-30.407-53.851-54.06-53.851-23.628,0-54.035,17.884-54.035,53.851,0,36.164,30.407,53.451,54.035,53.451C-2583.66,2453.41-2553.253,2436.122-2553.253,2399.958Zm-54.06,30.8c-13.882,0-29.186-10.533-29.186-30.8,0-20.667,15.3-31.2,29.186-31.2,14.107,0,29.41,10.531,29.41,31.2C-2577.9,2420.226-2593.206,2430.759-2607.313,2430.759Zm-26.27-138.5c0,20.666,15.3,31.2,29.41,31.2a28.908,28.908,0,0,0,25.472-15.341l22.157,10.246c-10.194,18.523-30.656,27.749-47.629,27.749-23.653,0-54.06-17.883-54.06-53.851,0-36.164,30.407-53.452,54.06-53.452,17.073,0,37.685,9.033,47.8,27.688l-22.132,10.564a29.043,29.043,0,0,0-25.671-15.6C-2618.279,2261.457-2633.582,2271.99-2633.582,2292.257Zm-108.119,107.3c0,20.666,15.3,31.2,29.41,31.2a28.983,28.983,0,0,0,25.522-15.341l22.132,10.245c-10.194,18.524-30.681,27.75-47.654,27.75-23.628,0-54.035-17.884-54.035-53.85,0-36.164,30.407-53.452,54.035-53.452,17.1,0,37.71,9.034,47.829,27.688l-22.107,10.564a29.116,29.116,0,0,0-25.721-15.6C-2726.4,2368.759-2741.7,2379.292-2741.7,2399.56Zm27.865-161.373c23.653,0,54.06-17.288,54.06-53.452,0-35.968-30.407-53.851-54.06-53.851-23.628,0-54.06,17.884-54.06,53.851C-2767.9,2220.9-2737.464,2238.187-2713.837,2238.187Zm0-84.65c14.107,0,29.41,10.532,29.41,31.2,0,20.267-15.3,30.8-29.41,30.8-13.907,0-29.211-10.533-29.211-30.8C-2743.047,2164.069-2727.744,2153.537-2713.837,2153.537Zm-159.038,30.8c0-36.164,30.407-53.452,54.06-53.452,17.073,0,37.709,9.033,47.8,27.688l-22.107,10.563a29.08,29.08,0,0,0-25.7-15.6c-14.107,0-29.41,10.533-29.41,30.8,0,20.666,15.3,31.2,29.41,31.2a28.974,28.974,0,0,0,25.5-15.341l22.157,10.245c-10.194,18.524-30.681,27.75-47.654,27.75C-2842.468,2238.187-2872.875,2220.3-2872.875,2184.336Zm106.549,108.32c0,36.164-30.407,53.452-54.035,53.452-17.1,0-37.709-9.033-47.854-27.687l22.132-10.564a29.116,29.116,0,0,0,25.721,15.6c14.107,0,29.41-10.533,29.41-30.8,0-20.666-15.3-31.2-29.41-31.2a28.983,28.983,0,0,0-25.522,15.341l-22.132-10.245c10.194-18.524,30.656-27.75,47.654-27.75C-2796.733,2238.8-2766.326,2256.689-2766.326,2292.656Zm-54.035,53.452c23.628,0,54.035,17.884,54.035,53.851,0,36.164-30.407,53.451-54.035,53.451-17.1,0-37.709-9.033-47.854-27.687l22.132-10.564a29.117,29.117,0,0,0,25.721,15.6c14.107,0,29.41-10.533,29.41-30.8,0-20.667-15.3-31.2-29.41-31.2a28.983,28.983,0,0,0-25.522,15.341l-22.132-10.245C-2857.821,2355.333-2837.359,2346.107-2820.361,2346.107Zm267.108-161.372c0,36.164-30.407,53.452-54.06,53.452-17.073,0-37.66-9.033-47.8-27.687l22.132-10.564a29.043,29.043,0,0,0,25.671,15.6c14.107,0,29.41-10.533,29.41-30.8,0-20.667-15.3-31.2-29.41-31.2a28.909,28.909,0,0,0-25.472,15.342l-22.132-10.245c10.194-18.523,30.631-27.75,47.6-27.75C-2583.66,2130.884-2553.253,2148.768-2553.253,2184.735Zm161.356,54.07c-23.653,0-54.035,17.884-54.035,53.851,0,36.164,30.382,53.452,54.035,53.452s54.035-17.288,54.035-53.452C-2337.862,2256.689-2368.244,2238.8-2391.9,2238.8Zm0,84.651c-13.907,0-29.211-10.533-29.211-30.8,0-20.666,15.3-31.2,29.211-31.2,14.107,0,29.385,10.531,29.385,31.2C-2362.512,2312.923-2377.79,2323.456-2391.9,2323.456Zm104.979,22.652c-23.653,0-54.035,17.884-54.035,53.851,0,36.164,30.382,53.451,54.035,53.451s54.035-17.288,54.035-53.451C-2232.883,2363.991-2263.265,2346.107-2286.918,2346.107Zm0,84.651c-13.907,0-29.211-10.533-29.211-30.8,0-20.667,15.3-31.2,29.211-31.2,14.132,0,29.41,10.531,29.41,31.2C-2257.508,2420.226-2272.786,2430.759-2286.918,2430.759Zm-50.944-138.5c0-36.164,30.407-53.452,54.06-53.452,17.073,0,37.709,9.033,47.8,27.688l-22.107,10.564a29.08,29.08,0,0,0-25.7-15.6c-14.107,0-29.41,10.533-29.41,30.8,0,20.666,15.3,31.2,29.41,31.2a28.973,28.973,0,0,0,25.5-15.341l22.157,10.246c-10.194,18.523-30.681,27.749-47.654,27.749C-2307.455,2346.107-2337.862,2328.224-2337.862,2292.257Zm-83.445,107.3c0,20.666,15.278,31.2,29.41,31.2a28.945,28.945,0,0,0,25.5-15.341l22.132,10.245c-10.194,18.524-30.631,27.75-47.629,27.75-23.653,0-54.035-17.884-54.035-53.85,0-36.164,30.382-53.452,54.035-53.452,17.1,0,37.685,9.034,47.829,27.688l-22.132,10.564a29.079,29.079,0,0,0-25.7-15.6C-2406.029,2368.759-2421.307,2379.292-2421.307,2399.56Zm27.84-161.373c23.653,0,54.06-17.288,54.06-53.452,0-35.968-30.407-53.851-54.06-53.851-23.628,0-54.035,17.884-54.035,53.851C-2447.5,2220.9-2417.095,2238.187-2393.467,2238.187Zm0-84.65c14.107,0,29.41,10.532,29.41,31.2,0,20.267-15.3,30.8-29.41,30.8-13.907,0-29.21-10.533-29.21-30.8C-2422.677,2164.069-2407.375,2153.537-2393.467,2153.537Zm-159.013,30.8c0-36.164,30.407-53.452,54.035-53.452,17.1,0,37.71,9.033,47.829,27.688l-22.132,10.563a29.08,29.08,0,0,0-25.7-15.6c-14.107,0-29.41,10.533-29.41,30.8,0,20.666,15.3,31.2,29.41,31.2a29.011,29.011,0,0,0,25.522-15.341l22.132,10.245c-10.194,18.524-30.681,27.75-47.654,27.75C-2522.073,2238.187-2552.48,2220.3-2552.48,2184.336Zm106.549,108.32c0,36.164-30.432,53.452-54.06,53.452-17.1,0-37.685-9.033-47.8-27.687l22.107-10.564a29.079,29.079,0,0,0,25.7,15.6c14.107,0,29.41-10.533,29.41-30.8,0-20.666-15.3-31.2-29.41-31.2a29.011,29.011,0,0,0-25.522,15.341l-22.107-10.245c10.169-18.524,30.656-27.75,47.629-27.75C-2476.363,2238.8-2445.931,2256.689-2445.931,2292.656Zm-54.06,53.452c23.628,0,54.06,17.884,54.06,53.851,0,36.164-30.432,53.451-54.06,53.451-17.1,0-37.685-9.033-47.8-27.687l22.107-10.564a29.08,29.08,0,0,0,25.7,15.6c14.107,0,29.41-10.533,29.41-30.8,0-20.667-15.3-31.2-29.41-31.2a29.011,29.011,0,0,0-25.522,15.341l-22.107-10.245C-2537.451,2355.333-2516.964,2346.107-2499.991,2346.107Zm242.483-161.372c0-20.667-15.278-31.2-29.41-31.2a28.946,28.946,0,0,0-25.5,15.342l-22.132-10.245c10.194-18.523,30.631-27.75,47.629-27.75,23.653,0,54.035,17.884,54.035,53.851,0,36.164-30.382,53.452-54.035,53.452-17.1,0-37.685-9.033-47.829-27.687l22.132-10.564a29.079,29.079,0,0,0,25.7,15.6C-2272.786,2215.535-2257.508,2205-2257.508,2184.735Zm-454.783,376.6c-23.628,0-54.035,17.884-54.035,53.85,0,36.164,30.407,53.452,54.035,53.452,23.677,0,54.06-17.289,54.06-53.452C-2658.232,2579.215-2688.614,2561.331-2712.292,2561.331Zm0,84.651c-13.907,0-29.211-10.533-29.211-30.8,0-20.666,15.3-31.2,29.211-31.2,14.107,0,29.41,10.532,29.41,31.2C-2682.881,2635.449-2698.185,2645.982-2712.292,2645.982Zm159.039,76.5c0-35.967-30.407-53.85-54.06-53.85-23.628,0-54.035,17.883-54.035,53.85,0,36.164,30.407,53.452,54.035,53.452C-2583.66,2775.936-2553.253,2758.648-2553.253,2722.484Zm-54.06,30.8c-13.882,0-29.186-10.532-29.186-30.8,0-20.666,15.3-31.2,29.186-31.2,14.107,0,29.41,10.531,29.41,31.2C-2577.9,2742.752-2593.206,2753.284-2607.313,2753.284Zm-26.27-138.5c0,20.667,15.3,31.2,29.41,31.2a28.908,28.908,0,0,0,25.472-15.341l22.157,10.245c-10.194,18.523-30.656,27.75-47.629,27.75-23.653,0-54.06-17.884-54.06-53.851,0-36.164,30.407-53.451,54.06-53.451,17.073,0,37.685,9.033,47.8,27.687l-22.132,10.564a29.043,29.043,0,0,0-25.671-15.6C-2618.279,2583.982-2633.582,2594.516-2633.582,2614.782Zm-108.119,107.3c0,20.667,15.3,31.2,29.41,31.2a28.983,28.983,0,0,0,25.522-15.341l22.132,10.245c-10.194,18.523-30.681,27.749-47.654,27.749-23.628,0-54.035-17.884-54.035-53.851,0-36.164,30.407-53.452,54.035-53.452,17.1,0,37.71,9.033,47.829,27.687l-22.107,10.565a29.116,29.116,0,0,0-25.721-15.6C-2726.4,2691.285-2741.7,2701.818-2741.7,2722.085Zm27.865-268.676c-23.628,0-54.06,17.884-54.06,53.851,0,36.164,30.432,53.452,54.06,53.452,23.653,0,54.06-17.288,54.06-53.452C-2659.777,2471.294-2690.184,2453.41-2713.837,2453.41Zm0,84.652c-13.907,0-29.211-10.533-29.211-30.8,0-20.666,15.3-31.2,29.211-31.2,14.107,0,29.41,10.532,29.41,31.2C-2684.427,2527.528-2699.73,2538.062-2713.837,2538.062Zm-159.038-31.2c0-36.164,30.407-53.452,54.06-53.452,17.073,0,37.709,9.034,47.8,27.688l-22.107,10.564a29.079,29.079,0,0,0-25.7-15.6c-14.107,0-29.41,10.533-29.41,30.8,0,20.667,15.3,31.2,29.41,31.2a28.973,28.973,0,0,0,25.5-15.341l22.157,10.245c-10.194,18.524-30.681,27.75-47.654,27.75C-2842.468,2560.713-2872.875,2542.829-2872.875,2506.862Zm106.549,108.32c0,36.164-30.407,53.452-54.035,53.452-17.1,0-37.709-9.034-47.854-27.688l22.132-10.564a29.117,29.117,0,0,0,25.721,15.6c14.107,0,29.41-10.533,29.41-30.8,0-20.666-15.3-31.2-29.41-31.2a28.983,28.983,0,0,0-25.522,15.341l-22.132-10.245c10.194-18.523,30.656-27.749,47.654-27.749C-2796.733,2561.331-2766.326,2579.215-2766.326,2615.181Zm-54.035,53.452c23.628,0,54.035,17.883,54.035,53.85,0,36.164-30.407,53.452-54.035,53.452-17.1,0-37.709-9.033-47.854-27.687l22.132-10.564a29.116,29.116,0,0,0,25.721,15.6c14.107,0,29.41-10.532,29.41-30.8,0-20.666-15.3-31.2-29.41-31.2a28.983,28.983,0,0,0-25.522,15.341l-22.132-10.246C-2857.821,2677.859-2837.359,2668.634-2820.361,2668.634Zm213.048-215.224c23.653,0,54.06,17.884,54.06,53.851,0,36.164-30.407,53.452-54.06,53.452-17.073,0-37.66-9.033-47.8-27.687l22.132-10.564a29.043,29.043,0,0,0,25.671,15.6c14.107,0,29.41-10.533,29.41-30.8,0-20.666-15.3-31.2-29.41-31.2a28.909,28.909,0,0,0-25.472,15.342l-22.132-10.245C-2644.723,2462.636-2624.286,2453.41-2607.313,2453.41Zm215.416,215.224c23.653,0,54.035-17.289,54.035-53.452,0-35.967-30.382-53.85-54.035-53.85s-54.035,17.884-54.035,53.85C-2445.931,2651.345-2415.549,2668.634-2391.9,2668.634Zm0-84.65c14.107,0,29.385,10.532,29.385,31.2,0,20.268-15.278,30.8-29.385,30.8-13.907,0-29.211-10.533-29.211-30.8C-2421.107,2594.516-2405.8,2583.984-2391.9,2583.984Zm159.013,138.5c0-35.967-30.382-53.85-54.035-53.85s-54.035,17.883-54.035,53.85c0,36.164,30.382,53.452,54.035,53.452S-2232.883,2758.648-2232.883,2722.484Zm-54.035,30.8c-13.907,0-29.211-10.532-29.211-30.8,0-20.666,15.3-31.2,29.211-31.2,14.132,0,29.41,10.531,29.41,31.2C-2257.508,2742.752-2272.786,2753.284-2286.918,2753.284Zm-26.295-138.5c0,20.667,15.3,31.2,29.41,31.2a28.973,28.973,0,0,0,25.5-15.341l22.157,10.245c-10.194,18.523-30.681,27.75-47.654,27.75-23.653,0-54.06-17.884-54.06-53.851,0-36.164,30.407-53.451,54.06-53.451,17.073,0,37.709,9.033,47.8,27.687l-22.107,10.564a29.08,29.08,0,0,0-25.7-15.6C-2297.909,2583.982-2313.213,2594.516-2313.213,2614.782Zm-108.094,107.3c0,20.667,15.278,31.2,29.41,31.2a28.945,28.945,0,0,0,25.5-15.341l22.132,10.245c-10.194,18.523-30.631,27.749-47.629,27.749-23.653,0-54.035-17.884-54.035-53.851,0-36.164,30.382-53.452,54.035-53.452,17.1,0,37.685,9.033,47.829,27.687l-22.132,10.565a29.078,29.078,0,0,0-25.7-15.6C-2406.029,2691.285-2421.307,2701.818-2421.307,2722.085Zm27.84-161.373c23.653,0,54.06-17.288,54.06-53.452,0-35.968-30.407-53.851-54.06-53.851-23.628,0-54.035,17.884-54.035,53.851C-2447.5,2543.425-2417.095,2560.713-2393.467,2560.713Zm0-84.65c14.107,0,29.41,10.532,29.41,31.2,0,20.267-15.3,30.8-29.41,30.8-13.907,0-29.21-10.533-29.21-30.8C-2422.677,2486.595-2407.375,2476.063-2393.467,2476.063Zm-159.013,30.8c0-36.164,30.407-53.452,54.035-53.452,17.1,0,37.71,9.034,47.829,27.688l-22.132,10.564a29.079,29.079,0,0,0-25.7-15.6c-14.107,0-29.41,10.533-29.41,30.8,0,20.667,15.3,31.2,29.41,31.2a29.011,29.011,0,0,0,25.522-15.341l22.132,10.245c-10.194,18.524-30.681,27.75-47.654,27.75C-2522.073,2560.713-2552.48,2542.829-2552.48,2506.862Zm52.49,161.772c-17.1,0-37.685-9.034-47.8-27.688l22.107-10.564a29.08,29.08,0,0,0,25.7,15.6c14.107,0,29.41-10.533,29.41-30.8,0-20.666-15.3-31.2-29.41-31.2a29.011,29.011,0,0,0-25.522,15.341l-22.107-10.245c10.169-18.523,30.656-27.749,47.629-27.749,23.628,0,54.06,17.884,54.06,53.85C-2445.931,2651.345-2476.363,2668.634-2499.991,2668.634Zm29.41,53.85c0-20.666-15.3-31.2-29.41-31.2a29.011,29.011,0,0,0-25.522,15.341l-22.107-10.246c10.169-18.523,30.656-27.749,47.629-27.749,23.628,0,54.06,17.883,54.06,53.85,0,36.164-30.432,53.452-54.06,53.452-17.1,0-37.685-9.033-47.8-27.687l22.107-10.564a29.079,29.079,0,0,0,25.7,15.6C-2485.884,2753.284-2470.581,2742.752-2470.581,2722.484Zm183.663-269.074c23.653,0,54.035,17.884,54.035,53.851,0,36.164-30.382,53.452-54.035,53.452-17.1,0-37.685-9.033-47.829-27.687l22.132-10.564a29.08,29.08,0,0,0,25.7,15.6c14.132,0,29.41-10.533,29.41-30.8,0-20.666-15.278-31.2-29.41-31.2a28.947,28.947,0,0,0-25.5,15.342l-22.132-10.245C-2324.354,2462.636-2303.916,2453.41-2286.918,2453.41Zm-425.374,430.447c-23.628,0-54.035,17.884-54.035,53.851,0,36.163,30.407,53.452,54.035,53.452,23.677,0,54.06-17.289,54.06-53.452C-2658.232,2901.741-2688.614,2883.857-2712.292,2883.857Zm0,84.65c-13.907,0-29.211-10.532-29.211-30.8,0-20.667,15.3-31.2,29.211-31.2,14.107,0,29.41,10.531,29.41,31.2C-2682.881,2957.975-2698.185,2968.507-2712.292,2968.507Zm159.039,76.5c0-35.968-30.407-53.85-54.06-53.85-23.628,0-54.035,17.883-54.035,53.85,0,36.164,30.407,53.451,54.035,53.451C-2583.66,3098.461-2553.253,3081.174-2553.253,3045.01Zm-54.06,30.8c-13.882,0-29.186-10.532-29.186-30.8,0-20.667,15.3-31.2,29.186-31.2,14.107,0,29.41,10.531,29.41,31.2C-2577.9,3065.278-2593.206,3075.81-2607.313,3075.81Zm-26.27-138.5c0,20.666,15.3,31.2,29.41,31.2a28.908,28.908,0,0,0,25.472-15.341l22.157,10.246c-10.194,18.523-30.656,27.75-47.629,27.75-23.653,0-54.06-17.884-54.06-53.851,0-36.164,30.407-53.452,54.06-53.452,17.073,0,37.685,9.033,47.8,27.687l-22.132,10.564a29.043,29.043,0,0,0-25.671-15.6C-2618.279,2906.509-2633.582,2917.041-2633.582,2937.309Zm-108.119,107.3c0,20.666,15.3,31.2,29.41,31.2a28.983,28.983,0,0,0,25.522-15.341l22.132,10.246c-10.194,18.523-30.681,27.748-47.654,27.748-23.628,0-54.035-17.883-54.035-53.85,0-36.164,30.407-53.452,54.035-53.452,17.1,0,37.71,9.033,47.829,27.687l-22.107,10.564a29.117,29.117,0,0,0-25.721-15.6C-2726.4,3013.811-2741.7,3024.344-2741.7,3044.612Zm27.865-268.676c-23.628,0-54.06,17.884-54.06,53.851,0,36.164,30.432,53.452,54.06,53.452,23.653,0,54.06-17.288,54.06-53.452C-2659.777,2793.82-2690.184,2775.936-2713.837,2775.936Zm0,84.651c-13.907,0-29.211-10.533-29.211-30.8,0-20.667,15.3-31.2,29.211-31.2,14.107,0,29.41,10.531,29.41,31.2C-2684.427,2850.054-2699.73,2860.587-2713.837,2860.587Zm-159.038-31.2c0-36.163,30.407-53.452,54.06-53.452,17.073,0,37.709,9.034,47.8,27.688l-22.107,10.564a29.079,29.079,0,0,0-25.7-15.6c-14.107,0-29.41,10.532-29.41,30.8,0,20.666,15.3,31.2,29.41,31.2a28.973,28.973,0,0,0,25.5-15.341l22.157,10.245c-10.194,18.524-30.681,27.749-47.654,27.749C-2842.468,2883.239-2872.875,2865.355-2872.875,2829.388Zm106.549,108.32c0,36.163-30.407,53.452-54.035,53.452-17.1,0-37.709-9.034-47.854-27.688l22.132-10.563a29.116,29.116,0,0,0,25.721,15.6c14.107,0,29.41-10.532,29.41-30.8,0-20.667-15.3-31.2-29.41-31.2a28.983,28.983,0,0,0-25.522,15.341l-22.132-10.245c10.194-18.524,30.656-27.75,47.654-27.75C-2796.733,2883.857-2766.326,2901.741-2766.326,2937.708Zm-54.035,53.452c23.628,0,54.035,17.883,54.035,53.85,0,36.164-30.407,53.451-54.035,53.451-17.1,0-37.709-9.033-47.854-27.687l22.132-10.565a29.115,29.115,0,0,0,25.721,15.6c14.107,0,29.41-10.532,29.41-30.8,0-20.667-15.3-31.2-29.41-31.2a28.983,28.983,0,0,0-25.522,15.341l-22.132-10.245C-2857.821,3000.385-2837.359,2991.16-2820.361,2991.16Zm213.048-215.224c23.653,0,54.06,17.884,54.06,53.851,0,36.164-30.407,53.452-54.06,53.452-17.073,0-37.66-9.033-47.8-27.687l22.132-10.564a29.043,29.043,0,0,0,25.671,15.6c14.107,0,29.41-10.533,29.41-30.8,0-20.667-15.3-31.2-29.41-31.2a28.909,28.909,0,0,0-25.472,15.342l-22.132-10.246C-2644.723,2785.162-2624.286,2775.936-2607.313,2775.936Zm215.416,107.921c-23.653,0-54.035,17.884-54.035,53.851,0,36.163,30.382,53.452,54.035,53.452s54.035-17.289,54.035-53.452C-2337.862,2901.741-2368.244,2883.857-2391.9,2883.857Zm0,84.65c-13.907,0-29.211-10.532-29.211-30.8,0-20.667,15.3-31.2,29.211-31.2,14.107,0,29.385,10.531,29.385,31.2C-2362.512,2957.975-2377.79,2968.507-2391.9,2968.507Zm159.013,76.5c0-35.968-30.382-53.85-54.035-53.85s-54.035,17.883-54.035,53.85c0,36.164,30.382,53.451,54.035,53.451S-2232.883,3081.174-2232.883,3045.01Zm-54.035,30.8c-13.907,0-29.211-10.532-29.211-30.8,0-20.667,15.3-31.2,29.211-31.2,14.132,0,29.41,10.531,29.41,31.2C-2257.508,3065.278-2272.786,3075.81-2286.918,3075.81Zm-26.295-138.5c0,20.666,15.3,31.2,29.41,31.2a28.973,28.973,0,0,0,25.5-15.341l22.157,10.246c-10.194,18.523-30.681,27.75-47.654,27.75-23.653,0-54.06-17.884-54.06-53.851,0-36.164,30.407-53.452,54.06-53.452,17.073,0,37.709,9.033,47.8,27.687l-22.107,10.564a29.08,29.08,0,0,0-25.7-15.6C-2297.909,2906.509-2313.213,2917.041-2313.213,2937.309Zm-108.094,107.3c0,20.666,15.278,31.2,29.41,31.2a28.945,28.945,0,0,0,25.5-15.341l22.132,10.246c-10.194,18.523-30.631,27.748-47.629,27.748-23.653,0-54.035-17.883-54.035-53.85,0-36.164,30.382-53.452,54.035-53.452,17.1,0,37.685,9.033,47.829,27.687l-22.132,10.564a29.079,29.079,0,0,0-25.7-15.6C-2406.029,3013.811-2421.307,3024.344-2421.307,3044.612Zm27.84-161.373c23.653,0,54.06-17.288,54.06-53.452,0-35.968-30.407-53.851-54.06-53.851-23.628,0-54.035,17.884-54.035,53.851C-2447.5,2865.951-2417.095,2883.239-2393.467,2883.239Zm0-84.65c14.107,0,29.41,10.531,29.41,31.2,0,20.267-15.3,30.8-29.41,30.8-13.907,0-29.21-10.533-29.21-30.8C-2422.677,2809.121-2407.375,2798.589-2393.467,2798.589Zm-159.013,30.8c0-36.163,30.407-53.452,54.035-53.452,17.1,0,37.71,9.034,47.829,27.688l-22.132,10.564a29.079,29.079,0,0,0-25.7-15.6c-14.107,0-29.41,10.532-29.41,30.8,0,20.666,15.3,31.2,29.41,31.2a29.011,29.011,0,0,0,25.522-15.341l22.132,10.245c-10.194,18.524-30.681,27.749-47.654,27.749C-2522.073,2883.239-2552.48,2865.355-2552.48,2829.388Zm106.549,108.32c0,36.163-30.432,53.452-54.06,53.452-17.1,0-37.685-9.034-47.8-27.688l22.107-10.563a29.079,29.079,0,0,0,25.7,15.6c14.107,0,29.41-10.532,29.41-30.8,0-20.667-15.3-31.2-29.41-31.2a29.011,29.011,0,0,0-25.522,15.341l-22.107-10.245c10.169-18.524,30.656-27.75,47.629-27.75C-2476.363,2883.857-2445.931,2901.741-2445.931,2937.708Zm-54.06,53.452c23.628,0,54.06,17.883,54.06,53.85,0,36.164-30.432,53.451-54.06,53.451-17.1,0-37.685-9.033-47.8-27.687l22.107-10.565a29.078,29.078,0,0,0,25.7,15.6c14.107,0,29.41-10.532,29.41-30.8,0-20.667-15.3-31.2-29.41-31.2a29.011,29.011,0,0,0-25.522,15.341l-22.107-10.245C-2537.451,3000.385-2516.964,2991.16-2499.991,2991.16Zm213.073-215.224c23.653,0,54.035,17.884,54.035,53.851,0,36.164-30.382,53.452-54.035,53.452-17.1,0-37.685-9.033-47.829-27.687l22.132-10.564a29.079,29.079,0,0,0,25.7,15.6c14.132,0,29.41-10.533,29.41-30.8,0-20.667-15.278-31.2-29.41-31.2a28.946,28.946,0,0,0-25.5,15.342l-22.132-10.246C-2324.354,2785.162-2303.916,2775.936-2286.918,2775.936Zm-425.374,537.749c23.677,0,54.06-17.289,54.06-53.451,0-35.968-30.382-53.851-54.06-53.851-23.628,0-54.035,17.884-54.035,53.851C-2766.326,3296.4-2735.919,3313.685-2712.292,3313.685Zm0-84.65c14.107,0,29.41,10.532,29.41,31.2,0,20.267-15.3,30.8-29.41,30.8-13.907,0-29.211-10.533-29.211-30.8C-2741.5,3239.567-2726.2,3229.036-2712.292,3229.036Zm104.979,84.65c-23.628,0-54.035,17.883-54.035,53.851,0,36.164,30.407,53.452,54.035,53.452,23.653,0,54.06-17.288,54.06-53.452C-2553.253,3331.568-2583.66,3313.685-2607.313,3313.685Zm0,84.651c-13.882,0-29.186-10.533-29.186-30.8,0-20.666,15.3-31.2,29.186-31.2,14.107,0,29.41,10.531,29.41,31.2C-2577.9,3387.8-2593.206,3398.336-2607.313,3398.336Zm-26.27-138.5c0,20.666,15.3,31.2,29.41,31.2a28.908,28.908,0,0,0,25.472-15.341l22.157,10.245c-10.194,18.523-30.656,27.75-47.629,27.75-23.653,0-54.06-17.884-54.06-53.851,0-36.164,30.407-53.452,54.06-53.452,17.073,0,37.685,9.033,47.8,27.687l-22.132,10.564a29.043,29.043,0,0,0-25.671-15.6C-2618.279,3229.034-2633.582,3239.567-2633.582,3259.834Zm-108.119,107.3c0,20.667,15.3,31.2,29.41,31.2a28.983,28.983,0,0,0,25.522-15.341l22.132,10.245c-10.194,18.523-30.681,27.749-47.654,27.749-23.628,0-54.035-17.883-54.035-53.851,0-36.164,30.407-53.452,54.035-53.452,17.1,0,37.71,9.033,47.829,27.688l-22.107,10.564a29.116,29.116,0,0,0-25.721-15.6C-2726.4,3336.337-2741.7,3346.87-2741.7,3367.137Zm27.865-268.676c-23.628,0-54.06,17.884-54.06,53.851,0,36.164,30.432,53.452,54.06,53.452,23.653,0,54.06-17.288,54.06-53.452C-2659.777,3116.345-2690.184,3098.461-2713.837,3098.461Zm0,84.652c-13.907,0-29.211-10.533-29.211-30.8,0-20.666,15.3-31.2,29.211-31.2,14.107,0,29.41,10.531,29.41,31.2C-2684.427,3172.58-2699.73,3183.113-2713.837,3183.113Zm-159.038-31.2c0-36.163,30.407-53.452,54.06-53.452,17.073,0,37.709,9.034,47.8,27.688l-22.107,10.564a29.079,29.079,0,0,0-25.7-15.6c-14.107,0-29.41,10.533-29.41,30.8,0,20.667,15.3,31.2,29.41,31.2a28.974,28.974,0,0,0,25.5-15.341l22.157,10.245c-10.194,18.524-30.681,27.75-47.654,27.75C-2842.468,3205.764-2872.875,3187.881-2872.875,3151.913Zm52.514,161.772c-17.1,0-37.709-9.034-47.854-27.688l22.132-10.564a29.117,29.117,0,0,0,25.721,15.6c14.107,0,29.41-10.533,29.41-30.8,0-20.667-15.3-31.2-29.41-31.2a28.983,28.983,0,0,0-25.522,15.341l-22.132-10.245c10.194-18.524,30.656-27.75,47.654-27.75,23.628,0,54.035,17.884,54.035,53.851C-2766.326,3296.4-2796.733,3313.685-2820.361,3313.685Zm54.035,53.851c0,36.164-30.407,53.452-54.035,53.452-17.1,0-37.709-9.033-47.854-27.687l22.132-10.564a29.116,29.116,0,0,0,25.721,15.6c14.107,0,29.41-10.533,29.41-30.8,0-20.666-15.3-31.2-29.41-31.2a28.983,28.983,0,0,0-25.522,15.341l-22.132-10.246c10.194-18.523,30.656-27.749,47.654-27.749C-2796.733,3313.685-2766.326,3331.568-2766.326,3367.536Zm159.013-269.074c23.653,0,54.06,17.884,54.06,53.851,0,36.164-30.407,53.452-54.06,53.452-17.073,0-37.66-9.033-47.8-27.687l22.132-10.564a29.043,29.043,0,0,0,25.671,15.6c14.107,0,29.41-10.533,29.41-30.8,0-20.666-15.3-31.2-29.41-31.2a28.908,28.908,0,0,0-25.472,15.341l-22.132-10.245C-2644.723,3107.688-2624.286,3098.461-2607.313,3098.461Zm215.416,215.224c23.653,0,54.035-17.289,54.035-53.451,0-35.968-30.382-53.851-54.035-53.851s-54.035,17.884-54.035,53.851C-2445.931,3296.4-2415.549,3313.685-2391.9,3313.685Zm0-84.65c14.107,0,29.385,10.532,29.385,31.2,0,20.267-15.278,30.8-29.385,30.8-13.907,0-29.211-10.533-29.211-30.8C-2421.107,3239.567-2405.8,3229.036-2391.9,3229.036Zm104.979,84.65c-23.653,0-54.035,17.883-54.035,53.851,0,36.164,30.382,53.452,54.035,53.452s54.035-17.288,54.035-53.452C-2232.883,3331.568-2263.265,3313.685-2286.918,3313.685Zm0,84.651c-13.907,0-29.211-10.533-29.211-30.8,0-20.666,15.3-31.2,29.211-31.2,14.132,0,29.41,10.531,29.41,31.2C-2257.508,3387.8-2272.786,3398.336-2286.918,3398.336Zm-26.295-138.5c0,20.666,15.3,31.2,29.41,31.2a28.973,28.973,0,0,0,25.5-15.341l22.157,10.245c-10.194,18.523-30.681,27.75-47.654,27.75-23.653,0-54.06-17.884-54.06-53.851,0-36.164,30.407-53.452,54.06-53.452,17.073,0,37.709,9.033,47.8,27.687l-22.107,10.564a29.08,29.08,0,0,0-25.7-15.6C-2297.909,3229.034-2313.213,3239.567-2313.213,3259.834Zm-108.094,107.3c0,20.667,15.278,31.2,29.41,31.2a28.945,28.945,0,0,0,25.5-15.341l22.132,10.245c-10.194,18.523-30.631,27.749-47.629,27.749-23.653,0-54.035-17.883-54.035-53.851,0-36.164,30.382-53.452,54.035-53.452,17.1,0,37.685,9.033,47.829,27.688l-22.132,10.564a29.078,29.078,0,0,0-25.7-15.6C-2406.029,3336.337-2421.307,3346.87-2421.307,3367.137Zm27.84-268.676c-23.628,0-54.035,17.884-54.035,53.851,0,36.164,30.407,53.452,54.035,53.452,23.653,0,54.06-17.288,54.06-53.452C-2339.407,3116.345-2369.814,3098.461-2393.467,3098.461Zm0,84.652c-13.907,0-29.21-10.533-29.21-30.8,0-20.666,15.3-31.2,29.21-31.2,14.107,0,29.41,10.531,29.41,31.2C-2364.057,3172.58-2379.36,3183.113-2393.467,3183.113Zm-159.013-31.2c0-36.163,30.407-53.452,54.035-53.452,17.1,0,37.71,9.034,47.829,27.688l-22.132,10.564a29.079,29.079,0,0,0-25.7-15.6c-14.107,0-29.41,10.533-29.41,30.8,0,20.667,15.3,31.2,29.41,31.2a29.011,29.011,0,0,0,25.522-15.341l22.132,10.245c-10.194,18.524-30.681,27.75-47.654,27.75C-2522.073,3205.764-2552.48,3187.881-2552.48,3151.913Zm52.49,161.772c-17.1,0-37.685-9.034-47.8-27.688l22.107-10.564a29.08,29.08,0,0,0,25.7,15.6c14.107,0,29.41-10.533,29.41-30.8,0-20.667-15.3-31.2-29.41-31.2a29.011,29.011,0,0,0-25.522,15.341l-22.107-10.245c10.169-18.524,30.656-27.75,47.629-27.75,23.628,0,54.06,17.884,54.06,53.851C-2445.931,3296.4-2476.363,3313.685-2499.991,3313.685Zm54.06,53.851c0,36.164-30.432,53.452-54.06,53.452-17.1,0-37.685-9.033-47.8-27.687l22.107-10.564a29.079,29.079,0,0,0,25.7,15.6c14.107,0,29.41-10.533,29.41-30.8,0-20.666-15.3-31.2-29.41-31.2a29.011,29.011,0,0,0-25.522,15.341l-22.107-10.246c10.169-18.523,30.656-27.749,47.629-27.749C-2476.363,3313.685-2445.931,3331.568-2445.931,3367.536Zm213.048-215.223c0,36.164-30.382,53.452-54.035,53.452-17.1,0-37.685-9.033-47.829-27.687l22.132-10.564a29.08,29.08,0,0,0,25.7,15.6c14.132,0,29.41-10.533,29.41-30.8,0-20.666-15.278-31.2-29.41-31.2a28.946,28.946,0,0,0-25.5,15.341l-22.132-10.245c10.194-18.523,30.631-27.75,47.629-27.75C-2263.265,3098.461-2232.883,3116.345-2232.883,3152.313Zm160.608-913.508c-23.653,0-54.06,17.884-54.06,53.851,0,36.164,30.407,53.452,54.06,53.452,23.628,0,54.035-17.288,54.035-53.452C-2018.24,2256.689-2048.647,2238.8-2072.275,2238.8Zm0,84.651c-13.907,0-29.21-10.533-29.21-30.8,0-20.666,15.3-31.2,29.21-31.2,14.082,0,29.41,10.531,29.41,31.2C-2042.865,2312.923-2058.193,2323.456-2072.275,2323.456Zm159.039,76.5c0-35.968-30.432-53.851-54.06-53.851-23.653,0-54.06,17.884-54.06,53.851,0,36.164,30.407,53.451,54.06,53.451C-1943.668,2453.41-1913.236,2436.122-1913.236,2399.958Zm-54.06,30.8c-13.907,0-29.211-10.533-29.211-30.8,0-20.667,15.3-31.2,29.211-31.2,14.107,0,29.41,10.531,29.41,31.2C-1937.886,2420.226-1953.189,2430.759-1967.3,2430.759Zm-26.295-138.5c0,20.666,15.278,31.2,29.41,31.2a28.973,28.973,0,0,0,25.5-15.341l22.132,10.246c-10.194,18.523-30.656,27.749-47.629,27.749-23.653,0-54.06-17.883-54.06-53.851,0-36.164,30.407-53.452,54.06-53.452,17.1,0,37.685,9.033,47.8,27.688l-22.132,10.564a29.043,29.043,0,0,0-25.671-15.6C-1978.312,2261.457-1993.591,2271.99-1993.591,2292.257Zm-108.119,107.3c0,20.666,15.328,31.2,29.41,31.2a28.983,28.983,0,0,0,25.522-15.341l22.132,10.245c-10.194,18.524-30.656,27.75-47.654,27.75-23.628,0-54.035-17.884-54.035-53.85,0-36.164,30.407-53.452,54.035-53.452,17.1,0,37.71,9.034,47.829,27.688l-22.107,10.564a29.116,29.116,0,0,0-25.721-15.6C-2086.382,2368.759-2101.71,2379.292-2101.71,2399.56Zm27.865-161.373c23.653,0,54.06-17.288,54.06-53.452,0-35.968-30.407-53.851-54.06-53.851-23.628,0-54.035,17.884-54.035,53.851C-2127.88,2220.9-2097.473,2238.187-2073.845,2238.187Zm0-84.65c14.107,0,29.41,10.532,29.41,31.2,0,20.267-15.3,30.8-29.41,30.8-13.907,0-29.211-10.533-29.211-30.8C-2103.056,2164.069-2087.752,2153.537-2073.845,2153.537Zm-159.038,30.8c0-36.164,30.432-53.452,54.06-53.452,17.1,0,37.685,9.033,47.8,27.688l-22.107,10.563a29.051,29.051,0,0,0-25.7-15.6c-14.107,0-29.41,10.533-29.41,30.8,0,20.666,15.3,31.2,29.41,31.2a28.946,28.946,0,0,0,25.5-15.341l22.132,10.245c-10.169,18.524-30.656,27.75-47.629,27.75C-2202.451,2238.187-2232.883,2220.3-2232.883,2184.336Zm106.549,108.32c0,36.164-30.407,53.452-54.035,53.452-17.1,0-37.709-9.033-47.829-27.687l22.132-10.564a29.079,29.079,0,0,0,25.7,15.6c14.107,0,29.385-10.533,29.385-30.8,0-20.666-15.278-31.2-29.385-31.2a29.01,29.01,0,0,0-25.522,15.341l-22.132-10.245c10.194-18.524,30.681-27.75,47.654-27.75C-2156.741,2238.8-2126.334,2256.689-2126.334,2292.656Zm-54.035,53.452c23.628,0,54.035,17.884,54.035,53.851,0,36.164-30.407,53.451-54.035,53.451-17.1,0-37.709-9.033-47.829-27.687l22.132-10.564a29.08,29.08,0,0,0,25.7,15.6c14.107,0,29.385-10.533,29.385-30.8,0-20.667-15.278-31.2-29.385-31.2a29.011,29.011,0,0,0-25.522,15.341l-22.132-10.245C-2217.829,2355.333-2197.342,2346.107-2180.369,2346.107Zm267.133-161.372c0,36.164-30.432,53.452-54.06,53.452-17.1,0-37.71-9.033-47.8-27.687l22.107-10.564a29.052,29.052,0,0,0,25.7,15.6c14.107,0,29.41-10.533,29.41-30.8,0-20.667-15.3-31.2-29.41-31.2a28.983,28.983,0,0,0-25.522,15.342l-22.107-10.245c10.169-18.523,30.631-27.75,47.629-27.75C-1943.668,2130.884-1913.236,2148.768-1913.236,2184.735Zm161.331,54.07c-23.653,0-54.035,17.884-54.035,53.851,0,36.164,30.382,53.452,54.035,53.452s54.06-17.288,54.06-53.452C-1697.845,2256.689-1728.252,2238.8-1751.905,2238.8Zm0,84.651c-13.907,0-29.211-10.533-29.211-30.8,0-20.666,15.3-31.2,29.211-31.2,14.132,0,29.41,10.531,29.41,31.2C-1722.5,2312.923-1737.773,2323.456-1751.905,2323.456Zm104.979,22.652c-23.628,0-54.06,17.884-54.06,53.851,0,36.164,30.432,53.451,54.06,53.451,23.653,0,54.06-17.288,54.06-53.451C-1592.867,2363.991-1623.274,2346.107-1646.926,2346.107Zm0,84.651c-13.907,0-29.211-10.533-29.211-30.8,0-20.667,15.3-31.2,29.211-31.2,14.107,0,29.41,10.531,29.41,31.2C-1617.516,2420.226-1632.82,2430.759-1646.926,2430.759Zm-50.919-138.5c0-36.164,30.407-53.452,54.035-53.452,17.1,0,37.685,9.033,47.8,27.688l-22.107,10.564a29.052,29.052,0,0,0-25.7-15.6c-14.107,0-29.41,10.533-29.41,30.8,0,20.666,15.3,31.2,29.41,31.2a28.917,28.917,0,0,0,25.5-15.341l22.132,10.246c-10.169,18.523-30.631,27.749-47.629,27.749C-1667.438,2346.107-1697.845,2328.224-1697.845,2292.257Zm-83.47,107.3c0,20.666,15.3,31.2,29.41,31.2a28.973,28.973,0,0,0,25.5-15.341l22.157,10.245c-10.194,18.524-30.681,27.75-47.654,27.75-23.653,0-54.035-17.884-54.035-53.85,0-36.164,30.382-53.452,54.035-53.452,17.073,0,37.709,9.034,47.829,27.688l-22.132,10.564a29.079,29.079,0,0,0-25.7-15.6C-1766.012,2368.759-1781.315,2379.292-1781.315,2399.56Zm27.865-161.373c23.628,0,54.035-17.288,54.035-53.452,0-35.968-30.407-53.851-54.035-53.851-23.653,0-54.06,17.884-54.06,53.851C-1807.51,2220.9-1777.1,2238.187-1753.45,2238.187Zm0-84.65c14.107,0,29.41,10.532,29.41,31.2,0,20.267-15.3,30.8-29.41,30.8-13.907,0-29.21-10.533-29.21-30.8C-1782.661,2164.069-1767.358,2153.537-1753.45,2153.537Zm-159.038,30.8c0-36.164,30.407-53.452,54.035-53.452,17.1,0,37.71,9.033,47.854,27.688l-22.132,10.563a29.117,29.117,0,0,0-25.721-15.6c-14.107,0-29.41,10.533-29.41,30.8,0,20.666,15.3,31.2,29.41,31.2a28.983,28.983,0,0,0,25.522-15.341l22.132,10.245c-10.194,18.524-30.656,27.75-47.654,27.75C-1882.082,2238.187-1912.489,2220.3-1912.489,2184.336Zm106.549,108.32c0,36.164-30.407,53.452-54.06,53.452-17.073,0-37.71-9.033-47.8-27.687l22.107-10.564a29.079,29.079,0,0,0,25.7,15.6c14.107,0,29.41-10.533,29.41-30.8,0-20.666-15.3-31.2-29.41-31.2a28.973,28.973,0,0,0-25.5,15.341l-22.157-10.245c10.194-18.524,30.681-27.75,47.654-27.75C-1836.347,2238.8-1805.94,2256.689-1805.94,2292.656Zm-54.06,53.452c23.653,0,54.06,17.884,54.06,53.851,0,36.164-30.407,53.451-54.06,53.451-17.073,0-37.71-9.033-47.8-27.687l22.107-10.564a29.08,29.08,0,0,0,25.7,15.6c14.107,0,29.41-10.533,29.41-30.8,0-20.667-15.3-31.2-29.41-31.2a28.974,28.974,0,0,0-25.5,15.341l-22.157-10.245C-1897.46,2355.333-1876.972,2346.107-1860,2346.107Zm242.483-161.372c0-20.667-15.3-31.2-29.41-31.2a28.974,28.974,0,0,0-25.5,15.342l-22.132-10.245c10.194-18.523,30.656-27.75,47.629-27.75,23.653,0,54.06,17.884,54.06,53.851,0,36.164-30.407,53.452-54.06,53.452-17.1,0-37.685-9.033-47.8-27.687l22.132-10.564a29.042,29.042,0,0,0,25.671,15.6C-1632.82,2215.535-1617.516,2205-1617.516,2184.735Zm-454.759,376.6c-23.653,0-54.06,17.884-54.06,53.85,0,36.164,30.407,53.452,54.06,53.452,23.628,0,54.035-17.289,54.035-53.452C-2018.24,2579.215-2048.647,2561.331-2072.275,2561.331Zm0,84.651c-13.907,0-29.21-10.533-29.21-30.8,0-20.666,15.3-31.2,29.21-31.2,14.082,0,29.41,10.532,29.41,31.2C-2042.865,2635.449-2058.193,2645.982-2072.275,2645.982Zm159.039,76.5c0-35.967-30.432-53.85-54.06-53.85-23.653,0-54.06,17.883-54.06,53.85,0,36.164,30.407,53.452,54.06,53.452C-1943.668,2775.936-1913.236,2758.648-1913.236,2722.484Zm-54.06,30.8c-13.907,0-29.211-10.532-29.211-30.8,0-20.666,15.3-31.2,29.211-31.2,14.107,0,29.41,10.531,29.41,31.2C-1937.886,2742.752-1953.189,2753.284-1967.3,2753.284Zm-26.295-138.5c0,20.667,15.278,31.2,29.41,31.2a28.973,28.973,0,0,0,25.5-15.341l22.132,10.245c-10.194,18.523-30.656,27.75-47.629,27.75-23.653,0-54.06-17.884-54.06-53.851,0-36.164,30.407-53.451,54.06-53.451,17.1,0,37.685,9.033,47.8,27.687l-22.132,10.564a29.043,29.043,0,0,0-25.671-15.6C-1978.312,2583.982-1993.591,2594.516-1993.591,2614.782Zm-108.119,107.3c0,20.667,15.328,31.2,29.41,31.2a28.982,28.982,0,0,0,25.522-15.341l22.132,10.245c-10.194,18.523-30.656,27.749-47.654,27.749-23.628,0-54.035-17.884-54.035-53.851,0-36.164,30.407-53.452,54.035-53.452,17.1,0,37.71,9.033,47.829,27.687l-22.107,10.565a29.116,29.116,0,0,0-25.721-15.6C-2086.382,2691.285-2101.71,2701.818-2101.71,2722.085Zm27.865-268.676c-23.628,0-54.035,17.884-54.035,53.851,0,36.164,30.407,53.452,54.035,53.452,23.653,0,54.06-17.288,54.06-53.452C-2019.785,2471.294-2050.192,2453.41-2073.845,2453.41Zm0,84.652c-13.907,0-29.211-10.533-29.211-30.8,0-20.666,15.3-31.2,29.211-31.2,14.107,0,29.41,10.532,29.41,31.2C-2044.435,2527.528-2059.738,2538.062-2073.845,2538.062Zm-134.389-31.2c0,20.667,15.3,31.2,29.41,31.2a28.946,28.946,0,0,0,25.5-15.341l22.132,10.245c-10.169,18.524-30.656,27.75-47.629,27.75-23.628,0-54.06-17.884-54.06-53.851,0-36.164,30.432-53.452,54.06-53.452,17.1,0,37.685,9.034,47.8,27.688l-22.107,10.564a29.051,29.051,0,0,0-25.7-15.6C-2192.931,2476.062-2208.234,2486.595-2208.234,2506.862Zm81.9,108.32c0,36.164-30.407,53.452-54.035,53.452-17.1,0-37.709-9.034-47.829-27.688l22.132-10.564a29.08,29.08,0,0,0,25.7,15.6c14.107,0,29.385-10.533,29.385-30.8,0-20.666-15.278-31.2-29.385-31.2a29.011,29.011,0,0,0-25.522,15.341l-22.132-10.245c10.194-18.523,30.681-27.749,47.654-27.749C-2156.741,2561.331-2126.334,2579.215-2126.334,2615.181Zm-54.035,53.452c23.628,0,54.035,17.883,54.035,53.85,0,36.164-30.407,53.452-54.035,53.452-17.1,0-37.709-9.033-47.829-27.687l22.132-10.564a29.079,29.079,0,0,0,25.7,15.6c14.107,0,29.385-10.532,29.385-30.8,0-20.666-15.278-31.2-29.385-31.2a29.011,29.011,0,0,0-25.522,15.341l-22.132-10.246C-2217.829,2677.859-2197.342,2668.634-2180.369,2668.634ZM-1967.3,2453.41c23.628,0,54.06,17.884,54.06,53.851,0,36.164-30.432,53.452-54.06,53.452-17.1,0-37.71-9.033-47.8-27.687l22.107-10.564a29.053,29.053,0,0,0,25.7,15.6c14.107,0,29.41-10.533,29.41-30.8,0-20.666-15.3-31.2-29.41-31.2a28.984,28.984,0,0,0-25.522,15.342l-22.107-10.245C-2004.756,2462.636-1984.294,2453.41-1967.3,2453.41Zm215.391,215.224c23.653,0,54.06-17.289,54.06-53.452,0-35.967-30.407-53.85-54.06-53.85s-54.035,17.884-54.035,53.85C-1805.94,2651.345-1775.558,2668.634-1751.905,2668.634Zm0-84.65c14.132,0,29.41,10.532,29.41,31.2,0,20.268-15.278,30.8-29.41,30.8-13.907,0-29.211-10.533-29.211-30.8C-1781.116,2594.516-1765.812,2583.984-1751.905,2583.984Zm159.038,138.5c0-35.967-30.407-53.85-54.06-53.85-23.628,0-54.06,17.883-54.06,53.85,0,36.164,30.432,53.452,54.06,53.452C-1623.274,2775.936-1592.867,2758.648-1592.867,2722.484Zm-54.06,30.8c-13.907,0-29.211-10.532-29.211-30.8,0-20.666,15.3-31.2,29.211-31.2,14.107,0,29.41,10.531,29.41,31.2C-1617.516,2742.752-1632.82,2753.284-1646.926,2753.284Zm-26.295-138.5c0,20.667,15.3,31.2,29.41,31.2a28.917,28.917,0,0,0,25.5-15.341l22.132,10.245c-10.169,18.523-30.631,27.75-47.629,27.75-23.628,0-54.035-17.884-54.035-53.851,0-36.164,30.407-53.451,54.035-53.451,17.1,0,37.685,9.033,47.8,27.687l-22.107,10.564a29.052,29.052,0,0,0-25.7-15.6C-1657.918,2583.982-1673.221,2594.516-1673.221,2614.782Zm-108.094,107.3c0,20.667,15.3,31.2,29.41,31.2a28.973,28.973,0,0,0,25.5-15.341l22.157,10.245c-10.194,18.523-30.681,27.749-47.654,27.749-23.653,0-54.035-17.884-54.035-53.851,0-36.164,30.382-53.452,54.035-53.452,17.073,0,37.709,9.033,47.829,27.687l-22.132,10.565a29.078,29.078,0,0,0-25.7-15.6C-1766.012,2691.285-1781.315,2701.818-1781.315,2722.085Zm27.865-161.373c23.628,0,54.035-17.288,54.035-53.452,0-35.968-30.407-53.851-54.035-53.851-23.653,0-54.06,17.884-54.06,53.851C-1807.51,2543.425-1777.1,2560.713-1753.45,2560.713Zm0-84.65c14.107,0,29.41,10.532,29.41,31.2,0,20.267-15.3,30.8-29.41,30.8-13.907,0-29.21-10.533-29.21-30.8C-1782.661,2486.595-1767.358,2476.063-1753.45,2476.063Zm-159.038,30.8c0-36.164,30.407-53.452,54.035-53.452,17.1,0,37.71,9.034,47.854,27.688l-22.132,10.564a29.116,29.116,0,0,0-25.721-15.6c-14.107,0-29.41,10.533-29.41,30.8,0,20.667,15.3,31.2,29.41,31.2a28.983,28.983,0,0,0,25.522-15.341l22.132,10.245c-10.194,18.524-30.656,27.75-47.654,27.75C-1882.082,2560.713-1912.489,2542.829-1912.489,2506.862Zm52.49,161.772c-17.073,0-37.71-9.034-47.8-27.688l22.107-10.564a29.08,29.08,0,0,0,25.7,15.6c14.107,0,29.41-10.533,29.41-30.8,0-20.666-15.3-31.2-29.41-31.2a28.974,28.974,0,0,0-25.5,15.341l-22.157-10.245c10.194-18.523,30.681-27.749,47.654-27.749,23.653,0,54.06,17.884,54.06,53.85C-1805.94,2651.345-1836.347,2668.634-1860,2668.634Zm29.41,53.85c0-20.666-15.3-31.2-29.41-31.2a28.973,28.973,0,0,0-25.5,15.341l-22.157-10.246c10.194-18.523,30.681-27.749,47.654-27.749,23.653,0,54.06,17.883,54.06,53.85,0,36.164-30.407,53.452-54.06,53.452-17.073,0-37.71-9.033-47.8-27.687l22.107-10.564a29.079,29.079,0,0,0,25.7,15.6C-1845.893,2753.284-1830.589,2742.752-1830.589,2722.484Zm183.663-269.074c23.653,0,54.06,17.884,54.06,53.851,0,36.164-30.407,53.452-54.06,53.452-17.1,0-37.685-9.033-47.8-27.687l22.132-10.564a29.043,29.043,0,0,0,25.671,15.6c14.107,0,29.41-10.533,29.41-30.8,0-20.666-15.3-31.2-29.41-31.2a28.975,28.975,0,0,0-25.5,15.342l-22.132-10.245C-1684.362,2462.636-1663.9,2453.41-1646.926,2453.41Zm-425.349,430.447c-23.653,0-54.06,17.884-54.06,53.851,0,36.163,30.407,53.452,54.06,53.452,23.628,0,54.035-17.289,54.035-53.452C-2018.24,2901.741-2048.647,2883.857-2072.275,2883.857Zm0,84.65c-13.907,0-29.21-10.532-29.21-30.8,0-20.667,15.3-31.2,29.21-31.2,14.082,0,29.41,10.531,29.41,31.2C-2042.865,2957.975-2058.193,2968.507-2072.275,2968.507Zm159.039,76.5c0-35.968-30.432-53.85-54.06-53.85-23.653,0-54.06,17.883-54.06,53.85,0,36.164,30.407,53.451,54.06,53.451C-1943.668,3098.461-1913.236,3081.174-1913.236,3045.01Zm-54.06,30.8c-13.907,0-29.211-10.532-29.211-30.8,0-20.667,15.3-31.2,29.211-31.2,14.107,0,29.41,10.531,29.41,31.2C-1937.886,3065.278-1953.189,3075.81-1967.3,3075.81Zm-26.295-138.5c0,20.666,15.278,31.2,29.41,31.2a28.973,28.973,0,0,0,25.5-15.341l22.132,10.246c-10.194,18.523-30.656,27.75-47.629,27.75-23.653,0-54.06-17.884-54.06-53.851,0-36.164,30.407-53.452,54.06-53.452,17.1,0,37.685,9.033,47.8,27.687l-22.132,10.564a29.043,29.043,0,0,0-25.671-15.6C-1978.312,2906.509-1993.591,2917.041-1993.591,2937.309Zm-108.119,107.3c0,20.666,15.328,31.2,29.41,31.2a28.983,28.983,0,0,0,25.522-15.341l22.132,10.246c-10.194,18.523-30.656,27.748-47.654,27.748-23.628,0-54.035-17.883-54.035-53.85,0-36.164,30.407-53.452,54.035-53.452,17.1,0,37.71,9.033,47.829,27.687l-22.107,10.564a29.117,29.117,0,0,0-25.721-15.6C-2086.382,3013.811-2101.71,3024.344-2101.71,3044.612Zm27.865-268.676c-23.628,0-54.035,17.884-54.035,53.851,0,36.164,30.407,53.452,54.035,53.452,23.653,0,54.06-17.288,54.06-53.452C-2019.785,2793.82-2050.192,2775.936-2073.845,2775.936Zm0,84.651c-13.907,0-29.211-10.533-29.211-30.8,0-20.667,15.3-31.2,29.211-31.2,14.107,0,29.41,10.531,29.41,31.2C-2044.435,2850.054-2059.738,2860.587-2073.845,2860.587Zm-159.038-31.2c0-36.163,30.432-53.452,54.06-53.452,17.1,0,37.685,9.034,47.8,27.688l-22.107,10.564a29.05,29.05,0,0,0-25.7-15.6c-14.107,0-29.41,10.532-29.41,30.8,0,20.666,15.3,31.2,29.41,31.2a28.946,28.946,0,0,0,25.5-15.341l22.132,10.245c-10.169,18.524-30.656,27.749-47.629,27.749C-2202.451,2883.239-2232.883,2865.355-2232.883,2829.388Zm106.549,108.32c0,36.163-30.407,53.452-54.035,53.452-17.1,0-37.709-9.034-47.829-27.688l22.132-10.563a29.079,29.079,0,0,0,25.7,15.6c14.107,0,29.385-10.532,29.385-30.8,0-20.667-15.278-31.2-29.385-31.2a29.011,29.011,0,0,0-25.522,15.341l-22.132-10.245c10.194-18.524,30.681-27.75,47.654-27.75C-2156.741,2883.857-2126.334,2901.741-2126.334,2937.708Zm-54.035,53.452c23.628,0,54.035,17.883,54.035,53.85,0,36.164-30.407,53.451-54.035,53.451-17.1,0-37.709-9.033-47.829-27.687l22.132-10.565a29.078,29.078,0,0,0,25.7,15.6c14.107,0,29.385-10.532,29.385-30.8,0-20.667-15.278-31.2-29.385-31.2a29.01,29.01,0,0,0-25.522,15.341l-22.132-10.245C-2217.829,3000.385-2197.342,2991.16-2180.369,2991.16Zm213.073-215.224c23.628,0,54.06,17.884,54.06,53.851,0,36.164-30.432,53.452-54.06,53.452-17.1,0-37.71-9.033-47.8-27.687l22.107-10.564a29.052,29.052,0,0,0,25.7,15.6c14.107,0,29.41-10.533,29.41-30.8,0-20.667-15.3-31.2-29.41-31.2a28.983,28.983,0,0,0-25.522,15.342l-22.107-10.246C-2004.756,2785.162-1984.294,2775.936-1967.3,2775.936Zm215.391,107.921c-23.653,0-54.035,17.884-54.035,53.851,0,36.163,30.382,53.452,54.035,53.452s54.06-17.289,54.06-53.452C-1697.845,2901.741-1728.252,2883.857-1751.905,2883.857Zm0,84.65c-13.907,0-29.211-10.532-29.211-30.8,0-20.667,15.3-31.2,29.211-31.2,14.132,0,29.41,10.531,29.41,31.2C-1722.5,2957.975-1737.773,2968.507-1751.905,2968.507Zm159.038,76.5c0-35.968-30.407-53.85-54.06-53.85-23.628,0-54.06,17.883-54.06,53.85,0,36.164,30.432,53.451,54.06,53.451C-1623.274,3098.461-1592.867,3081.174-1592.867,3045.01Zm-54.06,30.8c-13.907,0-29.211-10.532-29.211-30.8,0-20.667,15.3-31.2,29.211-31.2,14.107,0,29.41,10.531,29.41,31.2C-1617.516,3065.278-1632.82,3075.81-1646.926,3075.81Zm-26.295-138.5c0,20.666,15.3,31.2,29.41,31.2a28.917,28.917,0,0,0,25.5-15.341l22.132,10.246c-10.169,18.523-30.631,27.75-47.629,27.75-23.628,0-54.035-17.884-54.035-53.851,0-36.164,30.407-53.452,54.035-53.452,17.1,0,37.685,9.033,47.8,27.687l-22.107,10.564a29.051,29.051,0,0,0-25.7-15.6C-1657.918,2906.509-1673.221,2917.041-1673.221,2937.309Zm-108.094,107.3c0,20.666,15.3,31.2,29.41,31.2a28.973,28.973,0,0,0,25.5-15.341l22.157,10.246c-10.194,18.523-30.681,27.748-47.654,27.748-23.653,0-54.035-17.883-54.035-53.85,0-36.164,30.382-53.452,54.035-53.452,17.073,0,37.709,9.033,47.829,27.687l-22.132,10.564a29.079,29.079,0,0,0-25.7-15.6C-1766.012,3013.811-1781.315,3024.344-1781.315,3044.612Zm27.865-161.373c23.628,0,54.035-17.288,54.035-53.452,0-35.968-30.407-53.851-54.035-53.851-23.653,0-54.06,17.884-54.06,53.851C-1807.51,2865.951-1777.1,2883.239-1753.45,2883.239Zm0-84.65c14.107,0,29.41,10.531,29.41,31.2,0,20.267-15.3,30.8-29.41,30.8-13.907,0-29.21-10.533-29.21-30.8C-1782.661,2809.121-1767.358,2798.589-1753.45,2798.589Zm-159.038,30.8c0-36.163,30.407-53.452,54.035-53.452,17.1,0,37.71,9.034,47.854,27.688l-22.132,10.564a29.116,29.116,0,0,0-25.721-15.6c-14.107,0-29.41,10.532-29.41,30.8,0,20.666,15.3,31.2,29.41,31.2a28.983,28.983,0,0,0,25.522-15.341l22.132,10.245c-10.194,18.524-30.656,27.749-47.654,27.749C-1882.082,2883.239-1912.489,2865.355-1912.489,2829.388Zm106.549,108.32c0,36.163-30.407,53.452-54.06,53.452-17.073,0-37.71-9.034-47.8-27.688l22.107-10.563a29.079,29.079,0,0,0,25.7,15.6c14.107,0,29.41-10.532,29.41-30.8,0-20.667-15.3-31.2-29.41-31.2a28.974,28.974,0,0,0-25.5,15.341l-22.157-10.245c10.194-18.524,30.681-27.75,47.654-27.75C-1836.347,2883.857-1805.94,2901.741-1805.94,2937.708ZM-1860,2991.16c23.653,0,54.06,17.883,54.06,53.85,0,36.164-30.407,53.451-54.06,53.451-17.073,0-37.71-9.033-47.8-27.687l22.107-10.565a29.078,29.078,0,0,0,25.7,15.6c14.107,0,29.41-10.532,29.41-30.8,0-20.667-15.3-31.2-29.41-31.2a28.973,28.973,0,0,0-25.5,15.341l-22.157-10.245C-1897.46,3000.385-1876.972,2991.16-1860,2991.16Zm213.073-215.224c23.653,0,54.06,17.884,54.06,53.851,0,36.164-30.407,53.452-54.06,53.452-17.1,0-37.685-9.033-47.8-27.687l22.132-10.564a29.042,29.042,0,0,0,25.671,15.6c14.107,0,29.41-10.533,29.41-30.8,0-20.667-15.3-31.2-29.41-31.2a28.974,28.974,0,0,0-25.5,15.342l-22.132-10.246C-1684.362,2785.162-1663.9,2775.936-1646.926,2775.936Zm-425.349,537.749c23.628,0,54.035-17.289,54.035-53.451,0-35.968-30.407-53.851-54.035-53.851-23.653,0-54.06,17.884-54.06,53.851C-2126.334,3296.4-2095.927,3313.685-2072.275,3313.685Zm0-84.65c14.082,0,29.41,10.532,29.41,31.2,0,20.267-15.328,30.8-29.41,30.8-13.907,0-29.21-10.533-29.21-30.8C-2101.485,3239.567-2086.182,3229.036-2072.275,3229.036Zm104.979,84.65c-23.653,0-54.06,17.883-54.06,53.851,0,36.164,30.407,53.452,54.06,53.452,23.628,0,54.06-17.288,54.06-53.452C-1913.236,3331.568-1943.668,3313.685-1967.3,3313.685Zm0,84.651c-13.907,0-29.211-10.533-29.211-30.8,0-20.666,15.3-31.2,29.211-31.2,14.107,0,29.41,10.531,29.41,31.2C-1937.886,3387.8-1953.189,3398.336-1967.3,3398.336Zm-26.295-138.5c0,20.666,15.278,31.2,29.41,31.2a28.974,28.974,0,0,0,25.5-15.341l22.132,10.245c-10.194,18.523-30.656,27.75-47.629,27.75-23.653,0-54.06-17.884-54.06-53.851,0-36.164,30.407-53.452,54.06-53.452,17.1,0,37.685,9.033,47.8,27.687l-22.132,10.564a29.043,29.043,0,0,0-25.671-15.6C-1978.312,3229.034-1993.591,3239.567-1993.591,3259.834Zm-108.119,107.3c0,20.667,15.328,31.2,29.41,31.2a28.982,28.982,0,0,0,25.522-15.341l22.132,10.245c-10.194,18.523-30.656,27.749-47.654,27.749-23.628,0-54.035-17.883-54.035-53.851,0-36.164,30.407-53.452,54.035-53.452,17.1,0,37.71,9.033,47.829,27.688l-22.107,10.564a29.116,29.116,0,0,0-25.721-15.6C-2086.382,3336.337-2101.71,3346.87-2101.71,3367.137Zm27.865-268.676c-23.628,0-54.035,17.884-54.035,53.851,0,36.164,30.407,53.452,54.035,53.452,23.653,0,54.06-17.288,54.06-53.452C-2019.785,3116.345-2050.192,3098.461-2073.845,3098.461Zm0,84.652c-13.907,0-29.211-10.533-29.211-30.8,0-20.666,15.3-31.2,29.211-31.2,14.107,0,29.41,10.531,29.41,31.2C-2044.435,3172.58-2059.738,3183.113-2073.845,3183.113Zm-159.038-31.2c0-36.163,30.432-53.452,54.06-53.452,17.1,0,37.685,9.034,47.8,27.688l-22.107,10.564a29.051,29.051,0,0,0-25.7-15.6c-14.107,0-29.41,10.533-29.41,30.8,0,20.667,15.3,31.2,29.41,31.2a28.946,28.946,0,0,0,25.5-15.341l22.132,10.245c-10.169,18.524-30.656,27.75-47.629,27.75C-2202.451,3205.764-2232.883,3187.881-2232.883,3151.913Zm52.514,161.772c-17.1,0-37.709-9.034-47.829-27.688l22.132-10.564a29.08,29.08,0,0,0,25.7,15.6c14.107,0,29.385-10.533,29.385-30.8,0-20.667-15.278-31.2-29.385-31.2a29.011,29.011,0,0,0-25.522,15.341l-22.132-10.245c10.194-18.524,30.681-27.75,47.654-27.75,23.628,0,54.035,17.884,54.035,53.851C-2126.334,3296.4-2156.741,3313.685-2180.369,3313.685Zm54.035,53.851c0,36.164-30.407,53.452-54.035,53.452-17.1,0-37.709-9.033-47.829-27.687l22.132-10.564a29.079,29.079,0,0,0,25.7,15.6c14.107,0,29.385-10.533,29.385-30.8,0-20.666-15.278-31.2-29.385-31.2a29.011,29.011,0,0,0-25.522,15.341l-22.132-10.246c10.194-18.523,30.681-27.749,47.654-27.749C-2156.741,3313.685-2126.334,3331.568-2126.334,3367.536Zm159.039-269.074c23.628,0,54.06,17.884,54.06,53.851,0,36.164-30.432,53.452-54.06,53.452-17.1,0-37.71-9.033-47.8-27.687l22.107-10.564a29.053,29.053,0,0,0,25.7,15.6c14.107,0,29.41-10.533,29.41-30.8,0-20.666-15.3-31.2-29.41-31.2a28.983,28.983,0,0,0-25.522,15.341l-22.107-10.245C-2004.756,3107.688-1984.294,3098.461-1967.3,3098.461Zm215.391,215.224c23.653,0,54.06-17.289,54.06-53.451,0-35.968-30.407-53.851-54.06-53.851s-54.035,17.884-54.035,53.851C-1805.94,3296.4-1775.558,3313.685-1751.905,3313.685Zm0-84.65c14.132,0,29.41,10.532,29.41,31.2,0,20.267-15.278,30.8-29.41,30.8-13.907,0-29.211-10.533-29.211-30.8C-1781.116,3239.567-1765.812,3229.036-1751.905,3229.036Zm104.979,84.65c-23.628,0-54.06,17.883-54.06,53.851,0,36.164,30.432,53.452,54.06,53.452,23.653,0,54.06-17.288,54.06-53.452C-1592.867,3331.568-1623.274,3313.685-1646.926,3313.685Zm0,84.651c-13.907,0-29.211-10.533-29.211-30.8,0-20.666,15.3-31.2,29.211-31.2,14.107,0,29.41,10.531,29.41,31.2C-1617.516,3387.8-1632.82,3398.336-1646.926,3398.336Zm-26.295-138.5c0,20.666,15.3,31.2,29.41,31.2a28.917,28.917,0,0,0,25.5-15.341l22.132,10.245c-10.169,18.523-30.631,27.75-47.629,27.75-23.628,0-54.035-17.884-54.035-53.851,0-36.164,30.407-53.452,54.035-53.452,17.1,0,37.685,9.033,47.8,27.687l-22.107,10.564a29.052,29.052,0,0,0-25.7-15.6C-1657.918,3229.034-1673.221,3239.567-1673.221,3259.834Zm-108.094,107.3c0,20.667,15.3,31.2,29.41,31.2a28.973,28.973,0,0,0,25.5-15.341l22.157,10.245c-10.194,18.523-30.681,27.749-47.654,27.749-23.653,0-54.035-17.883-54.035-53.851,0-36.164,30.382-53.452,54.035-53.452,17.073,0,37.709,9.033,47.829,27.688l-22.132,10.564a29.078,29.078,0,0,0-25.7-15.6C-1766.012,3336.337-1781.315,3346.87-1781.315,3367.137Zm27.865-268.676c-23.653,0-54.06,17.884-54.06,53.851,0,36.164,30.407,53.452,54.06,53.452,23.628,0,54.035-17.288,54.035-53.452C-1699.416,3116.345-1729.823,3098.461-1753.45,3098.461Zm0,84.652c-13.907,0-29.21-10.533-29.21-30.8,0-20.666,15.3-31.2,29.21-31.2,14.107,0,29.41,10.531,29.41,31.2C-1724.04,3172.58-1739.344,3183.113-1753.45,3183.113Zm-159.038-31.2c0-36.163,30.407-53.452,54.035-53.452,17.1,0,37.71,9.034,47.854,27.688l-22.132,10.564a29.116,29.116,0,0,0-25.721-15.6c-14.107,0-29.41,10.533-29.41,30.8,0,20.667,15.3,31.2,29.41,31.2a28.983,28.983,0,0,0,25.522-15.341l22.132,10.245c-10.194,18.524-30.656,27.75-47.654,27.75C-1882.082,3205.764-1912.489,3187.881-1912.489,3151.913Zm52.49,161.772c-17.073,0-37.71-9.034-47.8-27.688l22.107-10.564a29.08,29.08,0,0,0,25.7,15.6c14.107,0,29.41-10.533,29.41-30.8,0-20.667-15.3-31.2-29.41-31.2a28.974,28.974,0,0,0-25.5,15.341l-22.157-10.245c10.194-18.524,30.681-27.75,47.654-27.75,23.653,0,54.06,17.884,54.06,53.851C-1805.94,3296.4-1836.347,3313.685-1860,3313.685Zm54.06,53.851c0,36.164-30.407,53.452-54.06,53.452-17.073,0-37.71-9.033-47.8-27.687l22.107-10.564a29.079,29.079,0,0,0,25.7,15.6c14.107,0,29.41-10.533,29.41-30.8,0-20.666-15.3-31.2-29.41-31.2a28.974,28.974,0,0,0-25.5,15.341l-22.157-10.246c10.194-18.523,30.681-27.749,47.654-27.749C-1836.347,3313.685-1805.94,3331.568-1805.94,3367.536Zm213.073-215.223c0,36.164-30.407,53.452-54.06,53.452-17.1,0-37.685-9.033-47.8-27.687l22.132-10.564a29.043,29.043,0,0,0,25.671,15.6c14.107,0,29.41-10.533,29.41-30.8,0-20.666-15.3-31.2-29.41-31.2a28.974,28.974,0,0,0-25.5,15.341l-22.132-10.245c10.194-18.523,30.656-27.75,47.629-27.75C-1623.274,3098.461-1592.867,3116.345-1592.867,3152.313Zm160.584-913.508c-23.628,0-54.06,17.884-54.06,53.851,0,36.164,30.432,53.452,54.06,53.452s54.06-17.288,54.06-53.452C-1378.224,2256.689-1408.655,2238.8-1432.283,2238.8Zm0,84.651c-13.907,0-29.211-10.533-29.211-30.8,0-20.666,15.3-31.2,29.211-31.2,14.107,0,29.41,10.531,29.41,31.2C-1402.873,2312.923-1418.176,2323.456-1432.283,2323.456Zm159.038,76.5c0-35.968-30.407-53.851-54.06-53.851-23.628,0-54.06,17.884-54.06,53.851,0,36.164,30.432,53.451,54.06,53.451C-1303.652,2453.41-1273.245,2436.122-1273.245,2399.958Zm-54.06,30.8c-13.907,0-29.211-10.533-29.211-30.8,0-20.667,15.3-31.2,29.211-31.2,14.107,0,29.41,10.531,29.41,31.2C-1297.894,2420.226-1313.2,2430.759-1327.3,2430.759Zm-26.295-138.5c0,20.666,15.278,31.2,29.41,31.2a28.945,28.945,0,0,0,25.5-15.341l22.132,10.246c-10.194,18.523-30.631,27.749-47.629,27.749-23.653,0-54.035-17.883-54.035-53.851,0-36.164,30.382-53.452,54.035-53.452,17.1,0,37.685,9.033,47.829,27.688l-22.132,10.564a29.108,29.108,0,0,0-25.7-15.6C-1338.321,2261.457-1353.6,2271.99-1353.6,2292.257Zm-108.094,107.3c0,20.666,15.3,31.2,29.41,31.2a28.973,28.973,0,0,0,25.5-15.341l22.132,10.245c-10.169,18.524-30.656,27.75-47.629,27.75-23.653,0-54.06-17.884-54.06-53.85,0-36.164,30.407-53.452,54.06-53.452,17.073,0,37.685,9.034,47.8,27.688l-22.132,10.564a29.014,29.014,0,0,0-25.672-15.6C-1446.39,2368.759-1461.693,2379.292-1461.693,2399.56Zm27.865-161.373c23.628,0,54.01-17.288,54.01-53.452,0-35.968-30.382-53.851-54.01-53.851-23.677,0-54.06,17.884-54.06,53.851C-1487.888,2220.9-1457.506,2238.187-1433.828,2238.187Zm0-84.65c14.107,0,29.41,10.532,29.41,31.2,0,20.267-15.3,30.8-29.41,30.8-13.932,0-29.211-10.533-29.211-30.8C-1463.039,2164.069-1447.761,2153.537-1433.828,2153.537Zm-159.038,30.8c0-36.164,30.407-53.452,54.035-53.452,17.1,0,37.685,9.033,47.829,27.688l-22.132,10.563a29.079,29.079,0,0,0-25.7-15.6c-14.082,0-29.41,10.533-29.41,30.8,0,20.666,15.328,31.2,29.41,31.2a28.917,28.917,0,0,0,25.5-15.341l22.132,10.245c-10.194,18.524-30.631,27.75-47.629,27.75C-1562.46,2238.187-1592.867,2220.3-1592.867,2184.336Zm106.524,108.32c0,36.164-30.382,53.452-54.06,53.452-17.073,0-37.685-9.033-47.8-27.687l22.132-10.564a29.042,29.042,0,0,0,25.671,15.6c14.132,0,29.41-10.533,29.41-30.8,0-20.666-15.278-31.2-29.41-31.2a28.936,28.936,0,0,0-25.472,15.341l-22.132-10.245c10.169-18.524,30.631-27.75,47.6-27.75C-1516.725,2238.8-1486.343,2256.689-1486.343,2292.656Zm-54.06,53.452c23.678,0,54.06,17.884,54.06,53.851,0,36.164-30.382,53.451-54.06,53.451-17.073,0-37.685-9.033-47.8-27.687l22.132-10.564a29.043,29.043,0,0,0,25.671,15.6c14.132,0,29.41-10.533,29.41-30.8,0-20.667-15.278-31.2-29.41-31.2a28.936,28.936,0,0,0-25.472,15.341l-22.132-10.245C-1577.838,2355.333-1557.375,2346.107-1540.4,2346.107Zm267.158-161.372c0,36.164-30.407,53.452-54.06,53.452-17.073,0-37.71-9.033-47.829-27.687l22.132-10.564a29.08,29.08,0,0,0,25.7,15.6c14.107,0,29.41-10.533,29.41-30.8,0-20.667-15.3-31.2-29.41-31.2a28.974,28.974,0,0,0-25.5,15.342l-22.157-10.245c10.194-18.523,30.681-27.75,47.654-27.75C-1303.652,2130.884-1273.245,2148.768-1273.245,2184.735Zm161.331,54.07c-23.628,0-54.06,17.884-54.06,53.851,0,36.164,30.432,53.452,54.06,53.452,23.677,0,54.06-17.288,54.06-53.452C-1057.854,2256.689-1088.236,2238.8-1111.913,2238.8Zm0,84.651c-13.907,0-29.211-10.533-29.211-30.8,0-20.666,15.3-31.2,29.211-31.2,14.107,0,29.41,10.531,29.41,31.2C-1082.5,2312.923-1097.807,2323.456-1111.913,2323.456Zm159.038,76.5c0-35.968-30.407-53.851-54.06-53.851-23.628,0-54.035,17.884-54.035,53.851,0,36.164,30.407,53.451,54.035,53.451C-983.282,2453.41-952.875,2436.122-952.875,2399.958Zm-54.06,30.8c-13.883,0-29.211-10.533-29.211-30.8,0-20.667,15.328-31.2,29.211-31.2,14.107,0,29.41,10.531,29.41,31.2C-977.525,2420.226-992.828,2430.759-1006.935,2430.759Zm-50.919-138.5c0-36.164,30.407-53.452,54.06-53.452,17.073,0,37.685,9.033,47.8,27.688l-22.132,10.564a29.043,29.043,0,0,0-25.671-15.6c-14.107,0-29.41,10.533-29.41,30.8,0,20.666,15.3,31.2,29.41,31.2a28.908,28.908,0,0,0,25.472-15.341l22.132,10.246c-10.194,18.523-30.631,27.749-47.6,27.749C-1027.447,2346.107-1057.854,2328.224-1057.854,2292.257Zm-83.47,107.3c0,20.666,15.3,31.2,29.41,31.2a29.011,29.011,0,0,0,25.522-15.341l22.132,10.245c-10.194,18.524-30.681,27.75-47.654,27.75-23.628,0-54.06-17.884-54.06-53.85,0-36.164,30.432-53.452,54.06-53.452,17.1,0,37.71,9.034,47.829,27.688l-22.107,10.564a29.144,29.144,0,0,0-25.721-15.6C-1126.02,2368.759-1141.323,2379.292-1141.323,2399.56Zm27.865-161.373c23.628,0,54.06-17.288,54.06-53.452,0-35.968-30.432-53.851-54.06-53.851s-54.06,17.884-54.06,53.851C-1167.518,2220.9-1137.086,2238.187-1113.459,2238.187Zm0-84.65c14.107,0,29.41,10.532,29.41,31.2,0,20.267-15.3,30.8-29.41,30.8-13.907,0-29.21-10.533-29.21-30.8C-1142.669,2164.069-1127.366,2153.537-1113.459,2153.537Zm-159.038,30.8c0-36.164,30.407-53.452,54.06-53.452,17.073,0,37.71,9.033,47.8,27.688l-22.107,10.563a29.08,29.08,0,0,0-25.7-15.6c-14.107,0-29.41,10.533-29.41,30.8,0,20.666,15.3,31.2,29.41,31.2a28.974,28.974,0,0,0,25.5-15.341l22.132,10.245c-10.169,18.524-30.656,27.75-47.629,27.75C-1242.09,2238.187-1272.5,2220.3-1272.5,2184.336Zm106.524,108.32c0,36.164-30.382,53.452-54.01,53.452-17.1,0-37.71-9.033-47.854-27.687l22.132-10.564a29.116,29.116,0,0,0,25.721,15.6c14.082,0,29.41-10.533,29.41-30.8,0-20.666-15.328-31.2-29.41-31.2A28.983,28.983,0,0,0-1245.5,2276.8l-22.132-10.245c10.194-18.524,30.656-27.75,47.654-27.75C-1196.355,2238.8-1165.973,2256.689-1165.973,2292.656Zm-54.01,53.452c23.628,0,54.01,17.884,54.01,53.851,0,36.164-30.382,53.451-54.01,53.451-17.1,0-37.71-9.033-47.854-27.687l22.132-10.564a29.117,29.117,0,0,0,25.721,15.6c14.082,0,29.41-10.533,29.41-30.8,0-20.667-15.328-31.2-29.41-31.2A28.983,28.983,0,0,0-1245.5,2384.1l-22.132-10.245C-1257.443,2355.333-1236.981,2346.107-1219.983,2346.107Zm242.458-161.372c0-20.667-15.3-31.2-29.41-31.2a28.909,28.909,0,0,0-25.472,15.342l-22.157-10.245c10.194-18.523,30.656-27.75,47.629-27.75,23.653,0,54.06,17.884,54.06,53.851,0,36.164-30.407,53.452-54.06,53.452-17.073,0-37.685-9.033-47.8-27.687l22.132-10.564a29.015,29.015,0,0,0,25.672,15.6C-992.828,2215.535-977.525,2205-977.525,2184.735Zm-454.758,376.6c-23.628,0-54.06,17.884-54.06,53.85,0,36.164,30.432,53.452,54.06,53.452s54.06-17.289,54.06-53.452C-1378.224,2579.215-1408.655,2561.331-1432.283,2561.331Zm0,84.651c-13.907,0-29.211-10.533-29.211-30.8,0-20.666,15.3-31.2,29.211-31.2,14.107,0,29.41,10.532,29.41,31.2C-1402.873,2635.449-1418.176,2645.982-1432.283,2645.982Zm159.038,76.5c0-35.967-30.407-53.85-54.06-53.85-23.628,0-54.06,17.883-54.06,53.85,0,36.164,30.432,53.452,54.06,53.452C-1303.652,2775.936-1273.245,2758.648-1273.245,2722.484Zm-54.06,30.8c-13.907,0-29.211-10.532-29.211-30.8,0-20.666,15.3-31.2,29.211-31.2,14.107,0,29.41,10.531,29.41,31.2C-1297.894,2742.752-1313.2,2753.284-1327.3,2753.284Zm-26.295-138.5c0,20.667,15.278,31.2,29.41,31.2a28.945,28.945,0,0,0,25.5-15.341l22.132,10.245c-10.194,18.523-30.631,27.75-47.629,27.75-23.653,0-54.035-17.884-54.035-53.851,0-36.164,30.382-53.451,54.035-53.451,17.1,0,37.685,9.033,47.829,27.687l-22.132,10.564a29.108,29.108,0,0,0-25.7-15.6C-1338.321,2583.982-1353.6,2594.516-1353.6,2614.782Zm-108.094,107.3c0,20.667,15.3,31.2,29.41,31.2a28.973,28.973,0,0,0,25.5-15.341l22.132,10.245c-10.169,18.523-30.656,27.749-47.629,27.749-23.653,0-54.06-17.884-54.06-53.851,0-36.164,30.407-53.452,54.06-53.452,17.073,0,37.685,9.033,47.8,27.687l-22.132,10.565a29.014,29.014,0,0,0-25.672-15.6C-1446.39,2691.285-1461.693,2701.818-1461.693,2722.085Zm27.865-268.676c-23.677,0-54.06,17.884-54.06,53.851,0,36.164,30.382,53.452,54.06,53.452,23.628,0,54.01-17.288,54.01-53.452C-1379.819,2471.294-1410.2,2453.41-1433.828,2453.41Zm0,84.652c-13.932,0-29.211-10.533-29.211-30.8,0-20.666,15.278-31.2,29.211-31.2,14.107,0,29.41,10.532,29.41,31.2C-1404.418,2527.528-1419.721,2538.062-1433.828,2538.062Zm-134.414-31.2c0,20.667,15.328,31.2,29.41,31.2a28.917,28.917,0,0,0,25.5-15.341l22.132,10.245c-10.194,18.524-30.631,27.75-47.629,27.75-23.628,0-54.035-17.884-54.035-53.851,0-36.164,30.407-53.452,54.035-53.452,17.1,0,37.685,9.034,47.829,27.688l-22.132,10.564a29.079,29.079,0,0,0-25.7-15.6C-1552.914,2476.062-1568.242,2486.595-1568.242,2506.862Zm81.9,108.32c0,36.164-30.382,53.452-54.06,53.452-17.073,0-37.685-9.034-47.8-27.688l22.132-10.564a29.043,29.043,0,0,0,25.671,15.6c14.132,0,29.41-10.533,29.41-30.8,0-20.666-15.278-31.2-29.41-31.2a28.936,28.936,0,0,0-25.472,15.341l-22.132-10.245c10.169-18.523,30.631-27.749,47.6-27.749C-1516.725,2561.331-1486.343,2579.215-1486.343,2615.181Zm-54.06,53.452c23.678,0,54.06,17.883,54.06,53.85,0,36.164-30.382,53.452-54.06,53.452-17.073,0-37.685-9.033-47.8-27.687l22.132-10.564a29.042,29.042,0,0,0,25.671,15.6c14.132,0,29.41-10.532,29.41-30.8,0-20.666-15.278-31.2-29.41-31.2a28.936,28.936,0,0,0-25.472,15.341l-22.132-10.246C-1577.838,2677.859-1557.375,2668.634-1540.4,2668.634Zm213.1-215.224c23.653,0,54.06,17.884,54.06,53.851,0,36.164-30.407,53.452-54.06,53.452-17.073,0-37.71-9.033-47.829-27.687l22.132-10.564a29.08,29.08,0,0,0,25.7,15.6c14.107,0,29.41-10.533,29.41-30.8,0-20.666-15.3-31.2-29.41-31.2a28.975,28.975,0,0,0-25.5,15.342l-22.157-10.245C-1364.765,2462.636-1344.277,2453.41-1327.3,2453.41Zm215.391,107.921c-23.628,0-54.06,17.884-54.06,53.85,0,36.164,30.432,53.452,54.06,53.452,23.677,0,54.06-17.289,54.06-53.452C-1057.854,2579.215-1088.236,2561.331-1111.913,2561.331Zm0,84.651c-13.907,0-29.211-10.533-29.211-30.8,0-20.666,15.3-31.2,29.211-31.2,14.107,0,29.41,10.532,29.41,31.2C-1082.5,2635.449-1097.807,2645.982-1111.913,2645.982Zm159.038,76.5c0-35.967-30.407-53.85-54.06-53.85-23.628,0-54.035,17.883-54.035,53.85,0,36.164,30.407,53.452,54.035,53.452C-983.282,2775.936-952.875,2758.648-952.875,2722.484Zm-54.06,30.8c-13.883,0-29.211-10.532-29.211-30.8,0-20.666,15.328-31.2,29.211-31.2,14.107,0,29.41,10.531,29.41,31.2C-977.525,2742.752-992.828,2753.284-1006.935,2753.284Zm-26.27-138.5c0,20.667,15.3,31.2,29.41,31.2a28.908,28.908,0,0,0,25.472-15.341l22.132,10.245c-10.194,18.523-30.631,27.75-47.6,27.75-23.653,0-54.06-17.884-54.06-53.851,0-36.164,30.407-53.451,54.06-53.451,17.073,0,37.685,9.033,47.8,27.687l-22.132,10.564a29.043,29.043,0,0,0-25.671-15.6C-1017.9,2583.982-1033.2,2594.516-1033.2,2614.782Zm-108.119,107.3c0,20.667,15.3,31.2,29.41,31.2a29.011,29.011,0,0,0,25.522-15.341l22.132,10.245c-10.194,18.523-30.681,27.749-47.654,27.749-23.628,0-54.06-17.884-54.06-53.851,0-36.164,30.432-53.452,54.06-53.452,17.1,0,37.71,9.033,47.829,27.687l-22.107,10.565a29.143,29.143,0,0,0-25.721-15.6C-1126.02,2691.285-1141.323,2701.818-1141.323,2722.085Zm27.865-268.676c-23.628,0-54.06,17.884-54.06,53.851,0,36.164,30.432,53.452,54.06,53.452s54.06-17.288,54.06-53.452C-1059.4,2471.294-1089.831,2453.41-1113.459,2453.41Zm0,84.652c-13.907,0-29.21-10.533-29.21-30.8,0-20.666,15.3-31.2,29.21-31.2,14.107,0,29.41,10.532,29.41,31.2C-1084.049,2527.528-1099.352,2538.062-1113.459,2538.062Zm-159.038-31.2c0-36.164,30.407-53.452,54.06-53.452,17.073,0,37.71,9.034,47.8,27.688l-22.107,10.564a29.079,29.079,0,0,0-25.7-15.6c-14.107,0-29.41,10.533-29.41,30.8,0,20.667,15.3,31.2,29.41,31.2a28.974,28.974,0,0,0,25.5-15.341l22.132,10.245c-10.169,18.524-30.656,27.75-47.629,27.75C-1242.09,2560.713-1272.5,2542.829-1272.5,2506.862Zm106.524,108.32c0,36.164-30.382,53.452-54.01,53.452-17.1,0-37.71-9.034-47.854-27.688l22.132-10.564a29.116,29.116,0,0,0,25.721,15.6c14.082,0,29.41-10.533,29.41-30.8,0-20.666-15.328-31.2-29.41-31.2a28.983,28.983,0,0,0-25.522,15.341l-22.132-10.245c10.194-18.523,30.656-27.749,47.654-27.749C-1196.355,2561.331-1165.973,2579.215-1165.973,2615.181Zm-54.01,53.452c23.628,0,54.01,17.883,54.01,53.85,0,36.164-30.382,53.452-54.01,53.452-17.1,0-37.71-9.033-47.854-27.687l22.132-10.564a29.116,29.116,0,0,0,25.721,15.6c14.082,0,29.41-10.532,29.41-30.8,0-20.666-15.328-31.2-29.41-31.2a28.983,28.983,0,0,0-25.522,15.341l-22.132-10.246C-1257.443,2677.859-1236.981,2668.634-1219.983,2668.634Zm213.048-215.224c23.653,0,54.06,17.884,54.06,53.851,0,36.164-30.407,53.452-54.06,53.452-17.073,0-37.685-9.033-47.8-27.687l22.132-10.564a29.015,29.015,0,0,0,25.672,15.6c14.107,0,29.41-10.533,29.41-30.8,0-20.666-15.3-31.2-29.41-31.2a28.909,28.909,0,0,0-25.472,15.342l-22.157-10.245C-1044.37,2462.636-1023.908,2453.41-1006.935,2453.41Zm-425.349,430.447c-23.628,0-54.06,17.884-54.06,53.851,0,36.163,30.432,53.452,54.06,53.452s54.06-17.289,54.06-53.452C-1378.224,2901.741-1408.655,2883.857-1432.283,2883.857Zm0,84.65c-13.907,0-29.211-10.532-29.211-30.8,0-20.667,15.3-31.2,29.211-31.2,14.107,0,29.41,10.531,29.41,31.2C-1402.873,2957.975-1418.176,2968.507-1432.283,2968.507Zm159.038,76.5c0-35.968-30.407-53.85-54.06-53.85-23.628,0-54.06,17.883-54.06,53.85,0,36.164,30.432,53.451,54.06,53.451C-1303.652,3098.461-1273.245,3081.174-1273.245,3045.01Zm-54.06,30.8c-13.907,0-29.211-10.532-29.211-30.8,0-20.667,15.3-31.2,29.211-31.2,14.107,0,29.41,10.531,29.41,31.2C-1297.894,3065.278-1313.2,3075.81-1327.3,3075.81Zm-26.295-138.5c0,20.666,15.278,31.2,29.41,31.2a28.945,28.945,0,0,0,25.5-15.341l22.132,10.246c-10.194,18.523-30.631,27.75-47.629,27.75-23.653,0-54.035-17.884-54.035-53.851,0-36.164,30.382-53.452,54.035-53.452,17.1,0,37.685,9.033,47.829,27.687l-22.132,10.564a29.108,29.108,0,0,0-25.7-15.6C-1338.321,2906.509-1353.6,2917.041-1353.6,2937.309Zm-108.094,107.3c0,20.666,15.3,31.2,29.41,31.2a28.973,28.973,0,0,0,25.5-15.341l22.132,10.246c-10.169,18.523-30.656,27.748-47.629,27.748-23.653,0-54.06-17.883-54.06-53.85,0-36.164,30.407-53.452,54.06-53.452,17.073,0,37.685,9.033,47.8,27.687l-22.132,10.564a29.014,29.014,0,0,0-25.672-15.6C-1446.39,3013.811-1461.693,3024.344-1461.693,3044.612Zm27.865-268.676c-23.677,0-54.06,17.884-54.06,53.851,0,36.164,30.382,53.452,54.06,53.452,23.628,0,54.01-17.288,54.01-53.452C-1379.819,2793.82-1410.2,2775.936-1433.828,2775.936Zm0,84.651c-13.932,0-29.211-10.533-29.211-30.8,0-20.667,15.278-31.2,29.211-31.2,14.107,0,29.41,10.531,29.41,31.2C-1404.418,2850.054-1419.721,2860.587-1433.828,2860.587Zm-159.038-31.2c0-36.163,30.407-53.452,54.035-53.452,17.1,0,37.685,9.034,47.829,27.688l-22.132,10.564a29.079,29.079,0,0,0-25.7-15.6c-14.082,0-29.41,10.532-29.41,30.8,0,20.666,15.328,31.2,29.41,31.2a28.917,28.917,0,0,0,25.5-15.341l22.132,10.245c-10.194,18.524-30.631,27.749-47.629,27.749C-1562.46,2883.239-1592.867,2865.355-1592.867,2829.388Zm106.524,108.32c0,36.163-30.382,53.452-54.06,53.452-17.073,0-37.685-9.034-47.8-27.688l22.132-10.563a29.042,29.042,0,0,0,25.671,15.6c14.132,0,29.41-10.532,29.41-30.8,0-20.667-15.278-31.2-29.41-31.2a28.936,28.936,0,0,0-25.472,15.341l-22.132-10.245c10.169-18.524,30.631-27.75,47.6-27.75C-1516.725,2883.857-1486.343,2901.741-1486.343,2937.708Zm-54.06,53.452c23.678,0,54.06,17.883,54.06,53.85,0,36.164-30.382,53.451-54.06,53.451-17.073,0-37.685-9.033-47.8-27.687l22.132-10.565a29.041,29.041,0,0,0,25.671,15.6c14.132,0,29.41-10.532,29.41-30.8,0-20.667-15.278-31.2-29.41-31.2a28.936,28.936,0,0,0-25.472,15.341l-22.132-10.245C-1577.838,3000.385-1557.375,2991.16-1540.4,2991.16Zm213.1-215.224c23.653,0,54.06,17.884,54.06,53.851,0,36.164-30.407,53.452-54.06,53.452-17.073,0-37.71-9.033-47.829-27.687l22.132-10.564a29.08,29.08,0,0,0,25.7,15.6c14.107,0,29.41-10.533,29.41-30.8,0-20.667-15.3-31.2-29.41-31.2a28.974,28.974,0,0,0-25.5,15.342l-22.157-10.246C-1364.765,2785.162-1344.277,2775.936-1327.3,2775.936Zm215.391,107.921c-23.628,0-54.06,17.884-54.06,53.851,0,36.163,30.432,53.452,54.06,53.452,23.677,0,54.06-17.289,54.06-53.452C-1057.854,2901.741-1088.236,2883.857-1111.913,2883.857Zm0,84.65c-13.907,0-29.211-10.532-29.211-30.8,0-20.667,15.3-31.2,29.211-31.2,14.107,0,29.41,10.531,29.41,31.2C-1082.5,2957.975-1097.807,2968.507-1111.913,2968.507Zm159.038,76.5c0-35.968-30.407-53.85-54.06-53.85-23.628,0-54.035,17.883-54.035,53.85,0,36.164,30.407,53.451,54.035,53.451C-983.282,3098.461-952.875,3081.174-952.875,3045.01Zm-54.06,30.8c-13.883,0-29.211-10.532-29.211-30.8,0-20.667,15.328-31.2,29.211-31.2,14.107,0,29.41,10.531,29.41,31.2C-977.525,3065.278-992.828,3075.81-1006.935,3075.81Zm-26.27-138.5c0,20.666,15.3,31.2,29.41,31.2a28.908,28.908,0,0,0,25.472-15.341l22.132,10.246c-10.194,18.523-30.631,27.75-47.6,27.75-23.653,0-54.06-17.884-54.06-53.851,0-36.164,30.407-53.452,54.06-53.452,17.073,0,37.685,9.033,47.8,27.687l-22.132,10.564a29.042,29.042,0,0,0-25.671-15.6C-1017.9,2906.509-1033.2,2917.041-1033.2,2937.309Zm-108.119,107.3c0,20.666,15.3,31.2,29.41,31.2a29.011,29.011,0,0,0,25.522-15.341l22.132,10.246c-10.194,18.523-30.681,27.748-47.654,27.748-23.628,0-54.06-17.883-54.06-53.85,0-36.164,30.432-53.452,54.06-53.452,17.1,0,37.71,9.033,47.829,27.687l-22.107,10.564a29.144,29.144,0,0,0-25.721-15.6C-1126.02,3013.811-1141.323,3024.344-1141.323,3044.612Zm27.865-268.676c-23.628,0-54.06,17.884-54.06,53.851,0,36.164,30.432,53.452,54.06,53.452s54.06-17.288,54.06-53.452C-1059.4,2793.82-1089.831,2775.936-1113.459,2775.936Zm0,84.651c-13.907,0-29.21-10.533-29.21-30.8,0-20.667,15.3-31.2,29.21-31.2,14.107,0,29.41,10.531,29.41,31.2C-1084.049,2850.054-1099.352,2860.587-1113.459,2860.587Zm-159.038-31.2c0-36.163,30.407-53.452,54.06-53.452,17.073,0,37.71,9.034,47.8,27.688l-22.107,10.564a29.079,29.079,0,0,0-25.7-15.6c-14.107,0-29.41,10.532-29.41,30.8,0,20.666,15.3,31.2,29.41,31.2a28.974,28.974,0,0,0,25.5-15.341l22.132,10.245c-10.169,18.524-30.656,27.749-47.629,27.749C-1242.09,2883.239-1272.5,2865.355-1272.5,2829.388Zm106.524,108.32c0,36.163-30.382,53.452-54.01,53.452-17.1,0-37.71-9.034-47.854-27.688l22.132-10.563a29.116,29.116,0,0,0,25.721,15.6c14.082,0,29.41-10.532,29.41-30.8,0-20.667-15.328-31.2-29.41-31.2a28.983,28.983,0,0,0-25.522,15.341l-22.132-10.245c10.194-18.524,30.656-27.75,47.654-27.75C-1196.355,2883.857-1165.973,2901.741-1165.973,2937.708Zm-54.01,53.452c23.628,0,54.01,17.883,54.01,53.85,0,36.164-30.382,53.451-54.01,53.451-17.1,0-37.71-9.033-47.854-27.687l22.132-10.565a29.115,29.115,0,0,0,25.721,15.6c14.082,0,29.41-10.532,29.41-30.8,0-20.667-15.328-31.2-29.41-31.2a28.983,28.983,0,0,0-25.522,15.341l-22.132-10.245C-1257.443,3000.385-1236.981,2991.16-1219.983,2991.16Zm213.048-215.224c23.653,0,54.06,17.884,54.06,53.851,0,36.164-30.407,53.452-54.06,53.452-17.073,0-37.685-9.033-47.8-27.687l22.132-10.564a29.015,29.015,0,0,0,25.672,15.6c14.107,0,29.41-10.533,29.41-30.8,0-20.667-15.3-31.2-29.41-31.2a28.909,28.909,0,0,0-25.472,15.342l-22.157-10.246C-1044.37,2785.162-1023.908,2775.936-1006.935,2775.936Zm-425.349,537.749c23.628,0,54.06-17.289,54.06-53.451,0-35.968-30.432-53.851-54.06-53.851s-54.06,17.884-54.06,53.851C-1486.343,3296.4-1455.911,3313.685-1432.283,3313.685Zm0-84.65c14.107,0,29.41,10.532,29.41,31.2,0,20.267-15.3,30.8-29.41,30.8-13.907,0-29.211-10.533-29.211-30.8C-1461.494,3239.567-1446.191,3229.036-1432.283,3229.036Zm104.979,84.65c-23.628,0-54.06,17.883-54.06,53.851,0,36.164,30.432,53.452,54.06,53.452,23.653,0,54.06-17.288,54.06-53.452C-1273.245,3331.568-1303.652,3313.685-1327.3,3313.685Zm0,84.651c-13.907,0-29.211-10.533-29.211-30.8,0-20.666,15.3-31.2,29.211-31.2,14.107,0,29.41,10.531,29.41,31.2C-1297.894,3387.8-1313.2,3398.336-1327.3,3398.336Zm-26.295-138.5c0,20.666,15.278,31.2,29.41,31.2a28.945,28.945,0,0,0,25.5-15.341l22.132,10.245c-10.194,18.523-30.631,27.75-47.629,27.75-23.653,0-54.035-17.884-54.035-53.851,0-36.164,30.382-53.452,54.035-53.452,17.1,0,37.685,9.033,47.829,27.687l-22.132,10.564a29.108,29.108,0,0,0-25.7-15.6C-1338.321,3229.034-1353.6,3239.567-1353.6,3259.834Zm-108.094,107.3c0,20.667,15.3,31.2,29.41,31.2a28.973,28.973,0,0,0,25.5-15.341l22.132,10.245c-10.169,18.523-30.656,27.749-47.629,27.749-23.653,0-54.06-17.883-54.06-53.851,0-36.164,30.407-53.452,54.06-53.452,17.073,0,37.685,9.033,47.8,27.688l-22.132,10.564a29.014,29.014,0,0,0-25.672-15.6C-1446.39,3336.337-1461.693,3346.87-1461.693,3367.137Zm27.865-268.676c-23.677,0-54.06,17.884-54.06,53.851,0,36.164,30.382,53.452,54.06,53.452,23.628,0,54.01-17.288,54.01-53.452C-1379.819,3116.345-1410.2,3098.461-1433.828,3098.461Zm0,84.652c-13.932,0-29.211-10.533-29.211-30.8,0-20.666,15.278-31.2,29.211-31.2,14.107,0,29.41,10.531,29.41,31.2C-1404.418,3172.58-1419.721,3183.113-1433.828,3183.113Zm-159.038-31.2c0-36.163,30.407-53.452,54.035-53.452,17.1,0,37.685,9.034,47.829,27.688l-22.132,10.564a29.079,29.079,0,0,0-25.7-15.6c-14.082,0-29.41,10.533-29.41,30.8,0,20.667,15.328,31.2,29.41,31.2a28.917,28.917,0,0,0,25.5-15.341l22.132,10.245c-10.194,18.524-30.631,27.75-47.629,27.75C-1562.46,3205.764-1592.867,3187.881-1592.867,3151.913Zm52.464,161.772c-17.073,0-37.685-9.034-47.8-27.688l22.132-10.564a29.043,29.043,0,0,0,25.671,15.6c14.132,0,29.41-10.533,29.41-30.8,0-20.667-15.278-31.2-29.41-31.2a28.936,28.936,0,0,0-25.472,15.341l-22.132-10.245c10.169-18.524,30.631-27.75,47.6-27.75,23.678,0,54.06,17.884,54.06,53.851C-1486.343,3296.4-1516.725,3313.685-1540.4,3313.685Zm54.06,53.851c0,36.164-30.382,53.452-54.06,53.452-17.073,0-37.685-9.033-47.8-27.687l22.132-10.564a29.042,29.042,0,0,0,25.671,15.6c14.132,0,29.41-10.533,29.41-30.8,0-20.666-15.278-31.2-29.41-31.2a28.936,28.936,0,0,0-25.472,15.341l-22.132-10.246c10.169-18.523,30.631-27.749,47.6-27.749C-1516.725,3313.685-1486.343,3331.568-1486.343,3367.536Zm159.038-269.074c23.653,0,54.06,17.884,54.06,53.851,0,36.164-30.407,53.452-54.06,53.452-17.073,0-37.71-9.033-47.829-27.687l22.132-10.564a29.08,29.08,0,0,0,25.7,15.6c14.107,0,29.41-10.533,29.41-30.8,0-20.666-15.3-31.2-29.41-31.2a28.974,28.974,0,0,0-25.5,15.341l-22.157-10.245C-1364.765,3107.688-1344.277,3098.461-1327.3,3098.461Zm215.391,215.224c23.677,0,54.06-17.289,54.06-53.451,0-35.968-30.382-53.851-54.06-53.851-23.628,0-54.06,17.884-54.06,53.851C-1165.973,3296.4-1135.541,3313.685-1111.913,3313.685Zm0-84.65c14.107,0,29.41,10.532,29.41,31.2,0,20.267-15.3,30.8-29.41,30.8-13.907,0-29.211-10.533-29.211-30.8C-1141.124,3239.567-1125.821,3229.036-1111.913,3229.036Zm104.979,84.65c-23.628,0-54.035,17.883-54.035,53.851,0,36.164,30.407,53.452,54.035,53.452,23.653,0,54.06-17.288,54.06-53.452C-952.875,3331.568-983.282,3313.685-1006.935,3313.685Zm0,84.651c-13.883,0-29.211-10.533-29.211-30.8,0-20.666,15.328-31.2,29.211-31.2,14.107,0,29.41,10.531,29.41,31.2C-977.525,3387.8-992.828,3398.336-1006.935,3398.336Zm-26.27-138.5c0,20.666,15.3,31.2,29.41,31.2a28.908,28.908,0,0,0,25.472-15.341l22.132,10.245c-10.194,18.523-30.631,27.75-47.6,27.75-23.653,0-54.06-17.884-54.06-53.851,0-36.164,30.407-53.452,54.06-53.452,17.073,0,37.685,9.033,47.8,27.687l-22.132,10.564a29.043,29.043,0,0,0-25.671-15.6C-1017.9,3229.034-1033.2,3239.567-1033.2,3259.834Zm-108.119,107.3c0,20.667,15.3,31.2,29.41,31.2a29.011,29.011,0,0,0,25.522-15.341l22.132,10.245c-10.194,18.523-30.681,27.749-47.654,27.749-23.628,0-54.06-17.883-54.06-53.851,0-36.164,30.432-53.452,54.06-53.452,17.1,0,37.71,9.033,47.829,27.688l-22.107,10.564a29.143,29.143,0,0,0-25.721-15.6C-1126.02,3336.337-1141.323,3346.87-1141.323,3367.137Zm27.865-268.676c-23.628,0-54.06,17.884-54.06,53.851,0,36.164,30.432,53.452,54.06,53.452s54.06-17.288,54.06-53.452C-1059.4,3116.345-1089.831,3098.461-1113.459,3098.461Zm0,84.652c-13.907,0-29.21-10.533-29.21-30.8,0-20.666,15.3-31.2,29.21-31.2,14.107,0,29.41,10.531,29.41,31.2C-1084.049,3172.58-1099.352,3183.113-1113.459,3183.113Zm-159.038-31.2c0-36.163,30.407-53.452,54.06-53.452,17.073,0,37.71,9.034,47.8,27.688l-22.107,10.564a29.079,29.079,0,0,0-25.7-15.6c-14.107,0-29.41,10.533-29.41,30.8,0,20.667,15.3,31.2,29.41,31.2a28.974,28.974,0,0,0,25.5-15.341l22.132,10.245c-10.169,18.524-30.656,27.75-47.629,27.75C-1242.09,3205.764-1272.5,3187.881-1272.5,3151.913Zm52.514,161.772c-17.1,0-37.71-9.034-47.854-27.688l22.132-10.564a29.116,29.116,0,0,0,25.721,15.6c14.082,0,29.41-10.533,29.41-30.8,0-20.667-15.328-31.2-29.41-31.2a28.983,28.983,0,0,0-25.522,15.341l-22.132-10.245c10.194-18.524,30.656-27.75,47.654-27.75,23.628,0,54.01,17.884,54.01,53.851C-1165.973,3296.4-1196.355,3313.685-1219.983,3313.685Zm54.01,53.851c0,36.164-30.382,53.452-54.01,53.452-17.1,0-37.71-9.033-47.854-27.687l22.132-10.564a29.116,29.116,0,0,0,25.721,15.6c14.082,0,29.41-10.533,29.41-30.8,0-20.666-15.328-31.2-29.41-31.2a28.983,28.983,0,0,0-25.522,15.341l-22.132-10.246c10.194-18.523,30.656-27.749,47.654-27.749C-1196.355,3313.685-1165.973,3331.568-1165.973,3367.536Zm159.038-269.074c23.653,0,54.06,17.884,54.06,53.851,0,36.164-30.407,53.452-54.06,53.452-17.073,0-37.685-9.033-47.8-27.687l22.132-10.564a29.015,29.015,0,0,0,25.672,15.6c14.107,0,29.41-10.533,29.41-30.8,0-20.666-15.3-31.2-29.41-31.2a28.908,28.908,0,0,0-25.472,15.341l-22.157-10.245C-1044.37,3107.688-1023.908,3098.461-1006.935,3098.461Z" transform="translate(2872.875 -2130.884)"/></g><rect class="e" width="1920" height="865" transform="translate(0 2695)"/><rect class="f" width="1920" height="863" transform="translate(0 2695)"/></g></svg>