<svg xmlns="http://www.w3.org/2000/svg" width="59.889" height="43" viewBox="0 0 59.889 43"><defs><style>.a{opacity:0.1;}.b{fill:#2d3748;}</style></defs><g transform="translate(-643.255 -3967.695)"><g class="a" transform="translate(643.255 3891.695)"><g transform="translate(39.53 78.794)"><g transform="translate(0 0)"><path class="b" d="M369.08,101.721l-16.869,17.206,16.869,17.206a5.069,5.069,0,0,0,.49-2.15V103.871A5.069,5.069,0,0,0,369.08,101.721Z" transform="translate(-352.211 -101.721)"/></g></g><g transform="translate(2.794 76)"><g transform="translate(0 0)"><path class="b" d="M74.874,76H27.868a5.057,5.057,0,0,0-2.147.49L47.827,97.942a5.107,5.107,0,0,0,7.088,0L77.021,76.49A5.057,5.057,0,0,0,74.874,76Z" transform="translate(-25.721 -76)"/></g></g><g transform="translate(0 78.794)"><g transform="translate(0 0)"><path class="b" d="M.49,101.721a5.069,5.069,0,0,0-.49,2.15v30.111a5.068,5.068,0,0,0,.49,2.15l16.869-17.206Z" transform="translate(0 -101.721)"/></g></g><g transform="translate(2.794 98.75)"><g transform="translate(0 0)"><path class="b" d="M59.725,277.211,57.278,279.6a8.513,8.513,0,0,1-11.813,0l-2.447-2.387-17.3,16.761a5.057,5.057,0,0,0,2.147.49H74.874a5.057,5.057,0,0,0,2.147-.49Z" transform="translate(-25.721 -277.211)"/></g></g></g><g transform="translate(646.255 3894.695)"><g transform="translate(39.53 78.794)"><g transform="translate(0 0)"><path class="b" d="M369.08,101.721l-16.869,17.206,16.869,17.206a5.069,5.069,0,0,0,.49-2.15V103.871A5.069,5.069,0,0,0,369.08,101.721Z" transform="translate(-352.211 -101.721)"/></g></g><g transform="translate(2.794 76)"><g transform="translate(0 0)"><path class="b" d="M74.874,76H27.868a5.057,5.057,0,0,0-2.147.49L47.827,97.942a5.107,5.107,0,0,0,7.088,0L77.021,76.49A5.057,5.057,0,0,0,74.874,76Z" transform="translate(-25.721 -76)"/></g></g><g transform="translate(0 78.794)"><g transform="translate(0 0)"><path class="b" d="M.49,101.721a5.069,5.069,0,0,0-.49,2.15v30.111a5.068,5.068,0,0,0,.49,2.15l16.869-17.206Z" transform="translate(0 -101.721)"/></g></g><g transform="translate(2.794 98.75)"><g transform="translate(0 0)"><path class="b" d="M59.725,277.211,57.278,279.6a8.513,8.513,0,0,1-11.813,0l-2.447-2.387-17.3,16.761a5.057,5.057,0,0,0,2.147.49H74.874a5.057,5.057,0,0,0,2.147-.49Z" transform="translate(-25.721 -277.211)"/></g></g></g></g></svg>