<svg xmlns="http://www.w3.org/2000/svg" width="86.784" height="121.5" viewBox="0 0 86.784 121.5"><defs><style>.a{fill:#00a4cf;}</style></defs><g transform="translate(-406.18 -576.823)"><path class="a" d="M478.66,1105.384l-1.165.547a1.848,1.848,0,1,0,0,2.365l1.188.547a2.937,2.937,0,0,1-2.662,1.473,3.208,3.208,0,1,1,0-6.417A2.9,2.9,0,0,1,478.66,1105.384Zm7.035,1.735a3.232,3.232,0,1,1-3.232-3.22A3.181,3.181,0,0,1,485.695,1107.118Zm-4.979,0a1.756,1.756,0,1,0,1.747-1.866A1.755,1.755,0,0,0,480.716,1107.118Zm15.84-3.1-2.27,6.179h-1.45l-1.6-4.361-1.6,4.361H488.19l-2.27-6.179h1.521l1.485,4.313,1.64-4.313h1.343l1.628,4.313,1.485-4.313Zm6.678,3.1A3.232,3.232,0,1,1,500,1103.9,3.181,3.181,0,0,1,503.234,1107.118Zm-4.979,0a1.756,1.756,0,1,0,1.747-1.866A1.755,1.755,0,0,0,498.255,1107.118Zm10.076-3.172v1.461a2.268,2.268,0,0,0-2.59,2.044v2.745h-1.533v-6.179h1.533v1.557a2.179,2.179,0,0,1,2.162-1.652A2.5,2.5,0,0,1,508.332,1103.946Zm3.09,3.707-.57.594v1.949h-1.533v-8.4h1.533v4.587l2.2-2.365h1.83l-2.507,2.638,3.065,3.541h-1.758Zm6.179-4.4h-1.533V1101.8H517.6Zm0,6.94h-1.533v-6.179H517.6Zm7.141-3.565v3.565h-1.533v-3.47a1.294,1.294,0,0,0-1.331-1.485,1.548,1.548,0,0,0-1.485,1.307v3.648H518.86v-6.179h1.533v1.212a2.226,2.226,0,0,1,2.044-1.331C523.565,1103.9,524.742,1104.694,524.742,1106.631Zm7.486-2.614v6.179c0,1.865-1.794,2.448-3.1,2.448a3.554,3.554,0,0,1-1.711-.368v-1.26a3.5,3.5,0,0,0,1.711.356c1.093,0,1.58-.582,1.58-1.176v-.879h-.083a2.131,2.131,0,0,1-1.9,1,3.212,3.212,0,0,1,0-6.417,2.131,2.131,0,0,1,1.9,1h.083v-.879Zm-1.485,3.09a1.764,1.764,0,0,0-1.806-1.854,1.855,1.855,0,0,0,0,3.707A1.763,1.763,0,0,0,530.743,1107.107Zm-46.5,6.532c-.16,0-.295.09-.295.235,0,.12.08.2.25.27l.3.1c.39.14.739.3.739.769,0,.53-.47.8-1,.8a.949.949,0,0,1-1.009-.719l.51-.16a.517.517,0,0,0,.5.365c.21,0,.38-.12.38-.28,0-.115-.09-.2-.27-.275l-.3-.105c-.5-.18-.719-.44-.719-.779a.8.8,0,0,1,.889-.745.935.935,0,0,1,.934.645l-.535.145A.4.4,0,0,0,484.241,1113.639Zm9.174.834a1.289,1.289,0,0,1-1.284,1.349.9.9,0,0,1-.8-.42H491.3v1.319h-.644v-1.549h0v-2h.639v.37h.035a.9.9,0,0,1,.8-.42A1.289,1.289,0,0,1,493.415,1114.473Zm-.625,0a.734.734,0,0,0-.75-.779.78.78,0,0,0,0,1.559A.734.734,0,0,0,492.79,1114.473Zm5.9,0a1.289,1.289,0,0,1,1.284-1.349.9.9,0,0,1,.8.42h.035v-.37h.639v2.6h-.639v-.37h-.035a.9.9,0,0,1-.8.42A1.289,1.289,0,0,1,498.692,1114.473Zm2.133,0a.741.741,0,0,0-.759-.779.78.78,0,0,0,0,1.559A.741.741,0,0,0,500.825,1114.473Zm8.495-.724-.49.23a.777.777,0,1,0,0,.994l.5.23a1.235,1.235,0,0,1-1.119.62,1.349,1.349,0,1,1,0-2.7A1.219,1.219,0,0,1,509.32,1113.749Zm7.76.959h-1.944a.716.716,0,0,0,.754.57,1.074,1.074,0,0,0,.675-.2l.355.345a1.34,1.34,0,0,1-1.049.4,1.349,1.349,0,1,1-.045-2.7A1.286,1.286,0,0,1,517.08,1114.708Zm-1.939-.47h1.364a.673.673,0,0,0-.679-.565A.706.706,0,0,0,515.141,1114.239Z" transform="translate(-53.098 -418.399)"/><g transform="translate(406.18 576.823)"><g transform="translate(44.066 11.249)"><path class="a" d="M654.267,647.692c0,10.379-8.725,15.341-15.512,15.341s-15.512-4.962-15.512-15.341c0-10.323,8.726-15.455,15.512-15.455S654.267,637.37,654.267,647.692Zm-23.895,0a8.422,8.422,0,1,0,16.823,0c0-5.931-4.391-8.954-8.44-8.954C634.764,638.739,630.373,641.761,630.373,647.692Z" transform="translate(-623.244 -632.237)"/></g><g transform="translate(11.695 60.895)"><path class="a" d="M477.512,876.789a15.984,15.984,0,0,0-13.672,7.964l6.354,2.94a8.311,8.311,0,0,1,7.318-4.4c4.049,0,8.44,3.023,8.44,8.954a8.434,8.434,0,0,1-8.44,8.839,8.344,8.344,0,0,1-7.374-4.477l-6.35,3.032a15.907,15.907,0,0,0,13.724,7.946c6.786,0,15.511-4.961,15.511-15.341C493.023,881.921,484.3,876.789,477.512,876.789Z" transform="translate(-463.788 -876.789)"/></g><g transform="translate(11.695 11.249)"><path class="a" d="M479.3,663.033a15.984,15.984,0,0,0,13.672-7.964l-6.354-2.94a8.31,8.31,0,0,1-7.318,4.4c-4.049,0-8.44-3.023-8.44-8.954a8.434,8.434,0,0,1,8.44-8.839,8.343,8.343,0,0,1,7.374,4.477l6.35-3.032a15.908,15.908,0,0,0-13.724-7.946c-6.786,0-15.512,4.962-15.512,15.34C463.788,657.9,472.513,663.033,479.3,663.033Z" transform="translate(-463.788 -632.237)"/></g><g transform="translate(12.25 48.199)"><path class="a" d="M473.889,824.166h0l.469-3.528h17.811l.774-6.387H468.488l-1.834,13.576-.133,1.135a19.739,19.739,0,0,1,7.3-4.311Z" transform="translate(-466.521 -814.25)"/></g><g transform="translate(45.734 60.895)"><path class="a" d="M645.187,876.789a15.984,15.984,0,0,0-13.672,7.964l6.354,2.94a8.311,8.311,0,0,1,7.318-4.4c4.049,0,8.44,3.023,8.44,8.954a8.434,8.434,0,0,1-8.44,8.839,8.343,8.343,0,0,1-7.374-4.477l-6.35,3.032a15.907,15.907,0,0,0,13.724,7.946c6.786,0,15.512-4.961,15.512-15.341C660.7,881.921,651.973,876.789,645.187,876.789Z" transform="translate(-631.463 -876.789)"/></g><g transform="translate(46.289 48.199)"><path class="a" d="M641.564,824.166h0l.469-3.528h17.811l.774-6.387H636.163l-1.834,13.576-.133,1.135a19.737,19.737,0,0,1,7.3-4.311Z" transform="translate(-634.196 -814.25)"/></g><g transform="translate(0 0)"><path class="a" d="M487.234,887.782H411.909V845.713H406.18v47.8h86.784v-47.8h-5.729Z" transform="translate(-406.18 -791.126)"/><path class="a" d="M411.909,582.552h75.326v42.47h5.729v-48.2H406.18v48.2h5.729Z" transform="translate(-406.18 -576.823)"/></g></g></g></svg>