<svg xmlns="http://www.w3.org/2000/svg" width="217" height="63" viewBox="0 0 217 63"><defs><style>.a,.b{fill:#fff;}.a{opacity:0;}.c{fill:#00a4cf;}</style></defs><g transform="translate(-406.18 -576.823)"><rect class="a" width="217" height="63" transform="translate(406.18 576.823)"/><path class="b" d="M488,1111.105l-3.022,1.418a4.795,4.795,0,1,0,0,6.135l3.083,1.418a7.62,7.62,0,0,1-6.905,3.823,8.324,8.324,0,1,1,0-16.647A7.519,7.519,0,0,1,488,1111.105Zm18.25,4.5a8.385,8.385,0,1,1-8.385-8.355A8.253,8.253,0,0,1,506.25,1115.606Zm-12.917,0a4.556,4.556,0,1,0,4.532-4.84A4.553,4.553,0,0,0,493.333,1115.606Zm41.094-8.047-5.888,16.031h-3.761l-4.162-11.314-4.162,11.314h-3.73l-5.888-16.031h3.946l3.853,11.191,4.254-11.191h3.483l4.223,11.191,3.854-11.191Zm17.325,8.047a8.385,8.385,0,1,1-8.385-8.355A8.253,8.253,0,0,1,551.753,1115.606Zm-12.917,0a4.556,4.556,0,1,0,4.531-4.84A4.553,4.553,0,0,0,538.836,1115.606Zm26.142-8.231v3.791a5.885,5.885,0,0,0-6.72,5.3v7.121h-3.977V1107.56h3.977v4.038a5.653,5.653,0,0,1,5.61-4.285A6.453,6.453,0,0,1,564.978,1107.375Zm8.015,9.618-1.479,1.542v5.056h-3.977v-21.8h3.977v11.9l5.7-6.135h4.747l-6.5,6.844,7.953,9.187H578.85Zm16.031-11.406h-3.977V1101.8h3.977Zm0,18h-3.977V1107.56h3.977Zm18.527-9.248v9.248h-3.976v-9c0-2.775-1.634-3.853-3.453-3.853a4.015,4.015,0,0,0-3.854,3.391v9.464h-3.976V1107.56h3.976v3.145a5.774,5.774,0,0,1,5.3-3.453C604.5,1107.251,607.551,1109.317,607.551,1114.342Zm19.422-6.782v16.031c0,4.84-4.655,6.35-8.046,6.35a9.218,9.218,0,0,1-4.439-.955v-3.268a9.082,9.082,0,0,0,4.439.925c2.836,0,4.1-1.511,4.1-3.052v-2.281h-.216a5.528,5.528,0,0,1-4.932,2.589,8.334,8.334,0,0,1,0-16.647,5.527,5.527,0,0,1,4.932,2.59h.216v-2.281Zm-3.853,8.016a4.575,4.575,0,0,0-4.686-4.809,4.813,4.813,0,0,0,0,9.618A4.575,4.575,0,0,0,623.12,1115.575Zm-120.642,16.947c-.415,0-.765.233-.765.609,0,.311.207.531.648.7l.791.272c1.011.363,1.918.777,1.918,2,0,1.374-1.218,2.087-2.605,2.087a2.463,2.463,0,0,1-2.619-1.866l1.323-.415a1.341,1.341,0,0,0,1.3.946c.545,0,.985-.311.985-.726,0-.3-.233-.531-.7-.713l-.778-.273c-1.3-.466-1.867-1.141-1.867-2.021a2.079,2.079,0,0,1,2.307-1.932,2.427,2.427,0,0,1,2.424,1.672l-1.387.376A1.026,1.026,0,0,0,502.478,1132.522Zm23.8,2.165a3.345,3.345,0,0,1-3.331,3.5,2.323,2.323,0,0,1-2.074-1.089h-.091v3.422h-1.672V1136.5h.013v-5.185h1.659v.959h.091a2.324,2.324,0,0,1,2.074-1.089A3.345,3.345,0,0,1,526.279,1134.687Zm-1.62,0a1.9,1.9,0,0,0-1.945-2.022,2.023,2.023,0,0,0,0,4.044A1.9,1.9,0,0,0,524.658,1134.687Zm15.311,0a3.345,3.345,0,0,1,3.331-3.5,2.325,2.325,0,0,1,2.074,1.089h.091v-.959h1.659v6.74h-1.659v-.959h-.091a2.323,2.323,0,0,1-2.074,1.089A3.345,3.345,0,0,1,539.969,1134.687Zm5.535,0a1.924,1.924,0,0,0-1.97-2.022,2.024,2.024,0,0,0,0,4.044A1.924,1.924,0,0,0,545.5,1134.687Zm22.038-1.879-1.271.6a2.016,2.016,0,1,0,0,2.58l1.3.6a3.2,3.2,0,0,1-2.9,1.607,3.5,3.5,0,1,1,0-7A3.161,3.161,0,0,1,567.542,1132.808Zm20.133,2.488h-5.042a1.859,1.859,0,0,0,1.957,1.478,2.789,2.789,0,0,0,1.75-.518l.92.894a3.476,3.476,0,0,1-2.722,1.037,3.5,3.5,0,1,1-.117-7A3.335,3.335,0,0,1,587.675,1135.3Zm-5.03-1.218h3.539a1.747,1.747,0,0,0-1.763-1.464A1.832,1.832,0,0,0,582.645,1134.078Z" transform="translate(-3.922 -513.091)"/><g transform="translate(406.18 576.823)"><g transform="translate(26.864 6.858)"><path class="c" d="M642.157,641.659a9.457,9.457,0,1,1-9.457-9.422A9.308,9.308,0,0,1,642.157,641.659Zm-14.567,0A5.138,5.138,0,1,0,632.7,636.2,5.135,5.135,0,0,0,627.59,641.659Z" transform="translate(-623.244 -632.237)"/></g><g transform="translate(7.13 37.124)"><path class="c" d="M472.155,876.789a9.744,9.744,0,0,0-8.335,4.855l3.873,1.792a5.067,5.067,0,0,1,4.461-2.684,5.431,5.431,0,0,1,0,10.848,5.087,5.087,0,0,1-4.5-2.729l-3.871,1.848a9.7,9.7,0,0,0,8.367,4.844,9.387,9.387,0,1,0,0-18.774Z" transform="translate(-463.788 -876.789)"/></g><g transform="translate(7.13 6.858)"><path class="c" d="M473.245,651.012a9.745,9.745,0,0,0,8.335-4.855l-3.874-1.793a5.066,5.066,0,0,1-4.461,2.684,5.431,5.431,0,0,1,0-10.847,5.087,5.087,0,0,1,4.5,2.729l3.871-1.848a9.7,9.7,0,0,0-8.366-4.844,9.388,9.388,0,1,0,0,18.775Z" transform="translate(-463.788 -632.237)"/></g><g transform="translate(7.468 29.384)"><path class="c" d="M471.013,820.3h0l.286-2.151h10.859l.472-3.894H467.72l-1.118,8.276-.081.692a12.031,12.031,0,0,1,4.452-2.628Z" transform="translate(-466.521 -814.25)"/></g><g transform="translate(27.882 37.124)"><path class="c" d="M639.829,876.789a9.745,9.745,0,0,0-8.335,4.855l3.874,1.792a5.066,5.066,0,0,1,4.461-2.684,5.431,5.431,0,0,1,0,10.848,5.087,5.087,0,0,1-4.5-2.729l-3.871,1.848a9.7,9.7,0,0,0,8.366,4.844,9.387,9.387,0,1,0,0-18.774Z" transform="translate(-631.463 -876.789)"/></g><g transform="translate(28.22 29.384)"><path class="c" d="M638.688,820.3h0l.286-2.151h10.859l.472-3.894H635.395l-1.118,8.276-.081.692a12.03,12.03,0,0,1,4.452-2.628Z" transform="translate(-634.196 -814.25)"/></g><path class="c" d="M455.594,871.36H409.672V845.713H406.18v29.14h52.907v-29.14h-3.493Z" transform="translate(-406.18 -812.435)"/><path class="c" d="M409.672,580.316h45.922v25.892h3.493V576.823H406.18v29.385h3.493Z" transform="translate(-406.18 -576.823)"/></g></g></svg>