<svg xmlns="http://www.w3.org/2000/svg" width="65.575" height="61.993" viewBox="0 0 65.575 61.993"><defs><style>.a{opacity:0.1;}.b{fill:#2d3748;}</style></defs><g transform="translate(-396.868 -3953)"><g class="a" transform="translate(-216.761 3403.143)"><path class="b" d="M-4007.218-9590.507h-46.022a8.009,8.009,0,0,1-8-8v-5.635a8.01,8.01,0,0,1,8-8h46.022a8.01,8.01,0,0,1,8,8v5.635A8.009,8.009,0,0,1-4007.218-9590.507Zm-48.966-11.838a1.02,1.02,0,0,0-1.018,1.021,1.019,1.019,0,0,0,1.018,1.018h5.816a1.019,1.019,0,0,0,1.018-1.018,1.021,1.021,0,0,0-1.018-1.021Z" transform="translate(4674.868 10199.356)"/><rect class="b" width="2.998" height="21.636" rx="1.499" transform="translate(660.148 568.4)"/><g transform="translate(652.295 559.176)"><g transform="translate(0 0)"><path class="b" d="M693.089,572.3a1.549,1.549,0,0,1-1.316-.727,7.652,7.652,0,0,0-12.973,0,1.552,1.552,0,0,1-2.629-1.648,10.755,10.755,0,0,1,18.232,0,1.551,1.551,0,0,1-1.313,2.376Z" transform="translate(-675.934 -564.874)"/></g></g><g transform="translate(646.035 549.857)"><g transform="translate(0)"><path class="b" d="M667.4,559.427a1.551,1.551,0,0,1-1.177-2.562,20.071,20.071,0,0,1,30.416-.071,1.552,1.552,0,0,1-2.346,2.032,16.967,16.967,0,0,0-25.715.06A1.548,1.548,0,0,1,667.4,559.427Z" transform="translate(-665.848 -549.857)"/></g></g></g><g transform="translate(-214.761 3406.143)"><path class="b" d="M-4007.218-9590.507h-46.022a8.009,8.009,0,0,1-8-8v-5.635a8.01,8.01,0,0,1,8-8h46.022a8.01,8.01,0,0,1,8,8v5.635A8.009,8.009,0,0,1-4007.218-9590.507Zm-48.966-11.838a1.02,1.02,0,0,0-1.018,1.021,1.019,1.019,0,0,0,1.018,1.018h5.816a1.019,1.019,0,0,0,1.018-1.018,1.021,1.021,0,0,0-1.018-1.021Z" transform="translate(4674.868 10199.356)"/><rect class="b" width="2.998" height="21.636" rx="1.499" transform="translate(660.148 568.4)"/><g transform="translate(652.295 559.176)"><g transform="translate(0 0)"><path class="b" d="M693.089,572.3a1.549,1.549,0,0,1-1.316-.727,7.652,7.652,0,0,0-12.973,0,1.552,1.552,0,0,1-2.629-1.648,10.755,10.755,0,0,1,18.232,0,1.551,1.551,0,0,1-1.313,2.376Z" transform="translate(-675.934 -564.874)"/></g></g><g transform="translate(646.035 549.857)"><g transform="translate(0)"><path class="b" d="M667.4,559.427a1.551,1.551,0,0,1-1.177-2.562,20.071,20.071,0,0,1,30.416-.071,1.552,1.552,0,0,1-2.346,2.032,16.967,16.967,0,0,0-25.715.06A1.548,1.548,0,0,1,667.4,559.427Z" transform="translate(-665.848 -549.857)"/></g></g></g></g></svg>