<svg xmlns="http://www.w3.org/2000/svg" width="23.084" height="24" viewBox="0 0 23.084 24"><defs><style>.a{fill:#2d3748;}</style></defs><g transform="translate(-0.625)"><g transform="translate(0.625)"><path class="a" d="M21.694.916H20.87A.725.725,0,0,0,20.913.7.7.7,0,0,0,19.5.7a.661.661,0,0,0,.043.212h-2.7A.7.7,0,0,0,16.893.7a.7.7,0,0,0-1.41,0,.681.681,0,0,0,.043.212h-2.7A.7.7,0,0,0,12.872.7a.7.7,0,0,0-1.409,0,.7.7,0,0,0,.043.212h-2.7A.7.7,0,0,0,8.851.7.7.7,0,0,0,7.442.7a.681.681,0,0,0,.043.212h-2.7A.681.681,0,0,0,4.83.7.7.7,0,1,0,3.421.7a.7.7,0,0,0,.043.212H2.64A2.017,2.017,0,0,0,.625,2.931V21.985A2.016,2.016,0,0,0,2.64,24H19.418l4.291-4.291V2.931A2.016,2.016,0,0,0,21.694.916Zm.916,18.337-.228.228H20.655a1.469,1.469,0,0,0-1.466,1.466v1.726l-.227.228H2.64a.917.917,0,0,1-.916-.916V6.6H22.61Z" transform="translate(-0.625)"/><path class="a" d="M-2543.545-8954.3h-.561a.777.777,0,0,1-.792-.76v-.384a.259.259,0,0,0-.261-.255h-2.275a.778.778,0,0,1-.792-.761v-.1a1.988,1.988,0,0,1,.372-1.069l2.455-3.134a1.475,1.475,0,0,1,1.057-.506h.8a.779.779,0,0,1,.792.764v3.042a.237.237,0,0,0,.212.255.749.749,0,0,1,.74.755.748.748,0,0,1-.74.754.237.237,0,0,0-.212.255v.384A.777.777,0,0,1-2543.545-8954.3Zm-1.353-4.667h0l-1.314,1.751,0,.007.009,0h1.045a.258.258,0,0,0,.261-.255v-1.5Zm-4.381,4.667h-4.7a.762.762,0,0,1-.587-.264.631.631,0,0,1-.13-.547,2.808,2.808,0,0,1,.355-.855,4.3,4.3,0,0,1,1.763-1.461,12.592,12.592,0,0,0,1.441-.881.969.969,0,0,0,.42-.738.648.648,0,0,0-.211-.5.96.96,0,0,0-.666-.2.879.879,0,0,0-.8.311.98.98,0,0,0-.1.3.829.829,0,0,1-.834.616h-.551a.759.759,0,0,1-.58-.258.635.635,0,0,1-.146-.55,2.438,2.438,0,0,1,.368-.928,2.9,2.9,0,0,1,2.572-1.087,3.825,3.825,0,0,1,2.282.622,2.03,2.03,0,0,1,.9,1.716,2.018,2.018,0,0,1-.632,1.458,5.412,5.412,0,0,1-1.261.875l-.666.364c-.312.172-.514.286-.655.371h2.432a.779.779,0,0,1,.792.764v.11A.777.777,0,0,1-2549.279-8954.3Z" transform="translate(2559.801 8971.779)"/></g></g></svg>