<svg xmlns="http://www.w3.org/2000/svg" width="74.301" height="42.609" viewBox="0 0 74.301 42.609"><defs><style>.a{fill:#2d3748;}</style></defs><g transform="translate(0 -12.289)"><g transform="translate(0 12.288)"><path class="a" d="M53.368,25.989c-10.752-5.673-21.96-10.517-33.793-13.421-8.544-2.1-13.09,8.117-8.961,13.5a5.258,5.258,0,0,0,1.541,3.152,91.6,91.6,0,0,1,7.711,9.229,69.188,69.188,0,0,1-12.994-.476c-6.892-1.023-9.86,9.511-2.905,10.54,8.564,1.266,17.357.87,25.967.193,3.792-.3,7.251-4.533,4.718-8.223-1.573-2.291-3.171-4.595-4.818-6.873q4.52,1.791,8.918,3.914c.449,6.106,4.1,12,9.011,16.039,5.4,4.44,13.175-3.247,7.729-7.728a21.906,21.906,0,0,1-4.221-4.525C57.515,39.362,60.761,29.891,53.368,25.989Z" transform="translate(0 -12.288)"/><circle class="a" cx="8.093" cy="8.093" r="8.093" transform="translate(58.115 17.502)"/></g></g></svg>