<svg xmlns="http://www.w3.org/2000/svg" width="54.22" height="56.002" viewBox="0 0 54.22 56.002"><defs><style>.a{fill:#2d3748;}</style></defs><g transform="translate(0 0.002)"><g transform="translate(0 -1)"><path class="a" d="M14,9a4,4,0,0,1,8,0v7.13c.12.21.23.43.33.65A5.3,5.3,0,0,1,24,16.1V9A6,6,0,0,0,12,9v3.58a7.958,7.958,0,0,1,2-.52Z"/><path class="a" d="M24,21h4a3.009,3.009,0,0,0-3-3,2.852,2.852,0,0,0-1,.18Z"/><circle class="a" cx="1" cy="1" r="1" transform="translate(22 33)"/><path class="a" d="M24,23v4h7a1,1,0,0,0,1-1V24a1,1,0,0,0-1-1Z"/><path class="a" d="M18,23h4v4H18Z"/><path class="a" d="M4,23H1a1,1,0,0,0-1,1v2a1,1,0,0,0,1,1H4Z"/><path class="a" d="M3,19a2.963,2.963,0,0,0,.79,2H4V20a1,1,0,0,1,2,0V35a1,1,0,0,0,1,1,.928.928,0,0,0,.69-.29A.949.949,0,0,0,8,35V32a3,3,0,0,1,6,0v7a1,1,0,0,0,1,1,.928.928,0,0,0,.69-.29A.949.949,0,0,0,16,39V20a1,1,0,0,1,2,0v1h4V19.54a.984.984,0,0,1-1.13-.78A6.006,6.006,0,0,0,15,14a5.139,5.139,0,0,0-.88.07,5.927,5.927,0,0,0-4.25,2.84,1.041,1.041,0,0,1-.78.48,1.023,1.023,0,0,1-.84-.34A2.953,2.953,0,0,0,6,16a3.009,3.009,0,0,0-3,3Z"/><path class="a" d="M24.01,48.88a18.774,18.774,0,0,1,4.96-10.64L29.89,29H24v2.18a3,3,0,1,1-2,0V29H18V39a3,3,0,0,1-6,0V32a.928.928,0,0,0-.29-.69A.949.949,0,0,0,11,31a1,1,0,0,0-1,1v3a3,3,0,1,1-6,0V29H2.11L4.63,54.3A3,3,0,0,0,7.62,57H24.38a2.978,2.978,0,0,0,1.57-.47c-.12-.12-.26-.23-.38-.36-1.46-1.65-1.97-4.04-1.56-7.29ZM15,50a3,3,0,1,1,3-3A3,3,0,0,1,15,50Z"/><circle class="a" cx="1" cy="1" r="1" transform="translate(14 46)"/><path class="a" d="M45,44V35.29L38.76,33.3c-6.09,3.56-11.79,7.98-12.77,15.82-.33,2.66.02,4.53,1.08,5.73,1.17,1.32,3.3,1.84,5.72,2.04a8.9,8.9,0,0,1-2.49-4.3c-1.12-4.6,1.75-8.96,1.87-9.14a1,1,0,1,1,1.66,1.1c-.02.04-2.5,3.84-1.59,7.58A7.9,7.9,0,0,0,36.28,57h4.3C38.86,55.67,37,53.37,37,49c0-7.33,3.16-10.57,3.29-10.71a1,1,0,0,1,1.42,1.42C41.68,39.73,39,42.56,39,49c0,5,2.69,6.49,4.47,7.47.34.19.61.36.86.53h4.4a1,1,0,0,0,.8-1.593C47.46,52.587,45,48.328,45,44Z"/><path class="a" d="M39.953,31.584l5.715,1.822a1,1,0,0,0,1.256-.648v-.005a1,1,0,0,0-.649-1.257L40.56,29.674a1,1,0,0,0-1.256.648v0a1,1,0,0,0,.649,1.257Z"/><path class="a" d="M54,2.08a2.047,2.047,0,0,0-1.17-.99,2.018,2.018,0,0,0-2.52,1.3L42.423,27.118a1,1,0,0,0,.648,1.257l1.906.61a1,1,0,0,0,1.257-.649L54.12,3.61A1.987,1.987,0,0,0,54,2.08Z"/><path class="a" d="M4,11A3,3,0,1,0,1,8,3,3,0,0,0,4,11ZM4,7A1,1,0,1,1,3,8,1,1,0,0,1,4,7Z"/><path class="a" d="M31,13a3,3,0,1,0-3-3A3,3,0,0,0,31,13Zm0-4a1,1,0,1,1-1,1A1,1,0,0,1,31,9Z"/><circle class="a" cx="1" cy="1" r="1" transform="translate(26 2)"/><circle class="a" cx="1" cy="1" r="1" transform="translate(9 2)"/></g></g></svg>