<svg xmlns="http://www.w3.org/2000/svg" width="59.029" height="70.476" viewBox="0 0 59.029 70.476"><defs><style>.a{fill:#2d3748;}</style></defs><path class="a" d="M75.272,0H33.3a1.6,1.6,0,0,0-1.6,1.6V22.341a4.312,4.312,0,0,0-3.418.878l-3.7,2.907a6.2,6.2,0,0,0-.62-.033A6.138,6.138,0,0,0,20.185,27.4a6.117,6.117,0,0,0,3.782,10.926,6.1,6.1,0,0,0,6.05-5.289L31.7,31.716V68.872a1.6,1.6,0,0,0,1.6,1.6H75.272a1.6,1.6,0,0,0,1.6-1.6V1.6A1.6,1.6,0,0,0,75.272,0ZM31.7,27.637l-2.286,1.8a6.058,6.058,0,0,0-1.471-1.869l2.32-1.824a1.178,1.178,0,0,1,1.436-.02v1.916ZM72.781,52.429H69.574V46.656h3.207Zm0-8.98H69.574V27.027h3.207Zm0-19.629H69.574V18.047h3.207Zm0-8.98H69.574V7.532H39V62.944H69.574V55.636h3.207v8.912a1.6,1.6,0,0,1-1.6,1.6H37.4a1.6,1.6,0,0,1-1.6-1.6V5.928a1.6,1.6,0,0,1,1.6-1.6H71.177a1.6,1.6,0,0,1,1.6,1.6Zm-25.752,30-1-1.861a.523.523,0,0,1,.545-.764l2.085.338a.523.523,0,0,0,.462-.155l1.461-1.526a.523.523,0,0,1,.895.282l.322,2.088a.523.523,0,0,0,.29.391l1.9.918a.523.523,0,0,1,.008.938l-1.886.952a.523.523,0,0,0-.283.4l-.285,2.093a.523.523,0,0,1-.89.3l-1.488-1.5a.523.523,0,0,0-.464-.146l-2.079.376a.523.523,0,0,1-.558-.754l.966-1.879A.523.523,0,0,0,47.029,44.844Zm-.2-12.449a1.6,1.6,0,0,1,0-3.207H61.747a1.6,1.6,0,1,1,0,3.207Zm14.921-6.909H46.826a1.6,1.6,0,1,1,0-3.207H61.747a1.6,1.6,0,0,1,0,3.207Zm0-6.909H46.826a1.6,1.6,0,1,1,0-3.207H61.747a1.6,1.6,0,0,1,0,3.207Z" transform="translate(-17.847)"/></svg>