<svg xmlns="http://www.w3.org/2000/svg" width="56.935" height="73.136" viewBox="0 0 56.935 73.136"><defs><style>.a{fill:#2d3748;}</style></defs><g transform="translate(-56.708)"><path class="a" d="M62.146,364.989a8.738,8.738,0,0,0-5.438,7.761v7.84a2.143,2.143,0,0,0,2.143,2.143H83.033v-13.1l-10.425-8.445Zm13.981,9.173a2.143,2.143,0,0,1-2.143,2.143H69.7a2.143,2.143,0,0,1,0-4.285h4.285A2.143,2.143,0,0,1,76.127,374.162Z" transform="translate(0 -309.597)"/><path class="a" d="M206.256,318.253a18.781,18.781,0,0,1-18.9,0l-.414,2.808,9.864,7.991,9.864-7.991Z" transform="translate(-111.63 -272.793)"/><path class="a" d="M168.24,183.978l-14.1-3.017v3.326a14.55,14.55,0,1,0,29.1,0v-3.327l-14.1,3.017a2.147,2.147,0,0,1-.448.047A2.118,2.118,0,0,1,168.24,183.978Z" transform="translate(-83.513 -155.112)"/><path class="a" d="M291.886,364.99l-10.461-3.8L271,369.637v13.1h24.182a2.143,2.143,0,0,0,2.143-2.143v-7.84A8.738,8.738,0,0,0,291.886,364.99Zm-9.866,11.316a2.143,2.143,0,1,1,2.143-2.143A2.143,2.143,0,0,1,282.02,376.306Z" transform="translate(-183.682 -309.598)"/><path class="a" d="M154.105,13.235V10.714a2.143,2.143,0,1,1,4.285,0v2.521h14.08a5.734,5.734,0,0,0,.2-3.593,5.844,5.844,0,0,0-3.079-3.657c-.777-.465-6.395-3.823-8.476-4.917a11.637,11.637,0,0,0-9.741,0c-2.082,1.094-7.7,4.451-8.476,4.917a5.845,5.845,0,0,0-3.079,3.657,5.734,5.734,0,0,0,.2,3.593Z" transform="translate(-71.072 0)"/><path class="a" d="M183.239,122.656h-29.1V126.6l14.55,3.113,14.551-3.113Z" transform="translate(-83.513 -105.135)"/></g></svg>