<svg xmlns="http://www.w3.org/2000/svg" width="57.475" height="57.475" viewBox="0 0 57.475 57.475"><defs><style>.a{fill:#2d3748;}</style></defs><path class="a" d="M51.488,34.737H44.3a1.2,1.2,0,0,1,0-2.395h7.184A3.6,3.6,0,0,0,55.08,28.75V11.987a3.6,3.6,0,0,0-3.592-3.592H5.987a3.6,3.6,0,0,0-3.592,3.592V28.75a3.6,3.6,0,0,0,3.592,3.592h7.184a1.2,1.2,0,0,1,0,2.395H5.987A5.994,5.994,0,0,1,0,28.75V11.987A5.994,5.994,0,0,1,5.987,6h45.5a5.994,5.994,0,0,1,5.987,5.987V28.75A5.994,5.994,0,0,1,51.488,34.737Z" transform="translate(0 8.369)"/><path class="a" d="M23.566,22.395H9.2A1.2,1.2,0,1,1,9.2,20H23.566a1.2,1.2,0,0,1,0,2.395Z" transform="translate(11.158 27.896)"/><path class="a" d="M23.566,20.395H9.2A1.2,1.2,0,1,1,9.2,18H23.566a1.2,1.2,0,0,1,0,2.395Z" transform="translate(11.158 25.106)"/><path class="a" d="M13.987,18.395H9.2A1.2,1.2,0,0,1,9.2,16h4.79a1.2,1.2,0,0,1,0,2.395Z" transform="translate(11.158 22.316)"/><path class="a" d="M37.329,16.763a1.2,1.2,0,0,1-1.2-1.2V5.987A3.6,3.6,0,0,0,32.54,2.395H10.987A3.6,3.6,0,0,0,7.395,5.987v9.579a1.2,1.2,0,0,1-2.395,0V5.987A5.994,5.994,0,0,1,10.987,0H32.54a5.994,5.994,0,0,1,5.987,5.987v9.579A1.2,1.2,0,0,1,37.329,16.763Z" transform="translate(6.974)"/><path class="a" d="M32.54,39.343H10.987A5.994,5.994,0,0,1,5,33.356V14.2A1.2,1.2,0,0,1,6.2,13H37.329a1.2,1.2,0,0,1,1.2,1.2V33.356A5.994,5.994,0,0,1,32.54,39.343ZM7.395,15.395V33.356a3.6,3.6,0,0,0,3.592,3.592H32.54a3.6,3.6,0,0,0,3.592-3.592V15.395Z" transform="translate(6.974 18.132)"/><path class="a" d="M36.2,21.763a1.2,1.2,0,0,1-1.2-1.2V5.987a3.6,3.6,0,0,0-3.592-3.592H-2.013A3.6,3.6,0,0,0-5.605,5.987V20.566a1.2,1.2,0,0,1-1.2,1.2,1.2,1.2,0,0,1-1.2-1.2V5.987A5.994,5.994,0,0,1-2.013,0H31.412A5.994,5.994,0,0,1,37.4,5.987V20.566A1.2,1.2,0,0,1,36.2,21.763Z" transform="translate(14.495 20.356)"/><path class="a" d="M16.2,15.513H4.131L.874,19.346V37.931l3.257,3.929H7.58v-16L9.209,22.6l2.682-1.054H47.913l2.875,3.545V41.859l3.257-.671,1.82-2.3.671-2.4V19.346l-3.545-3.833Z"/></svg>