<svg xmlns="http://www.w3.org/2000/svg" width="42.857" height="60" viewBox="0 0 42.857 60"><defs><style>.a{fill:#2d3748;}</style></defs><g transform="translate(-96 -32)"><path class="a" d="M144,64h2.143v4.286H144Z" transform="translate(-41.571 -27.714)"/><path class="a" d="M224,144h2.143v6.429H224Z" transform="translate(-110.857 -97)"/><path class="a" d="M256,144h2.143v6.429H256Z" transform="translate(-138.571 -97)"/><path class="a" d="M128,144h6.429v6.429H128Z" transform="translate(-27.714 -97)"/><path class="a" d="M128,112h6.429v2.143H128Z" transform="translate(-27.714 -69.286)"/><path class="a" d="M224,112h6.429v2.143H224Z" transform="translate(-110.857 -69.286)"/><path class="a" d="M230.429,67.214a3.214,3.214,0,1,0-6.429,0v1.071h6.429Z" transform="translate(-110.857 -27.714)"/><path class="a" d="M328.571,49.143h-3.214a1.071,1.071,0,1,1,0-2.143h3.214V44.857h-3.214a1.071,1.071,0,1,1,0-2.143h3.214V40.571h-3.214a1.071,1.071,0,1,1,0-2.143h3.214V32H320V53.429h8.571Zm-5.357-13.929a1.071,1.071,0,1,1,1.071,1.071A1.071,1.071,0,0,1,323.214,35.214Z" transform="translate(-194)"/><path class="a" d="M312,336h2.143v2.143H312Z" transform="translate(-187.071 -263.286)"/><path class="a" d="M312,272h2.143v2.143H312Z" transform="translate(-187.071 -207.857)"/><path class="a" d="M98.143,123.892V113.36A3.218,3.218,0,0,0,96,116.392v7.684a3.2,3.2,0,0,1,1.071-.184Z" transform="translate(0 -70.464)"/><path class="a" d="M149.277,465.212a1.071,1.071,0,0,0,1.061.931h26.218a1.073,1.073,0,0,0,1.062-.939l.141-1.2H149.134Z" transform="translate(-46.018 -374.143)"/><path class="a" d="M126.139,267.857h29.127L158.532,240H122.873Zm19.921-24.643a1.071,1.071,0,0,1,1.071-1.071h4.286a1.071,1.071,0,0,1,1.071,1.071V247.5a1.071,1.071,0,0,1-1.071,1.071h-4.286a1.071,1.071,0,0,1-1.071-1.071Zm0,8.571a1.071,1.071,0,0,1,1.071-1.071h4.286a1.071,1.071,0,0,1,1.071,1.071v4.286a1.071,1.071,0,0,1-1.071,1.071h-4.286a1.071,1.071,0,0,1-1.071-1.071Zm0,8.571a1.071,1.071,0,0,1,1.071-1.071h4.286a1.071,1.071,0,0,1,1.071,1.071v4.286a1.071,1.071,0,0,1-1.071,1.071h-4.286a1.071,1.071,0,0,1-1.071-1.071Zm-8.571-17.143a1.071,1.071,0,0,1,1.071-1.071h4.286a1.071,1.071,0,0,1,1.071,1.071V247.5a1.071,1.071,0,0,1-1.071,1.071H138.56a1.071,1.071,0,0,1-1.071-1.071Zm0,8.571a1.071,1.071,0,0,1,1.071-1.071h4.286a1.071,1.071,0,0,1,1.071,1.071v4.286a1.071,1.071,0,0,1-1.071,1.071H138.56a1.071,1.071,0,0,1-1.071-1.071Zm0,8.571a1.071,1.071,0,0,1,1.071-1.071h4.286a1.071,1.071,0,0,1,1.071,1.071v4.286a1.071,1.071,0,0,1-1.071,1.071H138.56a1.071,1.071,0,0,1-1.071-1.071Zm-8.571-17.143a1.071,1.071,0,0,1,1.071-1.071h4.286a1.071,1.071,0,0,1,1.071,1.071V247.5a1.071,1.071,0,0,1-1.071,1.071h-4.286a1.071,1.071,0,0,1-1.071-1.071Zm0,8.571a1.071,1.071,0,0,1,1.071-1.071h4.286a1.071,1.071,0,0,1,1.071,1.071v4.286a1.071,1.071,0,0,1-1.071,1.071h-4.286a1.071,1.071,0,0,1-1.071-1.071Zm0,8.571a1.071,1.071,0,0,1,1.071-1.071h4.286a1.071,1.071,0,0,1,1.071,1.071v4.286a1.071,1.071,0,0,1-1.071,1.071h-4.286a1.071,1.071,0,0,1-1.071-1.071Z" transform="translate(-23.274 -180.143)"/><path class="a" d="M312,400h2.143v2.143H312Z" transform="translate(-187.071 -318.714)"/><path class="a" d="M184,272h2.143v2.143H184Z" transform="translate(-76.214 -207.857)"/><path class="a" d="M248,336h2.143v2.143H248Z" transform="translate(-131.643 -263.286)"/><path class="a" d="M248,272h2.143v2.143H248Z" transform="translate(-131.643 -207.857)"/><path class="a" d="M248,400h2.143v2.143H248Z" transform="translate(-131.643 -318.714)"/><path class="a" d="M137.786,208H97.071a1.071,1.071,0,1,0,0,2.143h40.714a1.071,1.071,0,0,0,0-2.143Z" transform="translate(0 -152.429)"/><path class="a" d="M184,400h2.143v2.143H184Z" transform="translate(-76.214 -318.714)"/><path class="a" d="M184,336h2.143v2.143H184Z" transform="translate(-76.214 -263.286)"/></g></svg>