<svg xmlns="http://www.w3.org/2000/svg" width="62.239" height="62.238" viewBox="0 0 62.239 62.238"><defs><style>.a{fill:#2d3748;}</style></defs><g transform="translate(0 0)"><path class="a" d="M1.008,274.624a1.825,1.825,0,0,0,2.446-.815l5.663-11.325,5.663,11.325a1.824,1.824,0,0,0,3.262-1.631l-5.974-11.948h4.343a1.824,1.824,0,0,0,1.823-1.823A16.41,16.41,0,0,0,1.824,242,1.823,1.823,0,0,0,0,243.819v14.587a1.824,1.824,0,0,0,1.823,1.823H6.167L.192,272.178a1.823,1.823,0,0,0,.816,2.446Zm0,0" transform="translate(0 -212.579)"/><path class="a" d="M30.339,11.875a1.822,1.822,0,0,0,.7,2.643,18.213,18.213,0,0,0,13.686,1.027,10.434,10.434,0,0,1-.083-2.024C45.005,8.241,49.187,3.129,52.444,0h-.15A26.439,26.439,0,0,0,30.339,11.875Zm0,0" transform="translate(-26.382)"/><path class="a" d="M173.21,4.262c-2.555,2.1-8.822,7.808-9.192,13.257a6.689,6.689,0,0,0,.1,1.68l3.263,1.088a19.1,19.1,0,0,0,4.03.779V40.454h-9.629a19.89,19.89,0,0,1,2.122,7.294h7.507V62.334h-5.592a1.823,1.823,0,1,0,0,3.647h14.83a1.823,1.823,0,1,0,0-3.647h-5.591V47.748h7.507a19.89,19.89,0,0,1,2.122-7.294h-9.629V21.065a19.1,19.1,0,0,0,4.03-.779l3.293-1.1c.877-5.636-6.393-12.533-9.175-14.927Zm0,0" transform="translate(-142.119 -3.744)"/><path class="a" d="M318.185,14.516a1.822,1.822,0,0,0,.7-2.642A26.453,26.453,0,0,0,296.928,0h-.264c3.643,3.571,8.518,9.673,7.87,15.559a18.244,18.244,0,0,0,13.651-1.043Zm0,0" transform="translate(-260.601 0)"/><path class="a" d="M378.4,242a16.41,16.41,0,0,0-16.411,16.41,1.824,1.824,0,0,0,1.823,1.823h4.343l-5.974,11.948a1.824,1.824,0,0,0,3.262,1.631l5.663-11.325,5.663,11.325a1.824,1.824,0,0,0,3.262-1.631L374.06,260.23H378.4a1.824,1.824,0,0,0,1.823-1.823V243.819A1.823,1.823,0,0,0,378.4,242Zm0,0" transform="translate(-317.988 -212.579)"/></g></svg>