<svg xmlns="http://www.w3.org/2000/svg" width="24" height="24" viewBox="0 0 24 24"><defs><style>.a{fill:#2d3748;}</style></defs><path class="a" d="M93.732,87.635a.7.7,0,0,1,.7-.7h1.481a8.324,8.324,0,0,0-7.577-7.577v1.481a.7.7,0,0,1-1.406,0V79.355a8.324,8.324,0,0,0-7.577,7.577h1.481a.7.7,0,0,1,0,1.406H79.355a8.324,8.324,0,0,0,7.577,7.577V94.435a.7.7,0,0,1,1.406,0v1.481a8.324,8.324,0,0,0,7.577-7.577H94.435A.7.7,0,0,1,93.732,87.635Zm-1.85-3.358-3.742,3.848a.7.7,0,0,1-.967.039l-2.794-2.442a.7.7,0,0,1,.926-1.059l2.292,2,3.278-3.37a.7.7,0,1,1,1.008.981Z" transform="translate(-75.635 -75.635)"/><path class="a" d="M12,0A12,12,0,1,0,24,12,12.014,12.014,0,0,0,12,0Zm0,21.717A9.717,9.717,0,1,1,21.717,12,9.728,9.728,0,0,1,12,21.717Z"/></svg>