<svg xmlns="http://www.w3.org/2000/svg" width="81" height="81" viewBox="0 0 81 81"><defs><style>.a{fill:#2d3748;}</style></defs><path class="a" d="M56.386,31.745,38.566,2.791a5.767,5.767,0,0,0-9.855-.041L10.918,31.658A5.507,5.507,0,0,0,10,34.746,5.773,5.773,0,0,0,15.778,40.5H51.472a5.773,5.773,0,0,0,5.778-5.754,5.4,5.4,0,0,0-.864-3ZM33.625,35.438A3.375,3.375,0,1,1,37,32.063,3.376,3.376,0,0,1,33.625,35.438ZM37,21.938a3.375,3.375,0,0,1-6.75,0V11.813a3.375,3.375,0,0,1,6.75,0Z" transform="translate(23.75 0)"/><path class="a" d="M23.25,28.938v8.438H9.75V17.125a3.385,3.385,0,0,1,3.375-3.375H18.9a12.905,12.905,0,0,1,1.519-3.24l1.957-3.172A8.916,8.916,0,0,0,19.875,7h-6.75A10.155,10.155,0,0,0,3,17.125V40.75a3.385,3.385,0,0,0,3.375,3.375h20.25A3.385,3.385,0,0,0,30,40.75V32.076A13.583,13.583,0,0,1,23.25,28.938Z" transform="translate(7.125 16.625)"/><path class="a" d="M19.782,35.063H9.657A2.534,2.534,0,0,1,7.2,33.146l-3.375-13.5A2.528,2.528,0,0,1,6.282,16.5H23.157a2.532,2.532,0,0,1,2.454,3.149l-3.375,13.5a2.528,2.528,0,0,1-2.454,1.914Z" transform="translate(8.905 39.188)"/><path class="a" d="M9.375,33.5A3.376,3.376,0,0,1,6,30.125v-6.75a3.375,3.375,0,1,1,6.75,0v6.75A3.376,3.376,0,0,1,9.375,33.5Z" transform="translate(14.25 47.5)"/><path class="a" d="M13.5,16.75H3.375a3.375,3.375,0,1,1,0-6.75H13.5a3.375,3.375,0,1,1,0,6.75Z" transform="translate(0 23.75)"/></svg>